<svg id="customer" width="88" height="121" 
    xmlns="http://www.w3.org/2000/svg">
    <g fill="none" fill-rule="evenodd">
        <path fill="#424242" fill-rule="nonzero" d="M53.77 121H34.08V88.7l9.85 12 9.84-12z"/>
        <path d="M.43 110.96v9.89h87.14v-9.89c0-15.17-21.39-22.87-43.24-22.84-21.72.02-43.9 6.78-43.9 22.84z" fill="#E0E0E0" fill-rule="nonzero"/>
        <path d="M43.93 83.25h-9.08v9.59c0 4.34 3.7 7.86 8.26 7.86h1.65c4.56 0 8.26-3.52 8.26-7.86v-9.59h-9.09z" fill="#E49500" fill-rule="nonzero"/>
        <path fill="#7AD1FC" fill-rule="nonzero" d="M35.18 93.61h17.43l-7.15 27.24h-2.98z"/>
        <path d="M66.3 106.32l-2.58-16.64s-1.09-7.66-8.93-7.66h-22.5c-7.84 0-8.93 7.66-8.93 7.66l-.84 5.23" stroke="#11222D" stroke-width="3.5"/>
        <path fill="#EEE" fill-rule="nonzero" d="M34.87 87.27l-10 5.87 9.58 10.06-2.29 8 10.48 9.8zM53.03 87.27l9.4 5.23-8.98 10.7 2.29 8-10.48 9.8z"/>
        <g fill-rule="nonzero">
            <path d="M76.17 45.39s5.89 1.02 5.89 7.37c0 5.6-4.3 7.81-8.6 7.81V45.39h2.71zM11.9 45.39s-5.89 1.02-5.89 7.37c0 5.6 4.3 7.81 8.6 7.81V45.39H11.9z" fill="#E39400"/>
            <path d="M44.04 3.82C18.64 3.82 12 23.51 12 51.17c0 28.68 18.43 36.1 32.04 36.1 13.41 0 32.04-7.2 32.04-36.1 0-27.66-6.65-47.35-32.04-47.35z" fill="#FAC01B"/>
            <path d="M33.48 53.74c0 2.86-1.91 5.17-4.28 5.17-2.36 0-4.29-2.32-4.29-5.17 0-2.86 1.92-5.18 4.29-5.18s4.28 2.31 4.28 5.18M54.58 53.74c0 2.86 1.91 5.17 4.29 5.17 2.36 0 4.28-2.32 4.28-5.17 0-2.86-1.92-5.18-4.28-5.18-2.37 0-4.29 2.31-4.29 5.18" fill="#444"/>
            <path d="M53.31 71.21h-9.27-9.27c-1.06 0-1.52.71-.82 1.79.98 1.5 4.64 4.38 10.09 4.38S53.15 74.5 54.13 73c.7-1.08.24-1.79-.82-1.79z" fill="#513F35"/>
            <path d="M48.52 63.33c-1.58.45-3.22.66-4.48.66-1.26 0-2.9-.22-4.48-.66-.67-.19-.94.45-.7.87.5.88 2.52 2.66 5.18 2.66 2.66 0 4.68-1.78 5.18-2.66.24-.43-.03-1.06-.7-.87z" fill="#E39400"/>
            <path d="M44.8.21s-.5-.02-.71-.01c-.21 0-.71.01-.71.01C15.97.74 7.71 17.23 7.71 28.66c0 11.11.01 19.28.01 19.28s.44-.45 1.24-1.08c.86-.67 1.81-1.04 1.81-1.04l1.38 9.28 9.13-19.08c.06-.12.18-.19.31-.17l5.41.6c5.44.6 10.91.9 16.37.91v.01c.24 0 .47-.01.71-.01s.47.01.71.01v-.01c5.46-.02 10.93-.31 16.37-.91l5.41-.6c.13-.01.25.06.31.17l9.13 19.08 1.38-9.28s.95.38 1.81 1.04c.81.63 1.24 1.08 1.24 1.08s.01-8.16.01-19.28C80.47 17.23 72.21.74 44.8.21z" fill="#6D4C41"/>
        </g>
        <path d="M15.04 107.14v-5.13c0-3.93 3.19-7.12 7.12-7.12s7.12 3.19 7.12 7.12v5.13" stroke="#11222D" stroke-width="3.5"/>
        <circle fill="#9E9E9E" fill-rule="nonzero" cx="66.3" cy="108.69" r="6.66"/>
        <path d="M18.45 118.15c-1.33 0-2.49-.48-3.37-1.38-1.81-1.86-1.79-4.89-1.79-5.22v-5.2h3.5v5.24c-.01.65.17 2.11.79 2.74.16.16.38.32.87.32.97 0 1.75.78 1.75 1.75s-.79 1.75-1.75 1.75zM25.86 118.24c-.97 0-1.75-.78-1.75-1.75s.78-1.75 1.75-1.75c.49 0 .71-.16.87-.32.62-.64.81-2.12.79-2.7v-5.28h3.5v5.24c.01.3.03 3.33-1.79 5.18-.88.9-2.05 1.38-3.37 1.38z" fill="#9E9E9E" fill-rule="nonzero"/>
    </g>
</svg>