<svg id="customer" width="104" height="128" 
    xmlns="http://www.w3.org/2000/svg">
    <g fill-rule="nonzero" fill="none">
        <path d="M6.76 118.09v9.89H93.9v-9.89c0-15.17-21.39-22.87-43.24-22.84-21.72.03-43.9 6.78-43.9 22.84z" fill="#424242"/>
        <path d="M50.33 90.25h-9.08v9.59c0 4.34 3.7 7.86 8.26 7.86h1.65c4.56 0 8.26-3.52 8.26-7.86v-9.59h-9.09z" fill="#E49500"/>
        <path fill="#424242" d="M60.17 128H40.49V95.7l9.84 12 9.84-12z"/>
        <path d="M82.57 52.34s5.89 1.02 5.89 7.37c0 5.6-4.3 7.81-8.6 7.81V52.34h2.71zM18.29 52.34s-5.89 1.02-5.89 7.37c0 5.6 4.3 7.81 8.6 7.81V52.34h-2.71z" fill="#E39400"/>
        <path d="M50.43 10.77c-25.4 0-32.04 19.69-32.04 47.35 0 28.68 18.43 36.1 32.04 36.1 13.41 0 32.04-7.2 32.04-36.1.01-27.66-6.64-47.35-32.04-47.35z" fill="#FAC01B"/>
        <path d="M39.88 60.69c0 2.86-1.91 5.17-4.28 5.17-2.36 0-4.29-2.32-4.29-5.17 0-2.86 1.92-5.18 4.29-5.18s4.28 2.31 4.28 5.18M60.98 60.69c0 2.86 1.91 5.17 4.29 5.17 2.36 0 4.28-2.32 4.28-5.17 0-2.86-1.92-5.18-4.28-5.18-2.38 0-4.29 2.31-4.29 5.18" fill="#444"/>
        <path d="M59.71 78.16h-9.27-9.27c-1.06 0-1.52.71-.82 1.79.98 1.5 4.64 4.38 10.09 4.38s9.11-2.88 10.09-4.38c.7-1.08.24-1.79-.82-1.79z" fill="#513F35"/>
        <path d="M54.91 70.28c-1.58.45-3.22.66-4.48.66-1.26 0-2.9-.22-4.48-.66-.67-.19-.94.45-.7.87.5.88 2.52 2.66 5.18 2.66 2.66 0 4.68-1.78 5.18-2.66.24-.43-.02-1.07-.7-.87z" fill="#E39400"/>
        <path d="M51.2 7.16s-.5-.02-.71-.01c-.21 0-.71.01-.71.01-27.41.53-35.67 17.02-35.67 28.45 0 11.11.01 19.28.01 19.28s.44-.45 1.24-1.08c.86-.67 1.81-1.04 1.81-1.04l1.38 9.28 9.13-19.08c.06-.12.18-.19.31-.17l5.41.6c5.44.6 10.91.9 16.37.91v.01c.24 0 .47-.01.71-.01s.47.01.71.01v-.02c5.46-.02 10.93-.31 16.37-.91l5.41-.6c.13-.01.25.06.31.17l9.13 19.08 1.38-9.28s.95.38 1.81 1.04c.81.63 1.24 1.08 1.24 1.08s.01-8.16.01-19.28c.02-11.42-8.24-27.91-35.65-28.44z" fill="#6D4C41"/>
        <g>
            <path fill="#262626" d="M50.36 0L.5 9.22 50.49.02z"/>
            <path fill="#424143" d="M50.64.01L50.61 0l-.12.02.15.03z"/>
            <path fill="#262626" d="M50.92 0l49.87 9.22L50.8.02z"/>
            <path d="M100.81 11.76l-.02-2.54-50.11 7.26h-.06L.5 9.22l-.02 2.54 20.07 3.51-1.72 4.86c3.68 1.62 17.01 7 31.81 7.39 14.8-.4 27.66-5.77 31.34-7.39l-1.72-4.86 20.55-3.51z" fill="#262626"/>
            <path fill="#424143" d="M50.64.01l.04-.01.12.02-.16.03z"/>
            <path fill="#424143" d="M50.8.02l-.16.03-.15-.03L.5 9.22l50.11 7.26.03-.01.04.01 50.11-7.26z"/>
            <g>
                <g transform="translate(96 42)">
                    <path d="M5.7 3.9c-1.01 0-1.82.82-1.82 1.82v7.83a1.82 1.82 0 0 0 3.64 0V5.72c0-1-.81-1.82-1.82-1.82zM2.06 3.9C1.05 3.9.24 4.72.24 5.72v7.83a1.82 1.82 0 0 0 3.64 0V5.72c0-1-.81-1.82-1.82-1.82z" fill="#FBC11B"/>
                    <path d="M3.22 3.9c-1.01 0-1.82.82-1.82 1.82v7.83a1.82 1.82 0 0 0 3.64 0V5.72c0-1-.81-1.82-1.82-1.82z" fill="#E49500"/>
                    <path d="M4.61 3.9c-1.01 0-1.82.82-1.82 1.82v7.83c0 1.01.82 1.82 1.82 1.82s1.82-.82 1.82-1.82V5.72c0-1-.81-1.82-1.82-1.82z" fill="#E49500"/>
                    <path d="M3.88 3.9c-1.01 0-1.82.82-1.82 1.82v9.52a1.82 1.82 0 0 0 3.64 0V5.72c0-1-.81-1.82-1.82-1.82z" fill="#FBC11B"/>
                    <circle fill="#E49500" cx="3.88" cy="3.38" r="2.06"/>
                    <circle fill="#FBC11B" cx="3.88" cy="2.85" r="2.06"/>
                </g>
                <path d="M98.98 9.45V44.4H99c.04.46.42.83.89.83.47 0 .85-.36.89-.83h.02V9.45h-1.82z" fill="#262626"/>
            </g>
        </g>
    </g>
</svg>