<svg id="customer" width="120" height="141" 
    xmlns="http://www.w3.org/2000/svg">
    <g fill-rule="nonzero" fill="none">
        <path d="M8.26 107.61C1.74 85.27 1.75 39.47 1.75 39.47l84-.33s0 41.49-4.88 68.19l-72.61.28z" fill="#6D4C41"/>
        <ellipse cx="42.74" cy="40.19" rx="42" ry="39.5" fill="#6D4C41" transform="translate(1)"/>
        <path d="M43.69 84.18h-9.08l-.14 10.4c0 4.53 3.84 8.88 8.4 8.88h1.65c4.56 0 8.45-4.18 8.45-8.71l-.2-10.57h-9.08z" fill="#E49500"/>
        <path d="M43.64 7.51c-24.35 0-30.72 18.87-30.72 45.39 0 26.51 18.89 34.6 30.72 34.6 11.83 0 30.72-8.09 30.72-34.6 0-26.52-6.37-45.39-30.72-45.39z" fill="#FBC11B"/>
        <path d="M52.97 72.05h-9.23-9.23c-1.06 0-1.51.71-.81 1.78.98 1.49 4.61 4.36 10.04 4.36 5.43 0 9.06-2.87 10.04-4.36.7-1.07.25-1.78-.81-1.78z" fill="#444"/>
        <g fill="#444">
            <path d="M33.25 54.66c0 2.84-1.9 5.15-4.26 5.15-2.35 0-4.27-2.3-4.27-5.15 0-2.85 1.91-5.15 4.27-5.15 2.35 0 4.26 2.3 4.26 5.15M54.24 54.66c0 2.84 1.9 5.15 4.27 5.15 2.35 0 4.26-2.3 4.26-5.15 0-2.85-1.91-5.15-4.26-5.15-2.37 0-4.27 2.3-4.27 5.15"/>
        </g>
        <path d="M48.15 64.2c-1.57.44-3.2.66-4.46.66-1.26 0-2.89-.22-4.46-.66-.67-.19-.94.45-.69.87.5.88 2.5 2.64 5.15 2.64 2.65 0 4.65-1.77 5.15-2.64.24-.42-.02-1.06-.69-.87z" fill="#E49500"/>
        <path d="M52.82 28.51c-3.23 3.11-19.29 17.58-41.42 21.35V20.2S20.95 1.25 43.87 1.25c22.92 0 32.47 19.43 32.47 19.43v29.19S61.32 44.11 53.78 28.7c-.18-.38-.66-.48-.96-.19z" fill="#6D4C41"/>
        <g>
            <path d="M109.35 68.21l-2.38 8.39c1.27.29 2.34.85 3.34 1.26l2.64-8.59-3.6-1.06z" fill="#A7A9AC"/>
            <path d="M91.79 130.17l2.25.66 16.27-52.98c-1-.41-2.07-.97-3.34-1.26l-15.18 53.58z" fill="#603913"/>
            <path d="M112.64 63.1c-2.32 1.16-2.4 4.54-5.65 3.68.09 1.72 1.09 3.3 3.06 3.95 2.06.68 4.38-.32 5.53-2.32-.96-1.94 1.23-6.35-2.94-5.31z" fill="#D1D3D4"/>
            <path d="M111.73 55.09c.23.3-.41 1.95-.54 2.32-.28.8-.64 1.57-1.03 2.33-.79 1.53-1.94 2.83-2.62 4.42-.37.87-.6 1.75-.56 2.62 3.25.86 3.34-2.52 5.65-3.68 4.17-1.04 1.98 3.37 2.94 5.31.21-.36.38-.73.51-1.15 1.7-5.84-2.5-9.8-4.35-12.17z" fill="#547DBE"/>
            <path d="M89.53 65.32l.56 9.26c1.37-.16 2.65.03 3.79.09l-.37-9.55-3.98.2z" fill="#A7A9AC"/>
            <path d="M93.68 133.73l2.49-.12-2.29-58.93c-1.14-.06-2.42-.25-3.79-.09l3.59 59.14z" fill="#754C29"/>
            <path d="M87.93 63.93c-.35-.32-.8-.63-1.22-.98-.1 1.37.17 2.7 1.2 3.7 1.28 1.24 3.39 1.65 5.06 1.09 3.45-1.14 4.37-6.22 2.7-9.06-.05-.09-.09-.17-.14-.25-.26.04-.53.1-.82.21-1.95 1.08-3.74 6.16-6.78 5.29z" fill="#D1D3D4"/>
            <path d="M92.87 50.67c-.25-.03-.63.54-.75.7-.5.6-.94 1.25-1.36 1.9-.04.06-.08.12-.12.19a34.955 34.955 0 0 0-2.97 5.77c-.44 1.09-.87 2.42-.96 3.72.42.35.88.67 1.22.98 3.04.87 4.83-4.21 6.78-5.29.29-.11.56-.17.82-.21-3.07-5.33-2.66-7.76-2.66-7.76z" fill="#089C58"/>
            <g>
                <path d="M105.36 69.28l-1.35 9.6c-1.41-.28-2.76-.18-3.96-.22l1.17-9.91 4.14.53z" fill="#A7A9AC"/>
                <path d="M95.41 140.17l-2.58-.33 7.24-61.18c1.19.03 2.54-.06 3.96.22l-8.62 61.29z" fill="#8B5E3C"/>
                <path d="M100.97 65.33l.05 4.53 4.29.48 1.71-6.72c-1.93-1.12-4.02.95-6.05 1.71z" fill="#D1D3D4"/>
                <path d="M108.18 58.94c-.04-.42-.22-.74-.68-.82-.23-.04-.56.21-.73.17-.22-.05-.31-.32-.5-.41-.69-.33-1.53.17-2.25.12-.46-.04-.9-.16-1.36-.15-.14.01-.84.16-1.01.08-.91-.44-.74.79-.74.79l.08 6.61c2.03-.76 4.12-2.83 6.05-1.71.15-.61.31-1.21.46-1.82.12-.54.76-1.95.68-2.86z" fill="#DB4436"/>
            </g>
            <g fill="#414042">
                <path d="M51.5 104.88H36.3c-2.84 0-5.16-2.32-5.16-5.16v-7.69c0-1.65 1.35-3 3-3h19.52c1.65 0 3 1.35 3 3v7.69c0 2.84-2.33 5.16-5.16 5.16z"/>
                <path d="M.33 112.03V122h87.14v-9.97c0-12.53-17.12-16.39-34.47-17.28-.08.75-.25 6.81-9.23 6.81-8.77 0-9.07-5.4-9.27-6.98C17.41 95.39.33 99.04.33 112.03z"/>
            </g>
        </g>
        <g>
            <path d="M87.66 103.71c1.22-.57 2.45-.37 3.64.15.97-1.12 2.76-2.91 3.34-3.35.69-.52 1.64-1.17 2.9.09.82.82 1.08 1.84.01 2.87-.4.38-.82.77-1.23 1.14l.56.38c.39-.33.75-.63 1.02-.86 1.15-.96 2.31-.87 3.3.37.87 1.08.35 2.34-.29 2.93-.34.31-1.4 1.07-2.46 1.77l.07.3.01.1c.7-.41 1.38-.79 1.87-1.06 1.3-.72 2.45-.4 3.05.6.73 1.21-.01 2.3-.7 2.82-.52.39-2.51 1.54-3.89 2.24l.04.52c.1-.06.19-.11.3-.17.02-.01.03-.02.05-.03l.27-.15c.02-.01.04-.02.06-.04.11-.06.21-.12.32-.18 0 0 .01 0 .01-.01.11-.06.23-.13.35-.19.02-.01.04-.02.07-.04l.27-.15c.04-.02.07-.04.11-.06.08-.04.15-.08.23-.12l.12-.06c.08-.04.15-.08.22-.12.04-.02.07-.04.11-.06.11-.06.21-.11.31-.16 1.21-.62 1.99-.47 2.52.46.75 1.3-.2 2.49-.86 2.93-.66.44-3.09 1.69-4.01 1.95-.06.02-.12.03-.18.04l.04.53c-3.22 2.26-6.44 2.76-6.44 2.76-2.61.44-3.53-.09-4.82-1.08-1.46-1.13-2.72-2.85-2.92-3.12-2.14-2.87-2.97-5.17-1.93-8.48.25-.8.54-2.07 2.13-3.69.6-.65 1.62-1.38 2.43-1.77z" fill="#FBC11B"/>
            <path d="M92.78 84.27c-7.55 3.11-12.5 9.73-15.7 16.82-1.64 3.62-2.45 7.19-2.82 11-.18 1.85-.16 3.65.29 5.77.31 1.46.78 2.81 1.86 4.29.53.73 1.22 1.32 2.15 1.65.5.18 1.13.23 2.21.17 2.22-.11 3.58-.93 5.46-1.95.78-.4 1.56-.79 2.34-1.19 1.42-.65 3.33-1.81 4.83-.94 1.75 1.01.46 3.44-.42 4.66-.35.49-.7.98-1.04 1.47-.46.68-.9 1.38-1.16 2.02-.13.3-.22.6-.24.89-.03.31.03.63.25.95.24.35.66.55 1.15.69 1.2.34 2.47.28 3.73.08 4.44-.72 8.68-3.05 12.12-5.93 1.43-1.2 2.69-2.52 4.43-4.54 17.28-20.12 3.57-45.4-19.44-35.91z" fill="#BCAAA4"/>
            <path d="M89.81 108.85c1.29-.1 2.63 1.12 3.83 1.61 3.96 1.62 4.73-1.55 3.01-3.3-3.91-3.97-8.72-2.93-10.69-1.02-.74.72-1.7 1.88-2.07 2.82-.96 2.42 3 3.54 4.03 1.31.34-.76 1.06-1.35 1.89-1.42z" fill="#FBC11B"/>
            <path d="M96.9 106.92c-4.08-4.15-9.08-3.06-11.18-1.03-.74.72-1.75 1.92-2.15 2.94-.01.01-.01.03-.01.04.1.03.2.06.3.1.11.05.22.1.34.15.01 0 .01-.01.02-.01 0-.01 0-.01.01-.02.34-.86 1.25-1.97 1.99-2.7.94-.92 2.54-1.61 4.37-1.61 1.85 0 3.94.71 5.82 2.63.76.77.99 1.87.53 2.56-.49.73-1.64.79-3.16.17-.37-.15-.77-.38-1.19-.63-.9-.53-1.82-1.08-2.8-1-.91.07-1.77.71-2.19 1.62-.01.03-.04.05-.05.08.18.13.37.28.56.43.04-.07.09-.14.13-.22.31-.68.94-1.16 1.61-1.21.75-.05 1.58.43 2.39.9.42.25.86.5 1.28.68 2.62 1.08 3.67.06 4-.43.63-.96.37-2.44-.62-3.44z" fill="#E49500"/>
            <path d="M101.2 90.66c-.32-1.64-1.73-3.09-3.44-3.21-1.95-.13-2.95 1.55-3.43 3.19s-.52 3.52.61 4.91c1.24 1.53 3.48 1.47 4.69-.04.44-.54.77-1.24.97-1.97.58-.79.8-1.85.6-2.88z" fill="#547DBE"/>
            <path d="M111.92 90.36c-1.62-1.05-4.05-.08-5.48.9-1.6 1.11-2.78 3.26-1.89 5.18.87 1.89 3.19 2.46 5.02 1.71 1.6-.65 3.41-2.4 3.37-4.24.46-1.27.33-2.68-1.02-3.55z" fill="#089C58"/>
            <path d="M113.47 101.45c-1.58-.08-3.25.66-4.46 1.63-1.32 1.06-2.25 2.65-1.39 4.31.78 1.51 2.61 2.04 4.19 1.87 1.49-.16 2.92-1.02 3.75-2.28.3-.45.51-.98.55-1.52.11-.29.2-.6.24-.93.22-1.78-1.22-2.99-2.88-3.08z" fill="#F2B31B"/>
            <path d="M109.27 112.91c-.76-1.17-2.22-1.6-3.54-1.85-1.51-.29-3.26-.15-4.44.96-1.38 1.3-1.11 3.35.43 4.37.32.21.69.39 1.09.53 1.39 1.04 3.18.74 4.7.18 1.17-.44 2.13-1.47 2.19-2.67 0-.02.01-.03.01-.04.08-.64-.11-1.14-.44-1.48z" fill="#DB4436"/>
        </g>
    </g>
</svg>