<svg id="customer" width="96" height="131" 
    xmlns="http://www.w3.org/2000/svg" 
    xmlns:xlink="http://www.w3.org/1999/xlink">
    <defs>
        <path d="M78.18 11.6S61.77.4 40.42.34C19.07.41 2.66 11.6 2.66 11.6l-1.8 6.85s18.07-2.06 39.44-2.06c25.38 0 39.68 2.06 39.68 2.06l-1.8-6.85z" id="a"/>
        <path d="M78.18 11.6S61.77.4 40.42.34C19.07.41 2.66 11.6 2.66 11.6l-1.8 6.85s18.07-2.06 39.44-2.06c25.38 0 39.68 2.06 39.68 2.06l-1.8-6.85z" id="c"/>
    </defs>
    <g fill="none" fill-rule="evenodd">
        <path d="M4.85 116.1v9.89h87.14v-9.89c0-15.17-21.39-22.87-43.24-22.84-21.72.02-43.9 6.77-43.9 22.84z" fill="#262626" fill-rule="nonzero"/>
        <path d="M48.85 93.25c-8.69 0-14.54 1.06-14.54 1.06l6.4 31.67h8.14V93.25z" fill="#E0E0E0" fill-rule="nonzero"/>
        <path d="M48.42 93.25c8.4 0 14.12 1.05 14.12 1.05l-6.44 31.68h-7.69V93.25h.01z" fill="#E0E0E0" fill-rule="nonzero"/>
        <path d="M48.52 88.25h-9.08v9.59c0 4.34 3.22 6.58 7.78 6.58l3.67-.17c4.56 0 6.72-2.08 6.72-6.41v-9.59h-9.09z" fill="#E49800" fill-rule="nonzero"/>
        <path d="M43.83 104.93l1.77 7.5-2 18.28h9.64l-2-18.28 1.71-7.5z" fill="#262626" fill-rule="nonzero"/>
        <path d="M57.61 93.65c0 1.53-1.31 4.42-3.4 6.82-2.12 2.44-5.65 3.95-5.65 3.95l10.39 11.08 3.72-21.19c-.01.01-3.09-.47-5.06-.66zM39.47 93.65c0 1.53 1.31 4.42 3.4 6.82 2.12 2.44 5.65 3.95 5.65 3.95l-10.38 11.09L34.4 94.3c.01-.01 3.04-.49 5.07-.65z" fill="#F5F5F5" fill-rule="nonzero"/>
        <path d="M60.9 94.05l-6.4 31.93h7.26l11.48-11.99-4.75-6.6 7.12-4.71-4.01-6.35c0 .01-5.05-1.53-10.7-2.28zM36.17 94.03l6.41 31.95h-7.29l-11.44-12.04 4.75-6.6-7.12-4.71 4.06-6.44c-.01 0 4.98-1.41 10.63-2.16z" fill="#0A0A0A" fill-rule="nonzero"/>
        <g fill-rule="nonzero">
            <path d="M80.82 50.34s5.89 1.02 5.89 7.37c0 5.6-4.3 7.81-8.6 7.81V50.34h2.71zM16.54 50.34s-5.89 1.02-5.89 7.37c0 5.6 4.3 7.81 8.6 7.81V50.34h-2.71z" fill="#E39400"/>
            <path d="M48.68 8.77c-25.4 0-32.04 19.69-32.04 47.35 0 28.68 18.43 36.1 32.04 36.1 13.41 0 32.04-7.2 32.04-36.1.01-27.66-6.64-47.35-32.04-47.35z" fill="#FAC01B"/>
            <path d="M38.13 58.69c0 2.86-1.91 5.17-4.28 5.17-2.36 0-4.29-2.32-4.29-5.17 0-2.86 1.92-5.18 4.29-5.18s4.28 2.31 4.28 5.18M59.23 58.69c0 2.86 1.91 5.17 4.29 5.17 2.36 0 4.28-2.32 4.28-5.17 0-2.86-1.92-5.18-4.28-5.18-2.38 0-4.29 2.31-4.29 5.18" fill="#444"/>
            <path d="M57.96 76.16h-9.27-9.27c-1.06 0-1.52.71-.82 1.79.98 1.5 4.64 4.38 10.09 4.38s9.11-2.88 10.09-4.38c.7-1.08.24-1.79-.82-1.79z" fill="#513F35"/>
            <path d="M53.16 68.28c-1.58.45-3.22.66-4.48.66-1.26 0-2.9-.22-4.48-.66-.67-.19-.94.45-.7.87.5.88 2.52 2.66 5.18 2.66 2.66 0 4.68-1.78 5.18-2.66.24-.43-.02-1.07-.7-.87z" fill="#E39400"/>
            <path d="M49.45 5.16s-.5-.02-.71-.01c-.21 0-.71.01-.71.01-27.41.53-35.67 17.02-35.67 28.45 0 11.11.01 19.28.01 19.28s.44-.45 1.24-1.08c.86-.67 1.81-1.04 1.81-1.04l1.38 9.28 9.13-19.08c.06-.12.18-.19.31-.17l5.41.6c5.44.6 10.91.9 16.37.91v.01c.24 0 .47-.01.71-.01s.47.01.71.01v-.02c5.46-.02 10.93-.31 16.37-.91l5.41-.6c.13-.01.25.06.31.17l9.13 19.08 1.38-9.28s.95.38 1.81 1.04c.81.63 1.24 1.08 1.24 1.08s.01-8.16.01-19.28c.02-11.42-8.24-27.91-35.65-28.44z" fill="#6D4C41"/>
        </g>
        <path d="M48.42 36.61c-21.04.14-40.1 3.7-40.1 3.7s9.8 10.5 40.1 10.72c30.3-.22 40.1-10.72 40.1-10.72s-19.06-3.56-40.1-3.7z" fill="#262626" fill-rule="nonzero"/>
        <path d="M92.35 18.41c-2.59-3.1-4.62-4.99-7.97-7.26C73.96 4.13 59.49.97 48.81.97c-.13 0-.26.01-.39.01s-.26-.01-.39-.01c-10.68 0-25.15 3.16-35.57 10.19-3.35 2.27-5.38 4.15-7.97 7.26C.68 22.98-.1 29.99 2.27 35.89c1.9 4.72 7.32 5.12 7.32 5.12 2.11-4 1.92-3.66 6.01-4.72 4.19-1.09 19.41-2.28 32.82-2.81 13.41.53 28.64 1.73 32.82 2.81 4.09 1.06 2.4.71 4.51 4.72 0 0 6.92-.4 8.82-5.12 2.37-5.91 1.59-12.92-2.22-17.48z" fill="#262626" fill-rule="nonzero"/>
        <path d="M86.18 33.6S69.77 22.4 48.42 22.34c-21.35.07-37.76 11.26-37.76 11.26l-1.8 6.85s18.07-2.06 39.44-2.06c25.38 0 39.68 2.06 39.68 2.06l-1.8-6.85z" fill="#444" fill-rule="nonzero"/>
        <g transform="translate(8 22)">
            <mask id="b" fill="#fff">
                <use xlink:href="#a"/>
            </mask>
            <g mask="url(#b)" fill="#FFC107" fill-rule="nonzero">
                <path d="M40.53 69.84c-37.65 0-68.28-14.08-68.28-31.39 0-17.31 30.63-31.39 68.28-31.39 37.65 0 68.28 14.08 68.28 31.39-.01 17.31-30.64 31.39-68.28 31.39zm0-61.08c-36.49 0-66.17 13.32-66.17 29.69S4.05 68.14 40.53 68.14c36.48 0 66.17-13.32 66.17-29.69S77.02 8.76 40.53 8.76z"/>
            </g>
        </g>
        <g transform="translate(8 22)">
            <mask id="d" fill="#fff">
                <use xlink:href="#c"/>
            </mask>
            <g mask="url(#d)" fill="#FFC107" fill-rule="nonzero">
                <path d="M40.53 73.34c-37.65 0-68.28-14.08-68.28-31.39 0-17.31 30.63-31.39 68.28-31.39 37.65 0 68.28 14.08 68.28 31.39-.01 17.31-30.64 31.39-68.28 31.39zm0-61.08c-36.49 0-66.17 13.32-66.17 29.69S4.05 71.64 40.53 71.64c36.48 0 66.17-13.32 66.17-29.69S77.02 12.26 40.53 12.26z"/>
            </g>
        </g>
        <g fill="#FFC107" fill-rule="nonzero">
            <path d="M41.78 13.98c-.09.06-.18.1-.29.1h-9.76c-.35 0-.5.46-.21.66.23.16.46.32.68.48.79.54 1.73.82 2.69.82h7.66c-.22-.74-.48-1.43-.77-2.06zM41.32 13.02c-.52-.99-1.02-1.76-1.39-2.28H27.39c-.27 0-.39.33-.2.51.12.11.24.22.37.32 1.06.94 2.43 1.45 3.85 1.45h9.91zM42.85 17.1h-6.74c-.21 0-.28.29-.09.38 4.08 2.03 6.38 1.9 6.38 1.9h.79c-.05-.79-.17-1.55-.34-2.28zM65.1 14.08h-9.76c-.11 0-.21-.04-.29-.1-.28.63-.54 1.32-.77 2.05h7.66c.96 0 1.89-.28 2.69-.82.22-.15.45-.31.68-.48.29-.19.14-.65-.21-.65zM69.45 10.74H56.91c-.37.52-.88 1.29-1.39 2.28h9.91c1.42 0 2.79-.51 3.85-1.45.12-.11.24-.22.37-.32.19-.18.07-.51-.2-.51zM60.72 17.1h-6.73c-.17.73-.29 1.49-.35 2.28h.78s2.31.14 6.38-1.9c.2-.09.13-.38-.08-.38zM52.64 8.08c-.75.35-1.65.56-2.47.68-1.16.18-2.34.18-3.5 0-.82-.12-1.72-.33-2.47-.68-.47-.22-1.04.02-1.23.5l-.79 1.97c-.21.52-.17.85.02 1.11.7.96 2.37 3.56 2.48 6.7.01.35.2.67.51.82.64.31 1.77.9 2.62 1.6.36.29.85.29 1.21 0 .85-.7 1.98-1.29 2.62-1.6.32-.15.5-.47.51-.82.11-3.14 1.78-5.74 2.48-6.7a.9.9 0 0 0 .11-.88c-.22-.56-.6-1.48-.88-2.19-.19-.49-.75-.73-1.22-.51z"/>
        </g>
        <g fill="#FFC107" fill-rule="nonzero">
            <path d="M68.4 117.63c-.04.03-.08.04-.13.04h-4.34c-.16 0-.22.2-.09.3l.3.21c.35.24.77.36 1.19.36h3.41c-.1-.32-.21-.63-.34-.91zM68.2 117.2c-.23-.44-.45-.78-.62-1.01H62c-.12 0-.18.15-.09.23.05.05.11.1.16.14.47.42 1.08.64 1.71.64h4.42zM68.88 119.02h-3c-.09 0-.12.13-.04.17 1.81.9 2.84.84 2.84.84h.35a6.46 6.46 0 0 0-.15-1.01zM78.77 117.67h-4.34c-.05 0-.09-.02-.13-.04-.13.28-.24.59-.34.91h3.41c.43 0 .84-.12 1.19-.36l.3-.21c.13-.09.07-.3-.09-.3zM80.71 116.19h-5.58c-.16.23-.39.57-.62 1.01h4.41c.63 0 1.24-.23 1.71-.64.05-.05.11-.1.16-.14.09-.08.03-.23-.08-.23zM76.83 119.02h-2.99c-.08.32-.13.66-.15 1.01h.35s1.03.06 2.84-.84c.07-.05.04-.17-.05-.17zM73.23 115.01c-.33.16-.73.25-1.1.3a5.1 5.1 0 0 1-1.56 0c-.36-.06-.76-.15-1.1-.3-.21-.1-.46.01-.55.22l-.35.87c-.09.23-.08.38.01.49.31.43 1.05 1.58 1.1 2.98.01.16.09.3.23.36.29.14.79.4 1.17.71.16.13.38.13.54 0 .38-.31.88-.57 1.17-.71.14-.07.22-.21.23-.36.05-1.4.79-2.55 1.1-2.98.08-.11.1-.26.05-.39-.1-.25-.26-.66-.39-.97a.406.406 0 0 0-.55-.22z"/>
        </g>
    </g>
</svg>