<svg id="customer" width="88" height="122" 
    xmlns="http://www.w3.org/2000/svg">
    <g fill-rule="nonzero" fill="none">
        <path d="M8.62 107.55C2.11 85.21 2.11 39.41 2.11 39.41l84-.33s0 41.49-4.88 68.19l-72.61.28z" fill="#6D4C41"/>
        <path d="M.43 112.11V122h87.14v-9.89c0-15.17-21.39-22.87-43.24-22.84-21.72.03-43.9 6.78-43.9 22.84z" fill="#607D8B"/>
        <path d="M44.44 89.27c-8.69 0-14.54 1.06-14.54 1.06L36.3 122h8.14V89.27z" fill="#D8D8D8"/>
        <path d="M44 89.27c8.4 0 14.12 1.05 14.12 1.05L51.69 122H44V89.27z" fill="#D8D8D8"/>
        <ellipse cx="42.11" cy="40.13" rx="42" ry="39.5" transform="translate(2)" fill="#6D4C41"/>
        <path d="M44.11 84.27h-9.08v9.59c0 4.34 3.22 6.58 7.78 6.58l3.67-.17c4.56 0 6.72-2.08 6.72-6.41v-9.59h-9.09z" fill="#E49800"/>
        <path d="M53.19 89.67c0 1.53-1.31 4.42-3.4 6.82-2.12 2.44-5.65 3.95-5.65 3.95l10.39 11.08 3.72-21.19c0 .01-3.09-.47-5.06-.66z" fill="#FFF"/>
        <path d="M44 7.59c-24.35 0-30.72 18.87-30.72 45.39 0 26.51 18.89 34.6 30.72 34.6 11.83 0 30.72-8.09 30.72-34.6S68.35 7.59 44 7.59z" fill="#FBC11B"/>
        <path d="M53.33 72.13H44.1h-9.23c-1.06 0-1.51.71-.81 1.78.98 1.49 4.61 4.36 10.04 4.36 5.43 0 9.06-2.87 10.04-4.36.71-1.07.25-1.78-.81-1.78z" fill="#513F35"/>
        <g fill="#444">
            <path d="M33.61 54.75c0 2.84-1.9 5.15-4.26 5.15-2.35 0-4.27-2.3-4.27-5.15 0-2.85 1.91-5.15 4.27-5.15 2.36 0 4.26 2.3 4.26 5.15M54.6 54.75c0 2.84 1.9 5.15 4.27 5.15 2.35 0 4.26-2.3 4.26-5.15 0-2.85-1.91-5.15-4.26-5.15-2.37 0-4.27 2.3-4.27 5.15"/>
        </g>
        <path d="M48.51 64.29c-1.57.44-3.2.66-4.46.66-1.26 0-2.89-.22-4.46-.66-.67-.19-.94.45-.69.87.5.88 2.5 2.64 5.15 2.64 2.65 0 4.65-1.77 5.15-2.64.25-.43-.02-1.06-.69-.87z" fill="#E49500"/>
        <path d="M53.18 28.45c-3.23 3.11-19.29 17.58-41.42 21.35V20.14S21.31 1.19 44.23 1.19c22.92 0 32.47 19.43 32.47 19.43V49.8s-15.02-5.76-22.56-21.17a.6.6 0 0 0-.96-.18z" fill="#6D4C41"/>
        <path d="M56.48 90.07L50.08 122h7.26l11.48-11.99-4.75-6.6 7.12-4.71-4.01-6.35s-5.05-1.54-10.7-2.28z" fill="#455A64"/>
        <path d="M35.05 89.66c0 1.53 1.31 4.42 3.4 6.82 2.12 2.44 5.65 3.95 5.65 3.95l-10.38 11.09-3.74-21.21c.01 0 3.04-.48 5.07-.65z" fill="#FFF"/>
        <path d="M31.76 90.05l6.4 31.95h-7.29l-11.44-12.04 4.75-6.6-7.12-4.71 4.06-6.44s4.98-1.42 10.64-2.16z" fill="#455A64"/>
        <circle fill="#B7B7B7" cx="44.29" cy="109.31" r="1.69"/>
        <circle fill="#B7B7B7" cx="44.29" cy="117.31" r="1.69"/>
    </g>
</svg>