<svg id="customer" width="88" height="122" 
    xmlns="http://www.w3.org/2000/svg">
    <g fill="none" fill-rule="evenodd">
        <path d="M8.44 107.53C1.93 85.19 1.93 39.39 1.93 39.39l84-.33s0 41.49-4.88 68.19l-72.61.28z" fill="#6D4C41" fill-rule="nonzero"/>
        <ellipse cx="42.93" cy="40.11" rx="42" ry="39.5" transform="translate(1)" fill="#6D4C41" fill-rule="nonzero"/>
        <path fill="#424242" fill-rule="nonzero" d="M53.77 122H34.08V89.7l9.85 12 9.84-12z"/>
        <path d="M.43 111.96v9.89h87.14v-9.89c0-15.17-21.39-22.87-43.24-22.84-21.72.02-43.9 6.78-43.9 22.84z" fill="#E0E0E0" fill-rule="nonzero"/>
        <path d="M43.93 84.25h-9.08v9.59c0 4.34 3.7 7.86 8.26 7.86h1.65c4.56 0 8.26-3.52 8.26-7.86v-9.59h-9.09z" fill="#E49500" fill-rule="nonzero"/>
        <path fill="#7AD1FC" fill-rule="nonzero" d="M35.18 94.61h17.43l-7.15 27.24h-2.98z"/>
        <path d="M66.3 107.32l-2.58-16.64s-1.09-7.66-8.93-7.66h-22.5c-7.84 0-8.93 7.66-8.93 7.66l-.84 5.23" stroke="#11222D" stroke-width="3.5"/>
        <g fill-rule="nonzero">
            <path d="M43.93 7.57c-24.35 0-30.72 18.87-30.72 45.39 0 26.51 18.89 34.6 30.72 34.6 11.83 0 30.72-8.09 30.72-34.6-.01-26.51-6.38-45.39-30.72-45.39z" fill="#FBC11B"/>
            <path d="M53.26 72.11h-9.23-9.23c-1.06 0-1.51.71-.81 1.78.98 1.49 4.61 4.36 10.04 4.36 5.43 0 9.06-2.87 10.04-4.36.7-1.07.25-1.78-.81-1.78z" fill="#444"/>
            <g fill="#444">
                <path d="M33.53 54.73c0 2.84-1.9 5.15-4.26 5.15-2.35 0-4.27-2.3-4.27-5.15 0-2.85 1.91-5.15 4.27-5.15 2.36-.01 4.26 2.3 4.26 5.15M54.53 54.73c0 2.84 1.9 5.15 4.27 5.15 2.35 0 4.26-2.3 4.26-5.15 0-2.85-1.91-5.15-4.26-5.15-2.37-.01-4.27 2.3-4.27 5.15"/>
            </g>
            <path d="M48.44 64.27c-1.57.44-3.2.66-4.46.66-1.26 0-2.89-.22-4.46-.66-.67-.19-.94.45-.69.87.5.88 2.5 2.64 5.15 2.64 2.65 0 4.65-1.77 5.15-2.64.24-.43-.02-1.06-.69-.87z" fill="#E49500"/>
        </g>
        <path d="M52.87 28.43c-3.23 3.11-19.29 17.58-41.42 21.35V20.11S21 1.16 43.92 1.16c22.92 0 32.48 19.43 32.48 19.43v29.19s-15.02-5.76-22.56-21.17c-.19-.37-.67-.47-.97-.18z" fill="#6D4C41" fill-rule="nonzero"/>
        <path fill="#EEE" fill-rule="nonzero" d="M34.87 88.27l-10 5.87 9.58 10.06-2.29 8 10.48 9.8zM53.03 88.27L62.36 94l-8.91 10.2 2.29 8-10.48 9.8z"/>
        <path d="M15.04 108.14v-5.13c0-3.93 3.19-7.12 7.12-7.12s7.12 3.19 7.12 7.12v5.13" stroke="#11222D" stroke-width="3.5"/>
        <circle fill="#9E9E9E" fill-rule="nonzero" cx="66.3" cy="109.69" r="6.66"/>
        <path d="M18.45 119.15c-1.33 0-2.49-.48-3.37-1.38-1.81-1.86-1.79-4.89-1.79-5.22v-5.2h3.5v5.24c-.01.65.17 2.11.79 2.74.16.16.38.32.87.32.97 0 1.75.78 1.75 1.75s-.79 1.75-1.75 1.75zM25.86 119.24c-.97 0-1.75-.78-1.75-1.75s.78-1.75 1.75-1.75c.49 0 .71-.16.87-.32.62-.64.81-2.12.79-2.7v-5.28h3.5v5.24c.01.3.03 3.33-1.79 5.18-.88.9-2.05 1.38-3.37 1.38z" fill="#9E9E9E" fill-rule="nonzero"/>
    </g>
</svg>