<svg id="customer" width="88" height="126" 
    xmlns="http://www.w3.org/2000/svg">
    <g fill-rule="nonzero" fill="none">
        <path d="M.43 111.11V121h87.14v-9.89c0-15.17-21.39-22.87-43.24-22.84-21.72.03-43.9 6.78-43.9 22.84z" fill="#607D8B"/>
        <path d="M44.44 88.27c-8.69 0-14.54 1.06-14.54 1.06L36.3 121h8.14V88.27z" fill="#D8D8D8"/>
        <path d="M44 88.27c8.4 0 14.12 1.05 14.12 1.05L51.69 121H44V88.27z" fill="#D8D8D8"/>
        <path d="M39.41 99.59l1.77 7.5-2 18.29h9.64l-2-18.29 1.71-7.5z" fill="#444"/>
        <path d="M44 83.27h-9.08v9.59c0 4.34 3.22 6.58 7.78 6.58l3.67-.17c4.56 0 6.72-2.08 6.72-6.41v-9.59H44z" fill="#E49800"/>
        <path d="M76.14 45.63s5.89 1.02 5.89 7.37c0 5.6-4.3 7.81-8.6 7.81V45.63h2.71zM11.86 45.63S5.97 46.65 5.97 53c0 5.6 4.3 7.81 8.6 7.81V45.63h-2.71z" fill="#E39400"/>
        <path d="M44 4.06c-25.4 0-32.04 19.69-32.04 47.35 0 28.68 18.43 36.1 32.04 36.1 13.41 0 32.04-7.2 32.04-36.1C76.04 23.75 69.4 4.06 44 4.06z" fill="#FAC01B"/>
        <path d="M33.45 53.98c0 2.86-1.91 5.17-4.28 5.17-2.36 0-4.29-2.32-4.29-5.17 0-2.86 1.92-5.18 4.29-5.18s4.28 2.31 4.28 5.18M54.55 53.98c0 2.86 1.91 5.17 4.29 5.17 2.36 0 4.28-2.32 4.28-5.17 0-2.86-1.92-5.18-4.28-5.18-2.38 0-4.29 2.31-4.29 5.18" fill="#444"/>
        <path d="M53.27 71.45H44h-9.27c-1.06 0-1.52.71-.82 1.79.98 1.5 4.64 4.38 10.09 4.38s9.11-2.88 10.09-4.38c.7-1.08.25-1.79-.82-1.79z" fill="#513F35"/>
        <path d="M48.48 63.57c-1.58.45-3.22.66-4.48.66-1.26 0-2.9-.22-4.48-.66-.67-.19-.94.45-.7.87.5.88 2.52 2.66 5.18 2.66 2.66 0 4.68-1.78 5.18-2.66.24-.43-.03-1.07-.7-.87z" fill="#E39400"/>
        <path d="M44.77.45s-.5-.02-.71-.01c-.21 0-.71.01-.71.01C15.94.98 7.68 17.47 7.68 28.9c0 11.11.01 19.28.01 19.28s.44-.45 1.24-1.08c.86-.67 1.81-1.04 1.81-1.04l1.38 9.28 9.13-19.08c.06-.12.18-.19.31-.17l5.41.6c5.44.6 10.91.9 16.37.91v.01c.24 0 .47-.01.71-.01s.47.01.71.01v-.01c5.46-.02 10.93-.31 16.37-.91l5.41-.6c.13-.01.25.06.31.17l9.13 19.08 1.38-9.28s.95.38 1.81 1.04c.81.63 1.24 1.08 1.24 1.08s.01-8.16.01-19.28C80.43 17.47 72.17.98 44.77.45z" fill="#6D4C41"/>
        <path d="M53.19 88.67c0 1.53-1.31 4.42-3.4 6.82-2.12 2.44-5.65 3.95-5.65 3.95l10.39 11.08 3.72-21.19c0 .01-3.09-.47-5.06-.66z" fill="#FFF"/>
        <path d="M56.48 89.07L50.08 121h7.26l11.48-11.99-4.75-6.6 7.12-4.71-4.01-6.35s-5.05-1.54-10.7-2.28z" fill="#455A64"/>
        <path d="M35.05 88.66c0 1.53 1.31 4.42 3.4 6.82 2.12 2.44 5.65 3.95 5.65 3.95l-10.38 11.09-3.74-21.21c.01 0 3.04-.48 5.07-.65z" fill="#FFF"/>
        <path d="M31.76 89.05l6.4 31.95h-7.29l-11.44-12.04 4.75-6.6-7.12-4.71 4.06-6.44s4.98-1.42 10.64-2.16z" fill="#455A64"/>
    </g>
</svg>