<svg width="95" height="128" 
    xmlns="http://www.w3.org/2000/svg" id="customer">
    <g fill-rule="nonzero" fill="none">
        <path d="M.5 113.45v10h93.87v-10c0-15.34-23.4-23.13-46.94-23.1C24.05 90.37.5 97.2.5 113.45z" fill="#2A56C6"/>
        <path d="M47.52 90.27c-8.69 0-14.54 1.06-14.54 1.06l6 31.67h8.54V90.27z" fill="#004373"/>
        <path d="M47.08 90.27c8.4 0 14.12 1.05 14.12 1.05L55.73 123h-8.65V90.27z" fill="#004373"/>
        <path d="M47 85.08h-9.08v9.59c0 4.34 3.7 7.86 8.26 7.86h1.65c4.56 0 8.26-3.52 8.26-7.86v-9.59H47z" fill="#E49800"/>
        <path fill="#FC0" d="M42.75 101.59l1.77 7.5-2 18.29h9.64l-2-18.29 1.71-7.5z"/>
        <path d="M9.74 49.93s-.01-8.39-.01-19.81c0-11.94 8.76-28.47 38.04-28.47 20.44 0 28.08 8.09 28.08 13.48 0 0 7.59 1.36 8.34 11.09.52 6.83-.15 23.25-.15 23.25s-.83-.73-1.76-1.16c-.5-.23-1-.33-1-.33l-1.38 9.37-10.15-19.68a.324.324 0 0 0-.32-.17l-4.12.49a156.564 156.564 0 0 1-35.75.13L24 37.5a.332.332 0 0 0-.32.18L14.3 57.29l-1.42-9.54s-.98.39-1.86 1.07c-.83.64-1.28 1.11-1.28 1.11z" fill="#6D4C41"/>
        <g fill="#E59600">
            <path d="M80.09 47.31s6.06 1.05 6.06 7.57c0 5.75-4.42 8.03-8.84 8.03v-15.6h2.78zM14.03 47.31s-6.06 1.05-6.06 7.57c0 5.75 4.42 8.03 8.84 8.03v-15.6h-2.78z"/>
        </g>
        <path d="M47.06 4.59c-26.1 0-32.93 20.23-32.93 48.66 0 29.48 18.95 37.1 32.93 37.1 13.78 0 32.93-7.4 32.93-37.1C80 24.83 73.17 4.59 47.06 4.59z" fill="#FCC21B"/>
        <path d="M56.5 72.88h-9.43-9.43c-1.08 0-1.55.73-.83 1.82 1 1.52 4.72 4.46 10.26 4.46s9.26-2.93 10.26-4.46c.71-1.09.25-1.82-.83-1.82z" fill="#4C3734"/>
        <path d="M56.5 72.88h-9.43-9.43c-1.08 0-1.55.73-.83 1.82 1 1.52 4.72 4.46 10.26 4.46s9.26-2.93 10.26-4.46c.71-1.09.25-1.82-.83-1.82z" fill="#513F35"/>
        <path d="M51.62 64.86c-1.61.45-3.27.68-4.56.68-1.29 0-2.95-.22-4.56-.68-.69-.19-.96.46-.71.89.51.9 2.56 2.7 5.27 2.7 2.71 0 4.76-1.81 5.27-2.7.25-.43-.02-1.08-.71-.89z" fill="#E59600"/>
        <path d="M36.33 55.11c0 2.9-1.94 5.26-4.35 5.26-2.41 0-4.36-2.36-4.36-5.26 0-2.91 1.96-5.27 4.36-5.27 2.41 0 4.35 2.36 4.35 5.27M57.79 55.11c0 2.9 1.95 5.26 4.36 5.26 2.4 0 4.36-2.36 4.36-5.26 0-2.91-1.96-5.27-4.36-5.27-2.41 0-4.36 2.36-4.36 5.27" fill="#444"/>
        <path d="M14.13 55.11L12.39 44.4S8.62 3.1 47.96 3.1s33.21 43.09 33.21 43.09l-1.2 8.92L69.75 37.8s-19.42 1.56-44.64-.33L14.13 55.11z" fill="#6D4C41"/>
        <path d="M47 34.75c-18.69.13-35.62 3.51-35.62 3.51S20.09 48.2 47 48.41c26.91-.21 35.62-10.15 35.62-10.15S65.69 34.88 47 34.75z" fill="#262626"/>
        <path d="M86.02 17.38c-2.3-2.94-4.11-4.72-7.08-6.87C69.68 3.85 56.83.86 47.35.86c-.11 0-.23.01-.35.01-.11 0-.24-.01-.35-.01-9.48 0-22.33 2.99-31.59 9.65-2.98 2.15-4.78 3.93-7.08 6.87C4.6 21.7 3.9 28.34 6.01 33.93 7.7 38.4 9.7 41.45 9.7 41.45c1.87-3.79 4.52-6.13 8.15-7.14 3.72-1.03 17.24-2.16 29.15-2.67 11.91.5 25.43 1.64 29.15 2.67 3.63 1.01 6.27 3.35 8.15 7.14 0 0 2.01-3.05 3.69-7.52 2.11-5.59 1.42-12.23-1.97-16.55z" fill="#2A56C6"/>
        <path d="M80.54 27.72S65.96 18.99 47 18.89c-18.96.1-33.54 8.83-33.54 8.83l-1.6 10.54s16.15-3.53 35.13-3.57c18.98.04 35.13 3.57 35.13 3.57l-1.58-10.54z" fill="#3B78E7"/>
        <path d="M54.59 11.55c-.27 0-.51.14-.65.36-.57.91-1.4 1.53-2.87 1.53-1.43 0-2.47-1.39-3.1-2.26-.2-.27-.51-.44-.84-.44-.34 0-.65.17-.85.45-.61.86-1.61 2.25-3.03 2.25-1.47 0-2.3-.62-2.87-1.53a.758.758 0 0 0-.65-.36c-.25 0-.48.12-.63.32l-.32.44c-.38.52-.44 1.22-.15 1.8.43.87.66 1.83.66 2.8v3.79c0 2.76 4.26 8.41 7.87 8.41 3.61 0 7.87-5.65 7.87-8.41v-3.8c0-.97.23-1.93.66-2.8.29-.58.23-1.27-.15-1.8l-.32-.44a.821.821 0 0 0-.63-.31z" fill="#F7CB4D"/>
        <g fill="#004373">
            <path d="M28.18 98.91c-9.37 2.11-14.35 2.11-23.72 0-1.34-.3-2.17-1.52-1.86-2.66.29-1.08.44-1.62.74-2.69.31-1.14 1.5-1.79 2.67-1.53 8.15 1.83 12.48 1.83 20.63 0 1.17-.26 2.35.4 2.67 1.53.29 1.08.44 1.62.74 2.69.3 1.13-.53 2.36-1.87 2.66z"/>
        </g>
        <g fill="#004373">
            <path d="M66.29 98.91c9.37 2.11 14.35 2.11 23.72 0 1.34-.3 2.17-1.52 1.86-2.66-.29-1.08-.44-1.62-.74-2.69-.31-1.14-1.5-1.79-2.67-1.53-8.15 1.83-12.48 1.83-20.63 0-1.17-.26-2.35.4-2.67 1.53-.29 1.08-.44 1.62-.74 2.69-.29 1.13.53 2.36 1.87 2.66z"/>
        </g>
        <path d="M56.27 90.67c0 1.53-1.31 4.42-3.4 6.82-2.12 2.44-5.65 3.95-5.65 3.95l13.24 11.08.87-21.19c0 .01-3.08-.47-5.06-.66z" fill="#3B78E7"/>
        <path d="M38.25 90.66c0 1.53 1.31 4.42 3.4 6.82 2.12 2.44 5.65 3.95 5.65 3.95l-13.55 11.09-.56-21.21s3.03-.48 5.06-.65z" fill="#3B78E7"/>
    </g>
</svg>