<svg id="customer" width="137" height="129" 
    xmlns="http://www.w3.org/2000/svg">
    <g fill-rule="nonzero" fill="none">
        <path d="M108.31 107.19H29.78c-6.64 0-12.08-5.44-12.08-12.08l-2.42-49.49c0-6.64 5.44-12.08 12.08-12.08h83.36c6.64 0 12.08 5.44 12.08 12.08l-2.42 49.49c.01 6.64-5.43 12.08-12.07 12.08z" fill="#A1887F"/>
        <path d="M35.37 102.01c-6.18-21.2-6.18-64.66-6.18-64.66l79.71-.32s0 39.37-4.63 64.71l-68.9.27z" fill="#6D4C41"/>
        <path d="M120.43 106.33c-4.72-18.14-31.19-21.45-51.31-21.66h-.16c-20.12.22-47.64 3.52-52.37 21.66l-2.83 11.28h109.5l-2.83-11.28z" fill="#231815"/>
        <ellipse cx="40.04" cy="38.03" rx="39.86" ry="37.48" transform="translate(29)" fill="#6D4C41"/>
        <path d="M68.99 79.91h-8.62v9.1c0 4.12 3.51 7.45 7.84 7.45h1.57c4.33 0 7.84-3.34 7.84-7.45v-9.1h-8.63z" fill="#E49800"/>
        <path d="M68.94 7.15c-23.1 0-29.15 17.91-29.15 43.07s17.92 32.84 29.15 32.84c11.23 0 29.15-7.68 29.15-32.84 0-25.16-6.04-43.07-29.15-43.07z" fill="#FBC11B"/>
        <path d="M77.8 68.39h-8.76-8.76c-1 0-1.44.67-.77 1.69.93 1.42 4.38 4.14 9.53 4.14 5.15 0 8.6-2.72 9.53-4.14.66-1.01.23-1.69-.77-1.69z" fill="#513F35"/>
        <g fill="#444">
            <path d="M59.08 51.9c0 2.7-1.8 4.88-4.04 4.88-2.23 0-4.05-2.19-4.05-4.88 0-2.7 1.82-4.89 4.05-4.89 2.23 0 4.04 2.18 4.04 4.89M79 51.9c0 2.7 1.81 4.88 4.05 4.88 2.23 0 4.05-2.19 4.05-4.88 0-2.7-1.82-4.89-4.05-4.89-2.24 0-4.05 2.18-4.05 4.89"/>
        </g>
        <path d="M73.22 60.95c-1.49.42-3.04.63-4.23.63-1.19 0-2.74-.21-4.23-.63-.64-.18-.89.42-.66.82.47.83 2.38 2.51 4.89 2.51s4.42-1.68 4.89-2.51c.23-.4-.02-1-.66-.82z" fill="#E49500"/>
        <path d="M77.65 26.94c-3.07 2.95-18.31 16.68-39.3 20.26V19.05S47.41 1.07 69.17 1.07c21.76 0 30.81 18.43 30.81 18.43v27.7s-14.25-5.47-21.41-20.09a.58.58 0 0 0-.92-.17zM.89 116.67H136.9V129H.89z" fill="#6D4C41"/>
        <path fill="#D8D8D8" d="M77.07 112.57l-16.34.37V94.43h16.34z"/>
        <g fill="#FFF">
            <path d="M56.73 85.22l3.12 21.9 9.13-12.68-8.65-9.48zM81.36 85.22l-3.12 21.9-9.14-12.68 8.66-9.48z"/>
        </g>
        <path d="M52.15 86.12c.47-.32 5.44-1 5.44-1l11.39 31.54-21.43-.08 4.6-30.46z" fill="#231815"/>
        <path d="M86.46 86.12c-.47-.32-5.44-1-5.44-1l-12.05 31.54 22.32-.08-4.83-30.46z" fill="#231815"/>
    </g>
</svg>