<svg id="customer" width="121" height="126" 
    xmlns="http://www.w3.org/2000/svg">
    <g transform="translate(-1)" fill="none" fill-rule="evenodd">
        <path d="M62.11 92.3c-18.87 8.46-34.76-.62-43.26-.62-5.72 0-5.72 6.27-5.72 9.09v22.06c0 1.19.99 2.16 2.21 2.16h46.77V92.3z" fill="#444" fill-rule="nonzero"/>
        <path d="M61.09 93.37c16.83 8.16 30.99-.65 38.57-.66 5.1-.01 5.11 6.07 5.11 8.8l.03 21.36c0 1.15-.88 2.09-1.97 2.09l-41.7.07-.04-31.66z" fill="#444" fill-rule="nonzero"/>
        <path d="M94.19 48.47s5.89 1.02 5.89 7.37c0 5.6-4.3 7.81-8.6 7.81V48.47h2.71z" fill="#E39400" fill-rule="nonzero"/>
        <path d="M60.94 87.33h-9.08v16.25c0 3.22 3.7 5.82 8.26 5.82h1.65c4.56 0 8.26-2.61 8.26-5.82V87.33h-9.09z" fill="#E49500" fill-rule="nonzero"/>
        <path d="M29.91 48.47s-5.89 1.02-5.89 7.37c0 5.6 4.3 7.81 8.6 7.81V48.47h-2.71z" fill="#E39400" fill-rule="nonzero"/>
        <path d="M62.05 6.91c-25.4 0-32.04 19.69-32.04 47.35 0 28.68 18.43 36.1 32.04 36.1 13.41 0 32.04-7.2 32.04-36.1.01-27.67-6.64-47.35-32.04-47.35z" fill="#FAC01B" fill-rule="nonzero"/>
        <path fill="red" fill-rule="nonzero" d="M41.88 38.72l28.14-8.65-12.64 15.09 10.08-2.12-30.24 36.4 1.88-15.25-7.61 3.12z"/>
        <path d="M51.5 56.82c0 2.86-1.91 5.17-4.28 5.17-2.36 0-4.29-2.32-4.29-5.17 0-2.86 1.92-5.18 4.29-5.18s4.28 2.32 4.28 5.18M72.6 56.82c0 2.86 1.91 5.17 4.29 5.17 2.36 0 4.28-2.32 4.28-5.17 0-2.86-1.92-5.18-4.28-5.18-2.38 0-4.29 2.32-4.29 5.18" fill="#444" fill-rule="nonzero"/>
        <path d="M71.33 74.29h-9.27-9.27c-1.06 0-1.52.71-.82 1.79.98 1.5 4.64 4.38 10.09 4.38s9.11-2.88 10.09-4.38c.7-1.07.24-1.79-.82-1.79z" fill="#513F35" fill-rule="nonzero"/>
        <path d="M66.53 66.41c-1.58.45-3.22.66-4.48.66-1.26 0-2.9-.22-4.48-.66-.67-.19-.94.45-.7.87.5.88 2.52 2.66 5.18 2.66 2.66 0 4.68-1.78 5.18-2.66.24-.42-.02-1.06-.7-.87z" fill="#E39400" fill-rule="nonzero"/>
        <path d="M62.82 3.29H61.4c-30.6 0-38.67 15.54-35.67 28.45 2.51 10.82.45 18.82 1.25 18.2.86-.67 1.81-1.04 1.81-1.04l1.38 9.28L39.3 39.1c.06-.12.18-.19.31-.17l5.41.6c5.44.6 10.91.9 16.37.91v.01c.24 0 .47-.01.71-.01s.47.01.71.01v-.01c5.46-.02 10.93-.31 16.37-.91l5.41-.6c.13-.01.25.06.31.17l9.13 19.08 1.38-9.28s.95.38 1.81 1.04c.81.63 1.24 1.08 1.24 1.08s-1.58-8.28.01-19.28c1.62-11.07-4.37-28.45-35.65-28.45z" fill="#6D4C41" fill-rule="nonzero"/>
        <path fill="#231F20" fill-rule="nonzero" d="M55.87 125.33l-1.92-13.95-33.66 5.49 6.09 8.46zM97.33 125.33l3.93-5.46-33.66-5.49-1.51 10.95z"/>
        <path fill="red" fill-rule="nonzero" d="M40.09 125.33h15.69l-3.91-29.88-29.14 5.66 12.83 17.72zM81.84 125.33l4.53-6.5 12.83-17.72-29.14-5.66-3.91 29.88z"/>
        <g fill-rule="nonzero">
            <path d="M103.9 95.12l5.92-.12c5.71-.11 10.28-4.87 10.17-10.58l-.04-2.04c-.11-5.71-4.87-10.28-10.58-10.17l-5.92.12c-5.71.11-10.28 4.87-10.17 10.58l.04 2.04c.12 5.7 4.88 10.28 10.58 10.17z" fill="#FBC11B"/>
            <path d="M115.91 86.69l.52.06c1.89.23 3.61-1.16 3.82-3.1l1.72-15.93c.21-1.94-1.17-3.71-3.06-3.94l-.52-.06c-1.89-.23-3.61 1.16-3.82 3.1l-1.72 15.93c-.21 1.93 1.17 3.7 3.06 3.94zM97.53 83.98l.52-.09c1.87-.34 3.13-2.14 2.79-4.01l-2.8-15.62c-.34-1.87-2.14-3.13-4.01-2.79l-.52.09c-1.87.34-3.13 2.14-2.79 4.01l2.8 15.62a3.458 3.458 0 0 0 4.01 2.79z" fill="#FBC11B"/>
            <path d="M108.77 84.54l.52.06c1.89.23 3.62-1.13 3.85-3.02l.58-4.76a3.469 3.469 0 0 0-3.02-3.85l-.52-.06a3.469 3.469 0 0 0-3.85 3.02l-.58 4.76c-.23 1.88 1.13 3.62 3.02 3.85z" fill="#E49500"/>
            <path d="M102.27 83.94l.52-.05c1.89-.17 3.31-1.85 3.14-3.75l-.5-5.62c-.17-1.89-1.85-3.31-3.75-3.14l-.52.05c-1.89.17-3.31 1.85-3.14 3.75l.5 5.62c.17 1.9 1.86 3.31 3.75 3.14z" fill="#E49500"/>
            <path d="M109.43 83.15c1.89.23 3.62-1.13 3.85-3.02l.58-4.76a3.469 3.469 0 0 0-3.02-3.85 3.469 3.469 0 0 0-3.85 3.02l-.58 4.76c-.22 1.89 1.14 3.63 3.02 3.85z" fill="#FBC11B"/>
            <path d="M103.35 82.41l1.23-.11c1.89-.17 3.31-1.85 3.14-3.75l-.39-4.42c-.17-1.89-1.85-3.31-3.75-3.14l-1.23.11c-1.89.17-3.31 1.85-3.14 3.75l.39 4.42c.17 1.89 1.86 3.31 3.75 3.14z" fill="#FBC11B"/>
            <path d="M91.4 87.71l.28.62c.79 1.73 2.85 2.5 4.58 1.71l5.16-2.36c1.73-.79 2.5-2.85 1.71-4.58l-.28-.62a3.466 3.466 0 0 0-4.58-1.71l-5.16 2.36a3.45 3.45 0 0 0-1.71 4.58z" fill="#E49500"/>
            <path d="M91.11 86.09l.28.62c.79 1.73 2.85 2.5 4.58 1.71l4.58-2.09c1.73-.79 2.5-2.85 1.71-4.58l-.28-.62a3.466 3.466 0 0 0-4.58-1.71l-4.58 2.09c-1.73.79-2.5 2.85-1.71 4.58z" fill="#FBC11B"/>
        </g>
        <path fill="#444" fill-rule="nonzero" d="M118.96 93.43l-25.7.09.02 31.46 25.92.05z"/>
        <circle fill="#FFF" fill-rule="nonzero" transform="rotate(-.204 95.11 102.29)" cx="95.111" cy="102.291" r="4.11"/>
        <circle fill="#ED1C24" fill-rule="nonzero" transform="rotate(-.204 105.83 102.25)" cx="105.831" cy="102.251" r="4.11"/>
        <circle fill="#BCBEC0" fill-rule="nonzero" transform="rotate(-.204 116.54 102.21)" cx="116.541" cy="102.211" r="4.11"/>
        <g fill-rule="nonzero">
            <g fill="#444" transform="translate(6 70)">
                <circle transform="rotate(-26.706 30.969 10.828)" cx="30.969" cy="10.828" r="7.52"/>
                <path d="M3.15 27.99L.62 22.95 24.71 8.49l4.41 8.77z"/>
            </g>
            <path d="M43.49 79.7c-.06-.95-1.57-1.06-1.5-.09.23 3.5-2.46 6.07-5.97 5.6-.96-.13-1.05 1.37-.09 1.5 4.22.56 7.84-2.73 7.56-7.01zM32.36 85.53L9.59 95.31c-.59.25-.08 1.12.5.86l22.77-9.78c.6-.25.09-1.11-.5-.86z" fill="#FFF"/>
        </g>
        <path d="M9.64 94.8v30.53" stroke="#444" stroke-width="3.132"/>
        <path fill="#444" fill-rule="nonzero" d="M10.18 96.57l-7.33 4.27-1.88-3.06 7.32-4.27z"/>
        <path d="M32.26 41.12c5.81 1.56 12.25.66 17.41-2.44-2.3 3.82-5.96 6.79-10.17 8.25 16.81 1.5 34.14-6.85 43.46-20.92-.14.21-12.44-.82-13.87-.68-4.72.45-9.38 1.57-13.79 3.34-4.3 1.72-7.58 4.2-11.17 7-3.67 2.85-7.23 5.27-11.87 5.45z" fill="#6D4C41" fill-rule="nonzero"/>
        <path d="M38.58 3.36c7.32.21 14.61 1.23 21.71 3.02-8.5.94-16.51 5.62-21.51 12.56 12.86-3.91 26.29-5.99 39.73-6.15A81.92 81.92 0 0 0 63.38 29c8.11-6.78 21-10.73 31.12-13.78 0 0-4.5-5.97-8.28-8.32C70.54-2.86 48.58.44 38.58 3.36z" fill="#6D4C41" fill-rule="nonzero"/>
    </g>
</svg>