<svg id="customer" width="137" height="128" 
    xmlns="http://www.w3.org/2000/svg">
    <g fill-rule="nonzero" fill="none">
        <path d="M108.31 106.19H29.78c-6.64 0-12.08-5.44-12.08-12.08l-2.42-49.49c0-6.64 5.44-12.08 12.08-12.08h83.36c6.64 0 12.08 5.44 12.08 12.08l-2.42 49.49c.01 6.64-5.43 12.08-12.07 12.08z" fill="#A1887F"/>
        <path fill="#6D4C41" d="M.89 115.67H136.9V128H.89z"/>
        <path d="M120.43 105.33c-4.72-18.14-31.19-21.45-51.31-21.66h-.16c-20.12.22-47.64 3.52-52.37 21.66l-2.83 11.28h109.5l-2.83-11.28z" fill="#231815"/>
        <path d="M68.99 78.91h-8.62v9.1c0 4.12 3.51 7.45 7.84 7.45h1.57c4.33 0 7.84-3.34 7.84-7.45v-9.1h-8.63z" fill="#E49800"/>
        <path d="M77.8 67.39h-8.76-8.76c-1 0-1.44.67-.77 1.69.93 1.42 4.38 4.14 9.53 4.14 5.15 0 8.6-2.72 9.53-4.14.66-1.01.23-1.69-.77-1.69z" fill="#513F35"/>
        <path fill="#D8D8D8" d="M77.07 111.57l-16.34.37V93.43h16.34z"/>
        <g fill="#444">
            <path d="M59.08 50.9c0 2.7-1.8 4.88-4.04 4.88-2.23 0-4.05-2.19-4.05-4.88 0-2.7 1.82-4.89 4.05-4.89 2.23 0 4.04 2.18 4.04 4.89M79 50.9c0 2.7 1.81 4.88 4.05 4.88 2.23 0 4.05-2.19 4.05-4.88 0-2.7-1.82-4.89-4.05-4.89-2.24 0-4.05 2.18-4.05 4.89"/>
        </g>
        <path d="M65.15 93.43l1.5 6.37-1.69 15.51h8.17l-1.7-15.51 1.46-6.37z" fill="#C30D23"/>
        <g fill="#FFF">
            <path d="M56.73 84.22l3.12 21.9 9.13-12.68-8.65-9.48zM81.36 84.22l-3.12 21.9-9.14-12.68 8.66-9.48z"/>
        </g>
        <path d="M73.22 59.95c-1.49.42-3.04.63-4.23.63-1.19 0-2.74-.21-4.23-.63-.64-.18-.89.42-.66.82.47.83 2.38 2.51 4.89 2.51s4.42-1.68 4.89-2.51c.23-.4-.02-1-.66-.82z" fill="#E49500"/>
        <path d="M52.15 85.12c.47-.32 5.44-1 5.44-1l11.39 31.54-21.43-.08 4.6-30.46z" fill="#231815"/>
        <path d="M86.46 85.12c-.47-.32-5.44-1-5.44-1l-12.05 31.54 22.32-.08-4.83-30.46z" fill="#231815"/>
        <g>
            <path d="M99.29 42.67s5.53.96 5.53 6.91c0 5.25-4.03 7.32-8.06 7.32V42.67h2.53zM39.03 42.67s-5.53.96-5.53 6.91c0 5.25 4.03 7.32 8.06 7.32V42.67h-2.53z" fill="#E39400"/>
            <path d="M69.16 3.7c-23.81 0-30.04 18.46-30.04 44.39 0 26.89 17.28 33.84 30.04 33.84 12.57 0 30.04-6.75 30.04-33.84.01-25.93-6.22-44.39-30.04-44.39z" fill="#FAC01B"/>
            <path d="M59.27 50.49c0 2.68-1.79 4.85-4.01 4.85-2.22 0-4.02-2.17-4.02-4.85 0-2.68 1.8-4.85 4.02-4.85 2.22 0 4.01 2.17 4.01 4.85M79.05 50.49c0 2.68 1.79 4.85 4.02 4.85 2.21 0 4.02-2.17 4.02-4.85 0-2.68-1.8-4.85-4.02-4.85-2.22 0-4.02 2.17-4.02 4.85" fill="#444"/>
            <path d="M77.86 66.87h-8.69-8.69c-1 0-1.42.67-.77 1.67.92 1.41 4.35 4.11 9.46 4.11 5.11 0 8.54-2.7 9.46-4.11.65-1 .23-1.67-.77-1.67z" fill="#513F35"/>
            <path d="M73.36 59.48c-1.48.42-3.01.62-4.2.62-1.19 0-2.72-.2-4.2-.62-.63-.18-.88.42-.65.82.47.83 2.36 2.49 4.85 2.49 2.5 0 4.38-1.67 4.85-2.49.24-.4-.01-1-.65-.82z" fill="#E39400"/>
            <path d="M69.88.31S69.42.3 69.21.3c-.2 0-.67.01-.67.01C42.85.81 35.1 16.26 35.1 26.98c0 10.42.01 18.07.01 18.07s.41-.42 1.16-1.01c.8-.63 1.7-.98 1.7-.98l1.3 8.7 8.56-17.89c.05-.11.17-.18.29-.16l5.07.56c5.1.57 10.22.84 15.35.86v.01c.22 0 .44-.01.67-.01.22 0 .44.01.67.01v-.01c5.12-.02 10.25-.29 15.35-.86l5.07-.56c.12-.01.24.05.29.16l8.56 17.89 1.3-8.7s.89.35 1.7.98c.76.59 1.16 1.01 1.16 1.01s.01-7.65.01-18.07c0-10.71-7.74-26.17-33.44-26.67z" fill="#6D4C41"/>
        </g>
    </g>
</svg>