<svg width="96" height="123" 
    xmlns="http://www.w3.org/2000/svg" id="customer">
    <g fill="none" fill-rule="evenodd">
        <path d="M4.68 113.08V123h86.91v-9.92c0-15.22-21.66-22.95-43.45-22.93-21.66.03-43.46 6.8-43.46 22.93z" fill="#E53935" fill-rule="nonzero"/>
        <path d="M48 92.66h-7.18v6.9c0 3.12 2.92 5.65 6.53 5.65h1.31c3.61 0 6.53-2.53 6.53-5.65v-6.9H48z" fill="#E49800" fill-rule="nonzero"/>
        <path d="M46.74 62.13s4.66.81 4.66 5.83c0 4.43-3.4 6.17-6.8 6.17v-12h2.14z" fill="#E39400" fill-rule="nonzero"/>
        <path d="M49.26 62.13s-4.66.81-4.66 5.83c0 4.43 3.4 6.17 6.8 6.17v-12h-2.14z" fill="#E39400" fill-rule="nonzero"/>
        <path d="M48 29.26c-20.08 0-25.34 15.57-25.34 37.44 0 22.68 14.58 28.54 25.34 28.54 10.6 0 25.34-5.7 25.34-28.54 0-21.87-5.26-37.44-25.34-37.44z" fill="#FAC01B" fill-rule="nonzero"/>
        <path d="M51.39 68.73c0 2.26-1.51 4.09-3.38 4.09-1.87 0-3.39-1.83-3.39-4.09s1.52-4.09 3.39-4.09 3.38 1.83 3.38 4.09" fill="#444" fill-rule="nonzero"/>
        <path d="M44.61 68.73c0 2.26 1.51 4.09 3.39 4.09 1.87 0 3.39-1.83 3.39-4.09s-1.52-4.09-3.39-4.09c-1.88 0-3.39 1.83-3.39 4.09" fill="#444" fill-rule="nonzero"/>
        <path d="M55.33 82.55H48h-7.33c-.84 0-1.2.57-.65 1.41.78 1.19 3.67 3.46 7.98 3.46 4.31 0 7.2-2.28 7.98-3.46.55-.85.19-1.41-.65-1.41z" fill="#513F35" fill-rule="nonzero"/>
        <path d="M51.54 76.32c-1.25.35-2.54.52-3.54.52s-2.29-.17-3.54-.53c-.53-.15-.74.35-.55.69.4.7 1.99 2.1 4.09 2.1 2.1 0 3.7-1.41 4.09-2.1.2-.33-.01-.84-.55-.68z" fill="#E39400" fill-rule="nonzero"/>
        <path d="M49.29 123h-2V99.12c0-.55.45-1 1-1s1 .45 1 1V123z" fill="#FFF" fill-rule="nonzero"/>
        <path d="M48.56 26.41s-.39-.01-.56-.01c-.17 0-.56.01-.56.01-21.67.42-28.2 13.46-28.2 22.5 0 8.79.01 15.24.01 15.24s.34-.36.98-.85c.68-.53 1.43-.83 1.43-.83l1.09 7.34 7.22-15.09c.04-.09.14-.15.25-.14l4.28.48c4.3.48 8.62.71 12.94.72v.01H48c.19 0 .37.01.56 0v-.01c4.32-.01 8.64-.24 12.94-.72l4.28-.48c.1-.01.2.04.25.14l7.22 15.09 1.09-7.34s.75.3 1.43.83c.64.5.98.85.98.85s.01-6.46.01-15.24c.01-9.05-6.53-22.08-28.2-22.5z" fill="#6D4C41" fill-rule="nonzero"/>
        <g fill="#444" fill-rule="nonzero">
            <path d="M33.96 100.5c7.83-3.5 3.85-11.63-4-9.67-5.33 1.33-16.32 3.52-20.67 3.33-7.83-.33-10.08 7.03-7.83 10.5 6.16 9.51 24.85-.75 32.5-4.16zM62.04 100.5c-7.83-3.5-3.85-11.63 4-9.67 5.33 1.33 16.32 3.52 20.67 3.33 7.83-.33 10.08 7.03 7.83 10.5-6.16 9.51-24.85-.75-32.5-4.16z"/>
            <path d="M58.35 93.27c-2.29.79-5.6 1.62-7.69 1.97-1.29.22-2.32 1.36-2.66 2.66-.34-1.3-1.36-2.44-2.66-2.66-2.09-.36-5.36-1.46-7.7-2.08-1.33-.35-2.74-.89-2.74 2.1v8.16c0 .68.39 1.32 1.03 1.66 2.32 1.21 21.81 1.21 24.13 0 .65-.34 1.03-.98 1.03-1.66v-8.16c.01-4.54-1.3-2.49-2.74-1.99z"/>
        </g>
        <path d="M48 .91c-6.33 0-30.87.27-34.7 18.45-2.16 10.27-3.09 38.67-2.65 44.28.88 11.27 5.26 14.85 18.6 19.32C46.09 88.6 48 87.74 48 87.74V.91zM48 .91c6.33 0 30.87.27 34.7 18.45 2.16 10.27 3.09 38.67 2.65 44.28-.88 11.27-5.26 14.85-18.6 19.32C49.91 88.6 48 87.74 48 87.74V.91z" fill="#444" fill-rule="nonzero"/>
        <path d="M18.53 63.3s-.01-6.65-.01-15.71c0-9.47 6.94-22.58 30.17-22.58 16.21 0 22.27 6.41 22.27 10.69 0 0 6.02 1.08 6.61 8.79.41 5.42-.12 18.44-.12 18.44s-.65-.58-1.39-.92c-.39-.18-.79-.26-.79-.26l-1.09 7.43-8.06-15.61c-.05-.09-.15-.15-.25-.13l-3.27.39c-9.41 1.11-18.93 1.15-28.35.1l-4.41-.49a.248.248 0 0 0-.25.14l-7.44 15.55-1.13-7.57s-.77.31-1.47.85a9.8 9.8 0 0 0-1.02.89z" fill="#6D4C41" fill-rule="nonzero"/>
        <g fill="#E59600" fill-rule="nonzero">
            <path d="M74.32 61.22s4.8.83 4.8 6c0 4.56-3.5 6.36-7.01 6.36V61.22h2.21zM21.93 61.22s-4.8.83-4.8 6c0 4.56 3.5 6.36 7.01 6.36V61.22h-2.21z"/>
        </g>
        <path d="M48.12 27.35C27.42 27.35 22 43.4 22 65.94c0 23.37 15.02 29.42 26.12 29.42 10.93 0 26.12-5.87 26.12-29.42 0-22.55-5.42-38.59-26.12-38.59z" fill="#FCC21B" fill-rule="nonzero"/>
        <path d="M55.6 81.5h-7.48-7.48c-.86 0-1.23.58-.66 1.44.79 1.21 3.74 3.53 8.14 3.53s7.35-2.33 8.14-3.53c.57-.86.2-1.44-.66-1.44z" fill="#4C3734" fill-rule="nonzero"/>
        <path d="M55.6 81.5h-7.48-7.48c-.86 0-1.23.58-.66 1.44.79 1.21 3.74 3.53 8.14 3.53s7.35-2.33 8.14-3.53c.57-.86.2-1.44-.66-1.44z" fill="#513F35" fill-rule="nonzero"/>
        <path d="M51.74 75.14c-1.27.36-2.59.54-3.61.54s-2.34-.18-3.61-.54c-.54-.15-.76.36-.56.7.4.71 2.03 2.14 4.18 2.14s3.77-1.43 4.18-2.14c.18-.34-.04-.85-.58-.7z" fill="#E59600" fill-rule="nonzero"/>
        <path d="M39.61 67.41c0 2.3-1.54 4.17-3.45 4.17-1.91 0-3.46-1.87-3.46-4.17 0-2.31 1.55-4.18 3.46-4.18s3.45 1.87 3.45 4.18M56.63 67.41c0 2.3 1.54 4.17 3.46 4.17 1.91 0 3.46-1.87 3.46-4.17 0-2.31-1.55-4.18-3.46-4.18-1.92 0-3.46 1.87-3.46 4.18" fill="#444" fill-rule="nonzero"/>
        <path d="M22.01 67.4l-1.38-8.5s-2.99-32.75 28.2-32.75c31.19 0 26.34 34.17 26.34 34.17l-.95 7.07-8.1-13.72s-15.4 1.24-35.4-.26L22.01 67.4z" fill="#6D4C41" fill-rule="nonzero"/>
        <path d="M74.24 63.93S67.4 91.14 48.12 91.14M22.01 63.93s6.84 27.21 26.12 27.21" stroke="#444" stroke-width="4"/>
        <path d="M48 .91c-7.31 0-11.43 1.22-18.1 4.21-5.95 2.67-11.53 7.23-11.53 15.03l-2.92 46.3c0 2.45 1.95 3.95 4.38 3.45a139.187 139.187 0 0 1 56.34 0c2.43.5 4.38-1 4.38-3.45l-2.92-46.3c0-7.8-5.58-12.36-11.53-15.03C59.43 2.13 55.31.91 48 .91z" fill="#444" fill-rule="nonzero"/>
        <circle fill="#FFF" fill-rule="nonzero" cx="54.46" cy="113.3" r="2.38"/>
        <path d="M56.83 122.97a2.38 2.38 0 0 0-2.38-2.38c-1.32 0-2.38 1.06-2.38 2.38v.03h4.74c.02-.01.02-.02.02-.03z" fill="#FFF" fill-rule="nonzero"/>
        <g fill="#010101" fill-rule="nonzero" opacity=".54">
            <path d="M74.18 116.43h2.33V123h-2.33zM19.49 116.43h2.33V123h-2.33z"/>
        </g>
    </g>
</svg>