<?xml version="1.0" encoding="UTF-8"?>

<svg overflow="hidden" viewBox="0 0 800 800" version="1.1" xmlns="http://www.w3.org/2000/svg" xmlns:xlink="http://www.w3.org/1999/xlink">
	<defs>
		<filter id="shadow">
			<feDropShadow dx="4" dy="8" stdDeviation="4" />
		</filter>
		
		<linearGradient id="twentyone-gradient" x1="0" y1="0" x2="0" y2="100%">
			<stop offset="0" stop-color="#7a99ac" />
			<stop offset="30%" stop-color="#0095c6" />
			<stop offset="100%" stop-color="#fff" />
		</linearGradient>
		<polygon id="twentyone-panel" stroke="#000000" stroke-width="2" points="696.650633 229.626285 702.291455 229.129719 708.210068 228.157749 714.025917 226.792102 718.802132 225.292919 723.279493 223.276009 729.846653 219.252769 736.064121 214.350597 742.867676 207.617955 748.920284 200.17166 755.003758 190.987567 760.140195 181.069024 764.50426 170.788546 767.994278 160.291346 770.16578 151.945321 771.668765 143.950651 771.504268 141.096037 770.670527 135.469996 768.951119 129.533464 766.295568 122.003982 761.416225 111 931 132.863482 918.061044 149.783564 905.668231 166.651837 899.903583 174.894608 895.425859 181.916944 892.770308 191.245883 890.23822 201.215871 887.911663 212.220218 885.883959 223.2242 882.713857 244.6951 880.572495 261.449538 879.461325 278.193761 879.461325 280.437975 879.666855 288.556695 880.449031 296.406519 881.910982 304.153089 883.959021 311.692422 886.584069 318.73519 889.69244 325.468561 893.29539 331.663409 897.494959 336.979325 902.940418 341.633396 909.229422 345.346146 916.506858 348.314594 914.901109 358.015684 912.729244 370.602401 910.24872 383.054487 909.733806 385.763889 906.522307 401.856848 902.899384 417.98009 898.050907 438.323593 892.883241 458.563477 887.942892 476.869273 883.341704 495.154637 878.86398 515.611609 875.600917 536.379071 874.705445 543.391191 873.078997 567.467875 872.049531 592.010112 869.270517 661.386279 867.520606 718.413979 866.892758 759.162644 853.388049 789 777.154894 771.842033 684 750.744014 690.989114 719.427177 690.989114 229.801779">
		</polygon>
		<clipPath id="twentyone-clip">
			<use href="#twentyone-panel" />
		</clipPath>
		<g id="twentyone-PM" transform="rotate(19 -1215.37 458.826)">
			<path d="M.2 443.058v39.282h348v-39.282c0-60.253-85.423-90.836-172.683-90.717C88.777 352.46.2 379.27.2 443.058z" id="XMLID_11_" fill="#607D8B" fill-rule="nonzero" />
			<path d="M177.902 352.59c-34.664 0-58 4.21-58 4.21l25.53 125.79h32.47v-130z" id="path914" fill="#D8D8D8" fill-rule="nonzero" />
			<path d="M174.957 352.842c33.909 0 57 4.17 57 4.17L206 482.843h-31.043v-130z" id="path916" fill="#D8D8D8" fill-rule="nonzero" />
			<g id="g918" transform="translate(154.348 395.989)" fill="#444" fill-rule="nonzero">
				<path id="polygon920" d="M1.64.937L8.72 30.892l-8 73.054H39.28l-8-73.054L38.117.937z" />
			</g>
			<path d="M175.703 330.906h-35.98v38.55c0 17.446 12.76 26.45 30.829 26.45l14.542-.683c18.07 0 26.629-8.362 26.629-25.767v-38.55h-36.02z" id="XMLID_9_" fill="#E49800" fill-rule="nonzero" />
			<path d="M304.562 181.674s23.286 4.099 23.286 29.616c0 22.503-17 31.384-34 31.384v-61h10.714z" id="XMLID_8_" fill="#E39400" fill-rule="nonzero" />
			<path d="M46.432 181.814s-23.286 4.099-23.286 29.616c0 22.503 17 31.384 34 31.384v-61H46.432z" id="XMLID_7_" fill="#E39400" fill-rule="nonzero" />
			<path d="M175.51 15.068c-101.472 0-128 78.571-128 188.946 0 114.445 73.629 144.054 128 144.054 53.574 0 128-28.73 128-144.054 0-110.375-26.526-188.946-128-188.946z" id="XMLID_6_" fill="#FAC01B" fill-rule="nonzero" />
			<g id="g28" transform="rotate(-13 527.413 -723.29)" fill-rule="nonzero">
				<path id="XMLID_1815_" fill="#607D8B" d="M238.494 127.867l61.056 15.893-45.34 147.725-70.486-18.286z" />
				<path id="polygon31" fill="#FBC11B" d="M231.652 322.84l-28.221-67.271L39.94 314.942l32.017 76.31z" />
				<ellipse id="ellipse33" fill="#607D8B" transform="rotate(-22.272 216.108 290.623)" cx="216.108" cy="290.623" rx="36.929" ry="36.88" />
				<ellipse id="ellipse35" fill="#FBC11B" transform="rotate(-22.272 55.578 355.37)" cx="55.578" cy="355.37" rx="41.859" ry="41.804" />
				<path d="M7.751 375.671c-10.496-25.923 1.734-55.633 27.543-66.216l168.43-53.886 27.928 68.644-158.127 79.226c-25.809 10.583-55.277-1.845-65.774-27.768z" id="path37" fill="#607D8B" />
				<path id="polygon39" fill="#E0E0E0" d="M238.528 123.877l61.022 15.76-13.613 60.062-74.255-17.297z" />
				<path d="M334.779 29.802c4.827-1.156 8.98.394 10.819 6.291 1.839 5.995-2.021 9.182-7.04 10.724l-29.733 9.064c-1.93.579-2.701 2.801-1.542 4.446 1.45 2.127 3.094 4.738 3.192 6.671.292 3.19-2.12 7.248-1.634 9.955.388 2.127 3.867 6.576 4.352 9.766.582 4.06-1.538 9.375-1.247 11.502.388 2.417 3.674 6.092 3.484 9.862-.19 3.673-1.346 8.118-6.848 9.95-5.503 1.833-30.503 12.35-46.048 11.759-15.546-.592-34.282-6.309-42.026-31.64-7.743-25.33 12.613-48.223 28.928-51.691 16.316-3.468 80.612-15.599 85.343-16.659z" id="path41" fill="#FBC11B" transform="rotate(-63 282.438 79.631)" />
			</g>
			<path d="M132.122 215.073c0 11.33-7.577 20.48-16.98 20.48-9.363 0-17.02-9.19-17.02-20.48 0-11.33 7.618-20.52 17.02-20.52 9.403 0 16.98 9.15 16.98 20.52" id="XMLID_5_" fill="#444" fill-rule="nonzero" />
			<path d="M217.663 215.159c0 11.33 7.578 20.48 17.02 20.48 9.363 0 16.98-9.19 16.98-20.48 0-11.33-7.617-20.52-16.98-20.52-9.442 0-17.02 9.15-17.02 20.52" id="XMLID_4_" fill="#444" fill-rule="nonzero" />
			<path d="M212.6 285.311h-36.9-36.902c-4.22 0-6.05 2.762-3.264 6.963 3.9 5.835 18.47 17.037 40.165 17.037s36.265-11.202 40.166-17.037c2.786-4.201.995-6.963-3.265-6.963z" id="XMLID_3_" fill="#513F35" fill-rule="nonzero" />
			<path d="M192.101 253.948c-6.3 1.765-12.84 2.59-17.864 2.59-5.025 0-11.565-.864-17.865-2.59-2.672-.746-3.749 1.765-2.792 3.414 1.994 3.453 10.05 10.438 20.657 10.438s18.662-6.985 20.656-10.438c.957-1.688-.12-4.2-2.792-3.414z" id="XMLID_2_" fill="#E39400" fill-rule="nonzero" />
			<path d="M212.569 352.328c0 6.162-5.292 17.8-13.735 27.467-8.564 9.827-22.825 15.908-22.825 15.908l41.973 44.625 15.027-85.342c0 .04-12.482-1.893-20.44-2.658z" id="path933" fill="#FFF" fill-rule="nonzero" />
			<path d="M224.215 355.712l-25.77 127h29.233l46.224-47.69-19.126-26.25 28.669-18.735-16.146-25.256s-20.334-6.126-43.084-9.069z" id="path935" fill="#455A64" fill-rule="nonzero" />
			<path d="M139.558 352.889c0 6.16 5.288 17.793 13.725 27.455 8.558 9.822 22.808 15.9 22.808 15.9L134.19 440.89l-15.098-85.383c.04 0 12.272-1.933 20.467-2.617z" id="path937" fill="#FFF" fill-rule="nonzero" />
			<path d="M126.42 355.425l25.781 127h-29.367l-46.085-47.858 19.135-26.235L67.2 389.61l16.356-25.599s20.061-5.644 42.862-8.586z" id="path939" fill="#455A64" fill-rule="nonzero" />
			<g id="1f385" transform="translate(29.62 .729)">
				<path d="M219.107 273.96c25.794-13.14 36.28-46.7 34.092-100.314h32.403s-7.828 22.169-8.356 42.09c-.746 29.035 4.348 31.808 5.249 62.044.652 22.015-4.445 52.901-56.08 73.993-29.576 12.07-61.73 13.545-79.313 20.873-17.585-7.328-49.738-8.804-79.314-20.873-51.666-21.06-56.732-51.947-56.08-73.993.901-30.236 5.995-33.009 5.249-62.044-.528-19.89-8.355-42.054-8.355-42.054h32.402c-2.169 53.15 8.118 86.589 33.426 99.964 15.707-6.587 37.673-11.618 71.968-1.307 34.839-10.474 56.954-5.117 72.71 1.621z" id="Combined-Shape" fill="#6D4C41" fill-rule="nonzero" />
				<path d="M149.178.39s-2-.08-2.84-.04c-.84 0-2.841.04-2.841.04C33.842 2.504.797 68.28.797 113.873c0 44.316.04 76.905.04 76.905s1.76-1.795 4.961-4.308c3.44-2.672 7.241-4.148 7.241-4.148l5.52 37.017 36.526-76.108c.24-.479.72-.758 1.24-.678l21.643 2.393a609.55 609.55 0 0 0 65.489 3.63v.04c.96 0 1.88-.04 2.84-.04s1.88.04 2.84.04v-.04c21.844-.08 43.727-1.236 65.49-3.63l21.643-2.393c.52-.04 1 .24 1.24.678l36.525 76.108 5.52-37.017s3.801 1.516 7.242 4.148c3.24 2.513 4.96 4.308 4.96 4.308s.04-32.549.04-76.905C291.837 68.28 258.793 2.503 149.177.39z" id="XMLID_1_" fill="#6D4C41" fill-rule="nonzero" />
				<path d="M182.45 285.172h-36.47-36.47c-4.192 0-5.98 2.775-3.206 6.953 3.885 5.824 18.22 17.047 39.677 17.047 21.456 0 35.792-11.223 39.676-17.047 2.744-4.178.956-6.953-3.206-6.953z" id="XMLID_205_" fill="#4C3734" fill-rule="nonzero" />
			</g>
		</g>
		<style>
			@keyframes turn {
				from {
					transform: rotate(0deg);
				}

				to {
					transform: rotate(359deg);
				}
			}

			.twentyone-patternFill {
				transform-origin: 700px 460px;
				animation: turn 5s linear infinite;
			}
		</style>
	</defs>
	<g id="twentyone-Slide-21" stroke="none" stroke-width="1" fill="none" fill-rule="evenodd" transform="translate(-300 -60)">
		<rect class="twentyone-patternFill" stroke="#000000" x="480" y="111" width="450" height="678" fill="url(#twentyone-gradient)" opacity="0.2">
		</rect>
		<circle class="twentyone-circleFill" stroke="#000000" cx="705" cy="450" fill="url(#twentyone-gradient)" opacity="0.2" />
		<g clip-path="url(#twentyone-clip)">
			<rect class="twentyone-patternFill" stroke="#000000" x="480" y="111" width="450" height="678" fill="url(#twentyone-gradient)">
			</rect>
			<circle class="twentyone-circleFill" stroke="#000000" cx="705" cy="450" fill="url(#twentyone-gradient)" />
		</g>
		<rect id="twentyone-bbox" stroke="#FF0000" x="480" y="111" width="450" height="678">
		</rect>
		<use href="#twentyone-panel" />
		
	</g>
</svg>
