<?xml version="1.0" encoding="UTF-8"?>
<svg viewBox="0 0 1440 900" version="1.1" xmlns="http://www.w3.org/2000/svg" xmlns:xlink="http://www.w3.org/1999/xlink">
	<defs>
		<g id="shirt_389">
			<path d="M56.6559212,-4.54747351e-13 C37.8734379,6.04920404 28.4821963,9.07380602 28.4821963,9.07380602 C10.0688242,15.3365673 8.27336219,31.9070202 8.27336219,31.9070202 C4.35445667,46.5006195 1.59666927,63.2645922 0,82.1989383 C6.06106901,86.4194773 16.8439917,89.5145023 32.3487682,91.4840133 C33.1045222,91.4840133 33.1045222,105.497233 33.1045222,182.982095 C48.166409,188.939548 66.3224689,191.918275 87.5727016,191.918275 C109.015462,191.918275 127.336017,188.939548 142.534365,182.982095 C142.534365,105.497233 142.534365,91.4840133 143.290883,91.4840133 C158.898373,89.5145023 169.75273,86.4194773 175.853952,82.1989383 C174.246705,63.2645922 171.470648,46.5006195 167.525781,31.9070202 C167.525781,31.9070202 165.718424,15.3365673 147.18307,9.07380602 C147.18307,9.07380602 137.729613,6.04920404 118.822702,-4.54747351e-13 C107.001054,2.71454867 96.5843875,4.07182301 87.5727016,4.07182301 C78.6571078,4.07182301 68.3515145,2.71454867 56.6559212,-4.54747351e-13 Z" id="fourtytwo-Path-5" fill="#FFFFFF" fill-rule="nonzero">
			</path>
			<path d="M56.6559212,-2.27373675e-13 C37.8734379,6.04920404 28.4821963,9.07380602 28.4821963,9.07380602 C10.0688242,15.3365673 8.27336219,31.9070202 8.27336219,31.9070202 C4.35445667,46.5006195 1.59666927,63.2645922 0,82.1989383 C6.06106901,86.4194773 16.8439917,89.5145023 32.3487682,91.4840133" id="fourtytwo-Path-5" stroke="#000000" stroke-width="4.6875" stroke-linecap="round">
			</path>
			<path d="M24.8596343,41.184892 C32.1189955,50.7047952 33.1045222,55.8238392 33.1045222,61.2893204 C33.1045222,64.9329745 33.1045222,105.497233 33.1045222,182.982095 C48.166409,188.939548 66.3224689,191.918275 87.5727016,191.918275 C109.015462,191.918275 127.336017,188.939548 142.534365,182.982095 C142.534365,105.497233 142.534365,64.9329745 142.534365,61.2893204 C142.534365,55.8238392 143.52882,50.7047952 150.853952,41.184892" id="fourtytwo-Path-6" stroke="#000000" stroke-width="4.6875" stroke-linecap="round">
			</path>
			<path d="M56.216168,0 C56.216168,7.1834298 55.0012488,13.1598662 60.6992699,27.1723791 C64.4979507,36.5140544 67.0959657,41.184892 68.4933149,41.184892 C76.2995316,38.5884589 82.6593273,37.2902423 87.5727016,37.2902423" id="fourtytwo-Path-7" stroke="#000000" stroke-width="4.6875" stroke-linecap="round">
			</path>
			<path d="M56.6559212,0 C68.3515145,2.71454867 78.6571078,4.07182301 87.5727016,4.07182301" id="fourtytwo-Path-8" stroke="#000000" stroke-width="4.6875" stroke-linecap="round">
			</path>
			<path d="M70.7758268,2.735654 L82.8852016,36.720029" id="fourtytwo-Path-9" stroke="#000000" stroke-width="4.6875" stroke-linecap="round">
			</path>
			<path d="M175.853952,-6.82121026e-13 C156.94704,6.04920404 147.493584,9.07380602 147.493584,9.07380602 C128.958229,15.3365673 127.150873,31.9070202 127.150873,31.9070202 C123.206005,46.5006195 120.429948,63.2645922 118.822702,82.1989383 C124.923923,86.4194773 135.77828,89.5145023 151.385771,91.4840133" id="fourtytwo-Path-5" stroke="#000000" stroke-width="4.6875" stroke-linecap="round" transform="translate(147.338327, 45.742007) scale(-1, 1) translate(-147.338327, -45.742007) ">
			</path>
			<path d="M87.6832351,0 C87.6832351,7.1834298 86.446457,13.1598662 92.2469991,27.1723791 C96.1140281,36.5140544 98.7587882,41.184892 100.181279,41.184892 C108.127949,38.5884589 114.602173,37.2902423 119.603951,37.2902423" id="fourtytwo-Path-7" stroke="#000000" stroke-width="4.6875" stroke-linecap="round" transform="translate(103.588327, 20.592446) scale(-1, 1) translate(-103.588327, -20.592446) ">
			</path>
			<path d="M87.5727016,0 C99.39435,2.71454867 109.811016,4.07182301 118.822702,4.07182301" id="fourtytwo-Path-8" stroke="#000000" stroke-width="4.6875" stroke-linecap="round" transform="translate(103.197702, 2.035912) scale(-1, 1) translate(-103.197702, -2.035912) ">
			</path>
			<path d="M91.7968742,2.735654 L104.536186,36.720029" id="fourtytwo-Path-9" stroke="#000000" stroke-width="4.6875" stroke-linecap="round" transform="translate(98.166530, 19.727841) scale(-1, 1) translate(-98.166530, -19.727841) ">
			</path>
			<path d="M82.8852016,36.720029 L82.8852016,66.016904" id="fourtytwo-Line" stroke="#000000" stroke-width="4.6875" stroke-linecap="round">
			</path>
		</g>
		<svg id="flame_388" xmlns="http://www.w3.org/2000/svg" viewBox="0 0 128 128" width="334" height="334">
			<path d="M98.59 51.16c-4.23.92-7.88 3.28-9.59 7.35-1.03 2.47-2.47 8.85-6.42 7.2-1.89-.78-1.86-3.49-1.64-5.18.47-3.47 2.03-6.64 3.1-9.94 1.1-3.42 2.05-6.86 2.73-10.4 2.28-11.72 1.65-25.22-6.64-34.59C78.73 4 75.2.3 72.87.22c-1.44-.04-.02 1.66.38 2.23.81 1.17 1.49 2.44 2.01 3.77 6.13 15.64-8.98 27.55-18.91 36.82-4.76 4.45-8.56 9.17-11.98 14.68-.34.53-1.09 2.31-2.06 1.94-1.15-.44-1.27-3.07-1.63-4.05-.68-1.88-1.73-3.93-3.08-5.4-2.61-2.86-6.26-4.79-10.21-4.53-.15.01-.58.08-1.11.2-.83.18-3.05.47-2.45 1.81.31.69 1.22.63 1.87.82 8.34 2.56 8.15 11.3 6.8 18.32-2.44 12.78-9.2 24.86-4.4 38 5.66 15.49 23.38 25.16 39.46 22.5 4.39-.72 9.45-2.14 13.39-4.26 4.19-2.26 8.78-5.35 12.05-8.83 4.21-4.47 6.89-10.2 7.68-16.27.93-7.02-1.31-13.64-3.35-20.27-2.46-8-5.29-21.06 4.93-24.97.5-.2 1.5-.35 1.85-.88 1.3-1.94-4.94-.81-5.52-.69z" fill="#ed6c30">
			</path>
			<path d="M68.13 106.07c2.12 1.78 5.09.91 7.09-.61 1.07-.81 1.99-1.85 2.59-3.06.25-.52.54-1.18.54-1.77 0-.79-.47-1.57-.27-2.38 1.68-.33 3.76 4.5 3.97 5.62 1.68 8.83-6.64 16.11-14.67 17.52-13.55 2.37-21.34-9.5-19.78-20.04.97-6.56 5.37-11.07 9.85-15.57 3.71-3.73 7.15-6.93 8.35-11.78.21-.86.16-2.18-.09-3.03-.21-.73-.61-1.4-.63-2.19-.06-1.66 1.55.51 1.92.93 4.46 5.03 5.73 12.46 4.54 18.96-.77 4.2-3.77 7.2-4.82 11.22-.61 2.29-.55 4.52 1.41 6.18z" fill="#fcc21b">
			</path>
		</svg>
	</defs>
	<g id="Slide-386" stroke="none" stroke-width="1" fill="none" fill-rule="evenodd" transform="translate(0.000000, 0.000000)" font-family="DINAlternate-Bold, DIN Alternate" font-size="100" font-weight="bold">
		<text id="Logos" font-family="DINAlternate-Bold, DIN Alternate" font-size="50" font-weight="bold" fill="#000000">
			<tspan x="20" y="57">
				I still haven't explained the title
			</tspan>
		</text>
		<use class="shirt_388" id="shirt_1" href="#shirt_389" x="91" y="354" />
		<use class="shirt_388" id="shirt_2" href="#shirt_389" x="91" y="354" />
		<use class="shirt_388" id="shirt_3" href="#shirt_389" x="91" y="354" />
		<use class="shirt_388" id="shirt_4" href="#shirt_389" x="91" y="354" />
		<use class="shirt_388" id="shirt_5" href="#shirt_389" x="91" y="354" />
		<use class="shirt_388" id="shirt_6" href="#shirt_389" x="91" y="354" />
		<use class="shirt_388" id="shirt_7" href="#shirt_389" x="91" y="354" />
		<use class="shirt_388" id="shirt_8" href="#shirt_389" x="91" y="354" />
		<use class="shirt_388" id="shirt_9" href="#shirt_389" x="91" y="354" />
		<use class="shirt_388" id="shirt_10" href="#shirt_389" x="91" y="354" />
		<g id="cash_389" fill-rule="nonzero" transform="translate(73 333)">
			<path d="M204.997142,31.84375 L5.94035846,31.84375 C2.91351122,31.84375 0.46875,36.4036396 0.46875,42.0492167 L0.46875,223.638283 C0.46875,229.252841 2.91351122,233.84375 5.94035846,233.84375 L204.997142,233.84375 C208.007358,233.84375 210.46875,229.28386 210.46875,223.638283 L210.46875,42.0492167 C210.46875,36.4346592 208.023989,31.84375 204.997142,31.84375 Z" id="Path" fill="#78909C">
			</path>
			<path d="M204.997142,3.84375 L5.94035846,3.84375 C2.91351122,3.84375 0.46875,6.19141584 0.46875,9.09804976 L0.46875,102.58945 C0.46875,105.480114 2.91351122,107.84375 5.94035846,107.84375 L204.997142,107.84375 C208.007358,107.84375 210.46875,105.496084 210.46875,102.58945 L210.46875,9.09804976 C210.46875,6.20738636 208.023989,3.84375 204.997142,3.84375 Z" id="Path" fill="#B1E0CF">
			</path>
			<path d="M39.8846455,84.542658 C41.2955162,84.9598632 43.3869247,85.5054393 45.8932949,85.9707837 L45.8932949,90.6081807 C45.8932949,91.2821275 46.4742417,91.84375 47.1713779,91.84375 L57.3960407,91.84375 C58.1097755,91.84375 58.6741238,91.2821275 58.6741238,90.6081807 L58.6741238,86.7570552 C67.7534917,86.0349691 74.558868,82.2319826 78.4263136,75.6048377 C82.1609714,69.2183879 80.7335022,62.5912428 74.4758755,57.3922234 C70.5254376,54.359462 64.3674019,51.7278597 58.6741238,49.5936943 L58.6741238,39.4363507 C62.4751753,40.6237813 65.894462,41.8112116 68.666408,42.9505028 C69.1311654,43.1270128 69.6457183,42.9825955 69.9278923,42.5814367 L75.5547767,34.3496559 L75.7041631,33.5633844 L75.1896102,32.9215302 C71.9861038,31.2527092 65.4297046,28.6852923 58.6907223,27.0325176 L58.6907223,21.0793193 C58.6907223,20.4053725 58.1263739,19.84375 57.4126392,19.84375 L47.1879764,19.84375 C46.4742417,19.84375 45.9098934,20.4053725 45.9098934,21.0793193 L45.9098934,25.5402063 C36.432162,25.973458 29.9753537,29.1506365 26.2738929,35.296391 C23.3691591,40.1263442 23.3691591,45.566059 26.2738929,49.4974162 C29.328013,53.6855152 34.2909583,55.5629387 40.5651833,57.9217531 L41.3951072,58.2266339 C42.8391749,58.7561636 44.3828335,59.3177861 45.9098934,59.8473159 L45.9098934,72.20301 C39.237305,70.6625599 33.0128753,67.5495669 31.8841788,66.8114344 C31.4360199,66.5226 30.8218761,66.6028317 30.4899066,67.0200371 L23.6679318,75.6048377 L23.46875,76.3429699 L23.8671135,77.0008707 C27.9835362,79.9694464 33.9755871,82.793605 39.8846455,84.542658 Z M45.8932949,37.687298 L45.8932949,45.1649 C43.0217582,44.2663041 41.212524,43.3516618 41.3951072,41.1854037 C41.594289,38.9549602 43.8018866,38.0563643 45.8932949,37.687298 Z M62.9731297,70.0207055 C62.3091906,71.6895268 60.6161456,72.5399837 58.6741238,72.9732352 L58.6741238,64.45262 C60.831926,65.3833088 62.4585768,66.3621364 63.0561221,67.5977059 C63.3880916,68.2876991 63.3382964,69.0739706 62.9731297,70.0207055 Z" id="Shape" fill="#78909C">
			</path>
			<rect id="Rectangle" fill="#E0E0E0" x="97.46875" y="0.84375" width="89" height="107">
			</rect>
			<rect id="Rectangle" fill="#BDBDBD" x="97.46875" y="107.84375" width="89" height="126">
			</rect>
		</g>
		<use id="flamer" href="#flame_388" x="1054" y="233" />
		<image class="news" id="image1_389" href="/common/burberry.png" x="0" y="44" width="1170" height="856" transform="rotate(-4)" />
		<image class="news" id="image2_389" href="/common/hm.png" x="152" y="45" width="1169" height="855" />
		<image class="news" id="image3_389" href="/common/secret.png" x="200" y="68" width="1170" height="855" transform="rotate(5)" />
	</g>
</svg>
