<svg id="customer" width="104" height="128" 
    xmlns="http://www.w3.org/2000/svg">
    <g fill-rule="nonzero" fill="none">
        <path d="M14.84 113.53C8.33 91.19 8.33 45.39 8.33 45.39l84-.33s0 41.49-4.88 68.19l-72.61.28z" fill="#6D4C41"/>
        <path d="M6.76 118.09v9.89H93.9v-9.89c0-15.17-21.39-22.87-43.24-22.84-21.72.03-43.9 6.78-43.9 22.84z" fill="#424242"/>
        <ellipse cx="42.33" cy="40.11" rx="42" ry="39.5" transform="translate(8 6)" fill="#6D4C41"/>
        <path d="M50.33 90.25h-9.08v9.59c0 4.34 3.7 7.86 8.26 7.86h1.65c4.56 0 8.26-3.52 8.26-7.86v-9.59h-9.09z" fill="#E49500"/>
        <path d="M50.33 13.57c-24.35 0-30.72 18.87-30.72 45.39 0 26.51 18.89 34.6 30.72 34.6 11.83 0 30.72-8.09 30.72-34.6s-6.38-45.39-30.72-45.39z" fill="#FBC11B"/>
        <path d="M59.66 78.11h-9.23-9.23c-1.06 0-1.51.71-.81 1.78.98 1.49 4.61 4.36 10.04 4.36 5.43 0 9.06-2.87 10.04-4.36.7-1.07.25-1.78-.81-1.78z" fill="#444"/>
        <g fill="#444">
            <path d="M39.93 60.73c0 2.84-1.9 5.15-4.26 5.15-2.35 0-4.27-2.3-4.27-5.15 0-2.85 1.91-5.15 4.27-5.15 2.36-.01 4.26 2.3 4.26 5.15M60.93 60.73c0 2.84 1.9 5.15 4.27 5.15 2.35 0 4.26-2.3 4.26-5.15 0-2.85-1.91-5.15-4.26-5.15-2.37-.01-4.27 2.3-4.27 5.15"/>
        </g>
        <path d="M54.84 70.27c-1.57.44-3.2.66-4.46.66-1.26 0-2.89-.22-4.46-.66-.67-.19-.94.45-.69.87.5.88 2.5 2.64 5.15 2.64 2.65 0 4.65-1.77 5.15-2.64.24-.43-.02-1.06-.69-.87z" fill="#E49500"/>
        <path d="M59.27 34.43c-3.23 3.11-19.29 17.58-41.42 21.35V26.11S27.4 7.16 50.32 7.16c22.92 0 32.48 19.43 32.48 19.43v29.19s-15.02-5.76-22.56-21.17a.61.61 0 0 0-.97-.18z" fill="#6D4C41"/>
        <g>
            <path fill="#262626" d="M50.36 0L.5 9.22 50.49.02z"/>
            <path fill="#424143" d="M50.64.01L50.61 0l-.12.02.15.03z"/>
            <path fill="#262626" d="M50.92 0l49.87 9.22L50.8.02z"/>
            <path d="M100.81 11.76l-.02-2.54-50.11 7.26h-.06L.5 9.22l-.02 2.54 20.07 3.51-1.72 4.86c3.68 1.62 17.01 7 31.81 7.39 14.8-.4 27.66-5.77 31.34-7.39l-1.72-4.86 20.55-3.51z" fill="#262626"/>
            <path fill="#424143" d="M50.64.01l.04-.01.12.02-.16.03z"/>
            <path fill="#424143" d="M50.8.02l-.16.03-.15-.03L.5 9.22l50.11 7.26.03-.01.04.01 50.11-7.26z"/>
            <g>
                <g transform="translate(96 42)">
                    <path d="M5.7 3.9c-1.01 0-1.82.82-1.82 1.82v7.83a1.82 1.82 0 0 0 3.64 0V5.72c0-1-.81-1.82-1.82-1.82zM2.06 3.9C1.05 3.9.24 4.72.24 5.72v7.83a1.82 1.82 0 0 0 3.64 0V5.72c0-1-.81-1.82-1.82-1.82z" fill="#FBC11B"/>
                    <path d="M3.22 3.9c-1.01 0-1.82.82-1.82 1.82v7.83a1.82 1.82 0 0 0 3.64 0V5.72c0-1-.81-1.82-1.82-1.82z" fill="#E49500"/>
                    <path d="M4.61 3.9c-1.01 0-1.82.82-1.82 1.82v7.83c0 1.01.82 1.82 1.82 1.82s1.82-.82 1.82-1.82V5.72c0-1-.81-1.82-1.82-1.82z" fill="#E49500"/>
                    <path d="M3.88 3.9c-1.01 0-1.82.82-1.82 1.82v9.52a1.82 1.82 0 0 0 3.64 0V5.72c0-1-.81-1.82-1.82-1.82z" fill="#FBC11B"/>
                    <circle fill="#E49500" cx="3.88" cy="3.38" r="2.06"/>
                    <circle fill="#FBC11B" cx="3.88" cy="2.85" r="2.06"/>
                </g>
                <path d="M98.98 9.45V44.4H99c.04.46.42.83.89.83.47 0 .85-.36.89-.83h.02V9.45h-1.82z" fill="#262626"/>
            </g>
        </g>
        <path fill="#424242" d="M60.17 128H40.49V95.7l9.84 12 9.84-12z"/>
    </g>
</svg>