<svg id="customer" width="121" height="123" 
    xmlns="http://www.w3.org/2000/svg">
    <g fill="none" fill-rule="evenodd">
        <path d="M24.5 107.61c-6.51-22.34-6.51-68.14-6.51-68.14l84-.33s0 41.49-4.88 68.19l-72.61.28z" fill="#6D4C41" fill-rule="nonzero"/>
        <ellipse cx="42.99" cy="40.19" rx="42" ry="39.5" transform="translate(17)" fill="#6D4C41" fill-rule="nonzero"/>
        <path d="M21.52 91.57c-5.1 0-5.1 5.73-5.1 8.31v20.15c0 1.09.88 1.97 1.97 1.97h83.428c1.091 0 1.971-.88 1.971-1.97V99.88c0-2.58 0-8.31-5.103-8.31-7.586 0-21.765 8.288-38.596.563h-.002l-.004-.002v.002c-16.818 7.725-30.985-.563-38.564-.563z" fill="#000" fill-rule="nonzero"/>
        <path d="M59.94 84.33h-9.08v16.25c0 3.22 3.7 5.82 8.26 5.82h1.65c4.56 0 8.26-2.61 8.26-5.82V84.33h-9.09z" fill="#E49500" fill-rule="nonzero"/>
        <path d="M59.88 7.65c-24.35 0-30.72 18.87-30.72 45.39 0 26.51 18.89 34.6 30.72 34.6 11.83 0 30.72-8.09 30.72-34.6S84.23 7.65 59.88 7.65z" fill="#FBC11B" fill-rule="nonzero"/>
        <path fill="#EC407A" fill-rule="nonzero" d="M40.88 35.72l28.14-8.65-12.64 15.09 10.08-2.12-30.24 36.4 1.88-15.25-7.61 3.12z"/>
        <path d="M69.22 72.19h-9.23-9.23c-1.06 0-1.51.71-.81 1.78.98 1.49 4.61 4.36 10.04 4.36 5.43 0 9.06-2.87 10.04-4.36.7-1.07.25-1.78-.81-1.78z" fill="#444" fill-rule="nonzero"/>
        <path d="M64.39 64.35c-1.57.44-3.2.66-4.46.66-1.26 0-2.89-.22-4.46-.66-.67-.19-.94.45-.69.87.5.88 2.5 2.64 5.15 2.64 2.65 0 4.65-1.77 5.15-2.64.25-.43-.01-1.06-.69-.87z" fill="#E49500" fill-rule="nonzero"/>
        <path d="M69.06 28.51c-3.23 3.11-19.29 17.58-41.42 21.35V20.2S37.19 1.25 60.11 1.25c22.92 0 32.47 19.43 32.47 19.43v29.19S77.56 44.11 70.02 28.7a.596.596 0 0 0-.96-.19z" fill="#6D4C41" fill-rule="nonzero"/>
        <path d="M54.87 122.38l-1.92-14-33.66 5.49 6.12 8.51zM96.3 122.38l3.96-5.51-33.66-5.49-1.51 11z" fill="#651FFF" fill-rule="nonzero"/>
        <g fill="#444" fill-rule="nonzero">
            <path d="M49.62 54.62c0 2.84-1.9 5.15-4.26 5.15-2.35 0-4.27-2.3-4.27-5.15 0-2.85 1.91-5.15 4.27-5.15 2.36 0 4.26 2.3 4.26 5.15M70.61 54.62c0 2.84 1.9 5.15 4.27 5.15 2.35 0 4.26-2.3 4.26-5.15 0-2.85-1.91-5.15-4.26-5.15-2.36 0-4.27 2.3-4.27 5.15"/>
        </g>
        <path d="M39.12 122.38h15.66l-3.91-29.93-29.14 5.66 12.83 17.72zM80.81 122.38l4.56-6.55L98.2 98.11l-29.14-5.66-3.91 29.93z" fill="#8E24AA" fill-rule="nonzero"/>
        <g transform="translate(89 58)" fill-rule="nonzero">
            <path d="M13.9 34.12l5.92-.12c5.71-.11 10.28-4.87 10.17-10.58l-.04-2.04c-.11-5.71-4.87-10.28-10.58-10.17l-5.92.12c-5.71.11-10.28 4.87-10.17 10.58l.04 2.04c.12 5.7 4.88 10.28 10.58 10.17z" fill="#FBC11B"/>
            <path d="M25.91 25.69l.52.06c1.89.23 3.61-1.16 3.82-3.1l1.72-15.93c.21-1.94-1.17-3.71-3.06-3.94l-.52-.06c-1.89-.23-3.61 1.16-3.82 3.1l-1.72 15.93c-.21 1.93 1.17 3.7 3.06 3.94zM7.53 22.98l.52-.09c1.87-.34 3.13-2.14 2.79-4.01L8.04 3.26C7.7 1.39 5.9.13 4.03.47l-.52.09C1.64.9.38 2.7.72 4.57l2.8 15.62a3.458 3.458 0 0 0 4.01 2.79z" fill="#FBC11B"/>
            <path d="M18.77 23.54l.52.06c1.89.23 3.62-1.13 3.85-3.02l.58-4.76a3.469 3.469 0 0 0-3.02-3.85l-.52-.06a3.469 3.469 0 0 0-3.85 3.02l-.58 4.76c-.23 1.88 1.13 3.62 3.02 3.85z" fill="#E49500"/>
            <path d="M12.27 22.94l.52-.05c1.89-.17 3.31-1.85 3.14-3.75l-.5-5.62c-.17-1.89-1.85-3.31-3.75-3.14l-.52.05c-1.89.17-3.31 1.85-3.14 3.75l.5 5.62c.17 1.9 1.86 3.31 3.75 3.14z" fill="#E49500"/>
            <path d="M19.43 22.15c1.89.23 3.62-1.13 3.85-3.02l.58-4.76a3.469 3.469 0 0 0-3.02-3.85 3.469 3.469 0 0 0-3.85 3.02l-.58 4.76c-.22 1.89 1.14 3.63 3.02 3.85z" fill="#FBC11B"/>
            <path d="M13.35 21.41l1.23-.11c1.89-.17 3.31-1.85 3.14-3.75l-.39-4.42c-.17-1.89-1.85-3.31-3.75-3.14l-1.23.11c-1.89.17-3.31 1.85-3.14 3.75l.39 4.42c.17 1.89 1.86 3.31 3.75 3.14z" fill="#FBC11B"/>
            <path d="M1.4 26.71l.28.62c.79 1.73 2.85 2.5 4.58 1.71l5.16-2.36c1.73-.79 2.5-2.85 1.71-4.58l-.28-.62a3.466 3.466 0 0 0-4.58-1.71l-5.16 2.36a3.45 3.45 0 0 0-1.71 4.58z" fill="#E49500"/>
            <path d="M1.11 25.09l.28.62c.79 1.73 2.85 2.5 4.58 1.71l4.58-2.09c1.73-.79 2.5-2.85 1.71-4.58l-.28-.62a3.466 3.466 0 0 0-4.58-1.71l-4.58 2.09c-1.73.79-2.5 2.85-1.71 4.58z" fill="#FBC11B"/>
            <path fill="#444" d="M28.96 32.43l-25.7.09L3.28 64H29.2z"/>
            <circle fill="#E1BEE7" transform="rotate(-.204 5.11 41.29)" cx="5.111" cy="41.291" r="4.11"/>
            <circle fill="#D81B60" transform="rotate(-.204 15.83 41.25)" cx="15.831" cy="41.251" r="4.11"/>
            <circle fill="#D500F9" transform="rotate(-.204 26.54 41.21)" cx="26.541" cy="41.211" r="4.11"/>
        </g>
        <g fill-rule="nonzero">
            <g fill="#444" transform="translate(5 67)">
                <circle transform="rotate(-26.706 30.969 10.828)" cx="30.969" cy="10.828" r="7.52"/>
                <path d="M3.15 27.99L.62 22.95 24.71 8.49l4.41 8.77z"/>
            </g>
            <path d="M42.49 76.7c-.06-.95-1.57-1.06-1.5-.09.23 3.5-2.46 6.07-5.97 5.6-.96-.13-1.05 1.37-.09 1.5 4.22.56 7.84-2.73 7.56-7.01zM31.36 82.53L8.59 92.31c-.59.25-.08 1.12.5.86l22.77-9.78c.6-.25.09-1.11-.5-.86z" fill="#FFF"/>
        </g>
        <path d="M8.64 91.8V122" stroke="#444" stroke-width="3.132"/>
        <path fill="#444" fill-rule="nonzero" d="M9.18 93.57l-7.33 4.27-1.88-3.06 7.32-4.27z"/>
    </g>
</svg>