<svg id="customer" width="128" height="141" 
    xmlns="http://www.w3.org/2000/svg">
    <defs>
        <radialGradient cx="50.154%" cy="51.01%" fx="50.154%" fy="51.01%" r="50.012%" gradientTransform="matrix(.90572 0 0 1 .047 0)" id="a">
            <stop stop-color="#FFF" offset="0%"/>
            <stop stop-color="#FFF" stop-opacity="0" offset="100%"/>
        </radialGradient>
    </defs>
    <g transform="translate(-1)" fill="none" fill-rule="evenodd">
        <path d="M124 89.33H6c-2.75 0-5-2.25-5-5V5c0-2.75 2.25-5 5-5h118c2.75 0 5 2.25 5 5v79.33c0 2.75-2.25 5-5 5z" fill="#212121" fill-rule="nonzero"/>
        <g fill="#00DC00" fill-rule="nonzero">
            <path d="M7.74 7.9h66.74v2.03H7.74zM114.31 7.9h7.94v2.03h-7.94zM90.55 7.9h19.62v2.03H90.55zM7.74 13.75h5.03v2.03H7.74zM100.39 13.75h21.86v2.03h-21.86zM19.54 13.75h19.62v2.03H19.54zM11.25 19.59H29v2.03H11.25zM90.55 19.59h19.62v2.03H90.55zM7.74 25.44h9.1v2.03h-9.1zM99.47 25.44h19.62v2.03H99.47zM12.57 31.28H69.1v2.03H12.57zM90.55 31.28h19.62v2.03H90.55zM90.55 37.13h19.62v2.03H90.55z"/>
            <path d="M51.24 25.55h52.17v2.03H51.24zM7.74 38.09h66.74v2.03H7.74zM114.31 38.09h7.94v2.03h-7.94zM90.55 38.09h19.62v2.03H90.55zM7.74 43.93h5.03v2.03H7.74zM116.49 52.11h5.03v2.03h-5.03zM100.39 43.93h21.86v2.03h-21.86zM8.2 69.4h19.62v2.03H8.2zM11.25 49.78H29v2.03H11.25zM90.55 49.78h19.62v2.03H90.55zM7.74 55.62h9.1v2.03h-9.1zM90.55 55.62h19.62v2.03H90.55zM12.57 61.47H69.1v2.03H12.57z"/>
            <path d="M61.83 61.47h56.53v2.03H61.83z"/>
            <path d="M90.55 61.47h19.62v2.03H90.55zM54.96 67.32h66.74v2.03H54.96z"/>
            <path d="M90.55 67.32h19.62v2.03H90.55z"/>
        </g>
        <path d="M21.23 118.09v9.89h87.14v-9.89c0-15.17-21.39-22.87-43.24-22.84-21.72.03-43.9 6.78-43.9 22.84z" fill="#00BFA5" fill-rule="nonzero"/>
        <path d="M64.8 90.25h-9.08v9.59c0 4.34 3.7 7.86 8.26 7.86h1.65c4.56 0 8.26-3.52 8.26-7.86v-9.59H64.8z" fill="#E49500" fill-rule="nonzero"/>
        <g fill-rule="nonzero">
            <path d="M18.4 109.03s-.52-.71-2.21-.79c-.14-.21-.28-.4-.41-.58-.26-.35-.92-1.86-3.43-.49-.81.44-1.09.84-.96 1.41-.1.12-.28.26-.56.15-.87-.97-1.95-1.18-3.2-.2-1.42 1.11-1.42 1.9-1.16 2.69h-.01s-.06.55-.47.5c-.43-.37-.95-.37-1.76.22-2.19 1.58-1.28 3.08-.92 3.96-.05.08-.13.14-.27.13-.28-.15-.65-.15-1.14.13-1.16.66-.99 2.85-.66 3.57.36.78 2.35 3.52 3.04 4.29s2.08.71 2.77-.09c.5-.58.87-1.08-.26-2.12-.03-.03-.07-.07-.11-.1l.23-.09c.63.83 1.56 1.72 2.88.97.66-.38 1.24-1.24.71-2.41l.77-.31c.06.09.12.17.18.26.71 1.02 2.2.66 3.05.18l-.5.56-.87.36s-1.4 1.28-.05 2.7c.78.82 1.71.32 3.25-.3 1.17-.47 5.77-3.23 5.87-4.1 0 0 .9-3.45.13-5.44-.5-1.32-2.15-3.35-3.93-5.06z" fill="#FAC036"/>
            <path d="M16.93 108.32s-.63-.07-.74-.08c1.06 1.58 2.3 3.93 2.8 4.89.8 1.54 1.33 3.05-.1 4.13-.66.5-1.26.57-1.75.37-.48-.39-.91-1.19-.91-1.19-1.89-3.47-3.2-5.21-3.2-5.21-.13-.15-.41-.63-.8-.87-.5-.3-.35.23-.35.23 2.2 3.43 3.54 6.17 3.54 6.17.57 1.04.47 1.78.31 2.19-.19.5-1.28 1.2-1.28 1.2-2.22 1.33-3.24-.44-3.24-.44s-1.3-1.63-3.48-5.7c0 0-.34-.56-.55-.17 0 0 .12.69.44 1.34 0 0 .99 2.36 2.92 5.08.47 1.13-.09 1.96-.74 2.34-.79.45-1.44.31-1.97-.05-.49-.48-1.64-1.79-3.32-4.81 0 0-.33-.75-.49-.49 0 0-.17.2.29 1.36 0 0 .67 1.67 2.34 3.89.62.86.55 1.28.3 1.54-.56.56-1.49.69-2.18.36.6.37 1.64.82 2.65.19 0 0 .65-.47.7-.97 1.1.61 2.62-.53 2.62-.53.71-.55.9-1.16.88-1.69 1.46.87 3.33-.33 3.33-.33 1.64-.93 1.96-1.91 1.96-2.55.85.53 1.9.13 1.9.13 1.85-.82 1.79-2.63 1.79-2.63-.08-2.5-2.5-6.04-3.67-7.7z" fill="#E48C15"/>
        </g>
        <g fill-rule="nonzero">
            <path d="M19.8 116.32c.01.15.01.3.01.45 0 4.12-1.99 7.45-4.43 7.45-2.45 0-4.43-3.34-4.43-7.45 0-.15.01-.3.01-.45-2.42 1.75-4.04 4.9-4.04 8.49v.65c0 1.41.97 2.55 2.16 2.55h12.6c1.19 0 2.16-1.14 2.16-2.55v-.65c0-3.6-1.62-6.74-4.04-8.49z" fill="#E0E0E0"/>
            <path d="M15.38 124.22c9.04 0 4.43-3.34 4.43-7.45 0-.15-.01-.3-.01-.45-1.29-.93-2.8-1.48-4.42-1.48s-3.13.55-4.42 1.48c-.01.15-.01.3-.01.45 0 4.12-4.65 7.45 4.43 7.45z" fill="#BDBDBD"/>
        </g>
        <path d="M10.68 121.37c0 .03-.01.05-.02.08 0-.03.01-.05.02-.08zM8.33 122.77c-.05-.01-.09-.03-.13-.05.04.02.08.03.13.05zM6.96 124.01s.01-.01.01-.02l-.06.06c.02-.01.04-.02.05-.04zM7.83 122.53l.06.03c-.02-.02-.05-.03-.08-.05.01.01.02.01.02.02zM6.27 124.44c-.04.01-.07.03-.11.04.04-.02.08-.03.11-.04zM9.27 122.79c-.05.01-.1.02-.16.03.06-.01.11-.01.16-.03zM10.04 122.41c-.08.06-.16.12-.24.16.08-.04.16-.1.24-.16zM10.44 121.97c-.02.03-.04.05-.06.08.02-.03.04-.05.06-.08zM8.78 122.85c-.05 0-.11-.01-.16-.02.06.01.11.02.16.02zM10.25 122.21zM10.59 121.69c-.01.03-.03.05-.04.07.01-.03.03-.05.04-.07zM5.96 124.52c-.05.01-.1.01-.15.02.05-.01.1-.01.15-.02zM10.53 120.24s0-.01-.01-.01c.02.04.03.08.04.12 0-.04-.01-.07-.03-.11zM10.66 120.63c.01.04.01.07.02.11-.01-.04-.01-.07-.02-.11zM5.19 124.51a1.17 1.17 0 0 1-.2-.05c.06.02.13.03.2.05zM5.63 124.55c-.1 0-.21 0-.31-.02.1.02.21.03.31.02zM10.71 121.02c0 .03 0 .06-.01.09 0-.03.01-.06.01-.09z"/>
        <path d="M5.19 124.51l.13.03c.1.01.21.02.31.02.06 0 .12-.01.18-.02.05-.01.1-.01.15-.02.07-.01.13-.03.2-.05.04-.01.07-.02.11-.04.24-.08.46-.21.64-.38l.06-.06c.24-.26.3-.68-.31-1.52-1.68-2.22-2.34-3.89-2.34-3.89-.46-1.17-.29-1.36-.29-1.36.16-.26.49.49.49.49 1.67 3 2.81 4.31 3.3 4.8.02.02.05.03.08.05.1.06.2.12.3.16.04.02.09.03.13.05.1.03.2.05.3.07.05.01.1.01.16.02.11 0 .22-.01.33-.03.05-.01.1-.01.16-.03a2.301 2.301 0 0 0 .77-.38c.04-.03.07-.07.11-.1.04-.03.08-.07.11-.1.05-.05.08-.11.13-.16.02-.03.04-.05.06-.08.04-.06.08-.14.11-.21.01-.02.03-.05.04-.07.03-.08.05-.16.07-.24.01-.03.02-.05.02-.08.02-.08.02-.17.02-.26 0-.03.01-.06.01-.09 0-.09-.02-.18-.03-.28-.01-.04-.01-.07-.02-.11-.02-.09-.06-.19-.09-.28-.01-.04-.03-.08-.04-.12-1.92-2.71-2.91-5.07-2.91-5.07-.32-.66-.44-1.34-.44-1.34.21-.39.55.17.55.17 2.18 4.07 3.48 5.7 3.48 5.7s1.02 1.77 3.24.44c0 0 1.1-.71 1.28-1.2.16-.41.26-1.15-.31-2.19 0 0-1.34-2.74-3.54-6.17 0 0-.15-.54.35-.23.39.24.67.72.8.87 0 0 1.3 1.74 3.2 5.21 0 0 .42.8.91 1.19.48.2 1.09.13 1.75-.37 1.43-1.08.9-2.59.1-4.13-.5-.96-1.74-3.31-2.8-4.89.09.01.5.06.67.07-.2-.04-.42-.07-.67-.08-.14-.21-.28-.4-.41-.58-.26-.35-.92-1.86-3.43-.49-.81.44-1.09.84-.96 1.41-.1.12-.28.26-.56.15-.87-.97-1.95-1.18-3.2-.2-1.42 1.11-1.42 1.9-1.16 2.69h-.01s-.06.55-.47.5c-.43-.37-.95-.37-1.76.22-2.19 1.58-1.28 3.08-.92 3.96-.05.08-.13.14-.27.13-.28-.15-.65-.15-1.14.13-1.16.66-.99 2.85-.66 3.57.36.78 2.35 3.52 3.04 4.29.16.17.35.3.56.39.04.02.09.04.13.05.06.04.13.05.2.07z" fill="#FAC036" fill-rule="nonzero"/>
        <path d="M14.01 120.86l.5-.56c-.85.48-2.33.84-3.05-.18-.06-.09-.12-.17-.18-.26l-.77.31c.01.02.01.04.02.06 0 0 0 .01.01.01.02.04.02.07.04.11.03.1.07.19.09.28.01.04.01.07.02.11.02.09.03.19.03.28 0 .03 0 .06-.01.09 0 .09-.01.18-.02.26 0 .03-.01.05-.02.08-.02.08-.04.16-.07.24-.01.03-.03.05-.04.07-.03.07-.07.14-.11.21-.02.03-.04.05-.06.08-.04.06-.08.11-.13.16-.03.04-.07.07-.11.1-.04.03-.07.07-.11.1a2.134 2.134 0 0 1-.77.38c-.05.01-.1.02-.16.03-.11.02-.23.03-.33.03-.05 0-.11-.01-.16-.02-.1-.01-.2-.04-.3-.07-.05-.02-.09-.03-.13-.05-.1-.04-.2-.1-.3-.16l-.06-.03-.01-.01c-.35-.24-.65-.58-.9-.91l-.23.09c.04.04.08.07.11.1 1.13 1.04.75 1.54.26 2.12-.03.04-.06.06-.08.09 0 0-.01.01-.01.02-.02.01-.03.03-.05.04-.19.17-.4.3-.64.38-.04.01-.07.03-.11.04-.07.02-.13.03-.2.05-.05.01-.1.01-.15.02-.06.01-.12.01-.18.02-.1 0-.21 0-.31-.02-.05-.01-.09-.02-.13-.03a1.17 1.17 0 0 1-.2-.05c-.05-.02-.09-.03-.13-.05-.02-.01-.05-.02-.07-.03.6.37 1.64.82 2.65.19 0 0 .65-.47.7-.97 1.1.61 2.62-.53 2.62-.53.71-.55.9-1.16.88-1.69.36.22.75.3 1.14.31.17-.29.36-.46.36-.46l.86-.38zM16.93 108.32s-.03 0-.07-.01c.02.01.05.01.07.01 0 .01 0 0 0 0z" fill="#E48C15" fill-rule="nonzero"/>
        <path d="M10.68 120.74c.02.09.03.19.03.28 0-.09-.02-.19-.03-.28zM10.7 121.11c0 .09-.01.18-.02.26.02-.08.02-.17.02-.26zM10.38 122.05c-.04.06-.08.11-.13.16.05-.05.09-.11.13-.16zM10.55 121.76zM10.57 120.35c.03.1.07.19.09.28-.02-.09-.05-.18-.09-.28zM10.66 121.45zM6.27 124.44a1.876 1.876 0 0 1 0 0zM5.81 124.54c-.06.01-.12.01-.18.02.06-.01.12-.02.18-.02zM5.32 124.53c-.05-.01-.09-.02-.13-.03.04.02.08.03.13.03zM4.03 117.22s-.17.2.29 1.36c0 0 .67 1.67 2.34 3.89.61.85.55 1.26.31 1.52.03-.03.06-.05.08-.07.49-.58.87-1.08-.26-2.12-.03-.03-.07-.07-.11-.1l.23-.09c.25.33.55.66.9.91-.5-.49-1.64-1.8-3.3-4.8 0-.01-.33-.76-.48-.5zM14.97 121.04c1.64-.93 1.96-1.91 1.96-2.55.85.53 1.9.13 1.9.13 1.85-.82 1.79-2.63 1.79-2.63-.09-2.47-2.51-6-3.69-7.66-.03-.01-.05-.01-.08-.02-.16-.02-.58-.06-.67-.07 1.06 1.58 2.3 3.93 2.8 4.89.8 1.54 1.33 3.05-.1 4.13-.66.5-1.26.57-1.75.37-.48-.39-.91-1.19-.91-1.19-1.89-3.47-3.2-5.21-3.2-5.21-.13-.15-.41-.63-.8-.87-.5-.3-.35.23-.35.23 2.2 3.43 3.54 6.17 3.54 6.17.57 1.04.47 1.78.31 2.19-.19.5-1.28 1.2-1.28 1.2-2.22 1.33-3.24-.44-3.24-.44s-1.3-1.63-3.48-5.7c0 0-.34-.56-.55-.17 0 0 .12.69.44 1.34 0 0 .99 2.36 2.91 5.07-.01-.02-.01-.04-.02-.06l.77-.31c.06.09.12.17.18.26.71 1.02 2.2.66 3.05.18l-.5.56-.87.36s-.19.17-.36.46c1.14.02 2.2-.66 2.2-.66zM10.14 122.31c-.04.03-.07.07-.11.1.04-.03.08-.06.11-.1zM4.98 124.45c-.05-.02-.09-.03-.13-.05.04.02.09.04.13.05zM9.8 122.58c-.18.11-.36.17-.53.22.17-.05.34-.12.53-.22zM9.12 122.82zM8.62 122.84c-.1-.01-.2-.04-.3-.07.1.03.2.05.3.07zM8.19 122.72zM6.16 124.47c-.07.02-.13.03-.2.05.07-.01.14-.03.2-.05z" fill="#E48C15" fill-rule="nonzero"/>
        <g>
            <path d="M119.32 121.37c0 .03.01.05.02.08 0-.03-.01-.05-.02-.08zM121.67 122.77c.05-.01.09-.03.13-.05-.04.02-.08.03-.13.05zM123.04 124.01s-.01-.01-.01-.02l.06.06c-.02-.01-.04-.02-.05-.04zM122.17 122.53l-.06.03c.02-.02.05-.03.08-.05-.01.01-.02.01-.02.02zM123.73 124.44c.04.01.07.03.11.04-.04-.02-.08-.03-.11-.04zM120.73 122.79c.05.01.1.02.16.03-.06-.01-.11-.01-.16-.03zM119.96 122.41c.08.06.16.12.24.16-.08-.04-.16-.1-.24-.16zM119.56 121.97c.02.03.04.05.06.08-.02-.03-.04-.05-.06-.08zM121.22 122.85c.05 0 .11-.01.16-.02-.06.01-.11.02-.16.02zM119.75 122.21zM119.41 121.69c.01.03.03.05.04.07-.01-.03-.03-.05-.04-.07zM124.04 124.52c.05.01.1.01.15.02-.05-.01-.1-.01-.15-.02zM119.47 120.24s0-.01.01-.01c-.02.04-.03.08-.04.12 0-.04.01-.07.03-.11zM119.34 120.63c-.01.04-.01.07-.02.11.01-.04.01-.07.02-.11zM124.81 124.51c.07-.01.14-.03.2-.05-.06.02-.13.03-.2.05zM124.37 124.55c.1 0 .21 0 .31-.02-.1.02-.21.03-.31.02zM119.29 121.02c0 .03 0 .06.01.09 0-.03-.01-.06-.01-.09z"/>
            <path d="M124.81 124.51l-.13.03c-.1.01-.21.02-.31.02-.06 0-.12-.01-.18-.02-.05-.01-.1-.01-.15-.02-.07-.01-.13-.03-.2-.05a.487.487 0 0 1-.11-.04 1.73 1.73 0 0 1-.7-.44c-.24-.26-.3-.68.31-1.52 1.68-2.22 2.34-3.89 2.34-3.89.46-1.17.29-1.36.29-1.36-.16-.26-.49.49-.49.49-1.67 3-2.81 4.31-3.3 4.8-.02.02-.05.03-.08.05-.1.06-.2.12-.3.16-.04.02-.09.03-.13.05-.1.03-.2.05-.3.07-.05.01-.1.01-.16.02-.11 0-.22-.01-.33-.03-.05-.01-.1-.01-.16-.03a2.301 2.301 0 0 1-.77-.38c-.04-.03-.07-.07-.11-.1-.04-.03-.08-.07-.11-.1-.05-.05-.08-.11-.13-.16-.02-.03-.04-.05-.06-.08a1.39 1.39 0 0 1-.11-.21c-.01-.02-.03-.05-.04-.07-.03-.08-.05-.16-.07-.24-.01-.03-.02-.05-.02-.08-.02-.08-.02-.17-.02-.26 0-.03-.01-.06-.01-.09 0-.09.02-.18.03-.28.01-.04.01-.07.02-.11.02-.09.06-.19.09-.28.01-.04.03-.08.04-.12 1.92-2.71 2.91-5.07 2.91-5.07.32-.66.44-1.34.44-1.34-.21-.39-.55.17-.55.17-2.18 4.07-3.48 5.7-3.48 5.7s-1.02 1.77-3.24.44c0 0-1.1-.71-1.28-1.2-.16-.41-.26-1.15.31-2.19 0 0 1.34-2.74 3.54-6.17 0 0 .15-.54-.35-.23-.39.24-.67.72-.8.87 0 0-1.3 1.74-3.2 5.21 0 0-.42.8-.91 1.19-.48.2-1.09.13-1.75-.37-1.43-1.08-.9-2.59-.1-4.13.5-.96 1.74-3.31 2.8-4.89-.09.01-.5.06-.67.07.2-.04.42-.07.67-.08.14-.21.28-.4.41-.58.26-.35.92-1.86 3.43-.49.81.44 1.09.84.96 1.41.1.12.28.26.56.15.87-.97 1.95-1.18 3.2-.2 1.42 1.11 1.42 1.9 1.16 2.69h.01s.06.55.47.5c.43-.37.95-.37 1.76.22 2.19 1.58 1.28 3.08.92 3.96.05.08.13.14.27.13.28-.15.65-.15 1.14.13 1.16.66.99 2.85.66 3.57-.36.78-2.35 3.52-3.04 4.29-.16.17-.35.3-.56.39-.04.02-.09.04-.13.05-.06.04-.13.05-.2.07z" fill="#FAC036" fill-rule="nonzero"/>
            <path d="M115.99 120.86l-.5-.56c.85.48 2.33.84 3.05-.18.06-.09.12-.17.18-.26l.77.31c-.01.02-.01.04-.02.06 0 0 0 .01-.01.01-.02.04-.02.07-.04.11-.03.1-.07.19-.09.28-.01.04-.01.07-.02.11-.02.09-.03.19-.03.28 0 .03 0 .06.01.09 0 .09.01.18.02.26 0 .03.01.05.02.08.02.08.04.16.07.24.01.03.03.05.04.07.03.07.07.14.11.21.02.03.04.05.06.08.04.06.08.11.13.16.03.04.07.07.11.1.04.03.07.07.11.1a2.134 2.134 0 0 0 .77.38c.05.01.1.02.16.03.11.02.23.03.33.03.05 0 .11-.01.16-.02.1-.01.2-.04.3-.07.05-.02.09-.03.13-.05.1-.04.2-.1.3-.16l.06-.03.01-.01c.35-.24.65-.58.9-.91l.23.09c-.04.04-.08.07-.11.1-1.13 1.04-.75 1.54-.26 2.12.02.03.06.05.08.07 0 0 .01.01.01.02.02.01.03.03.05.04.19.17.4.3.64.38.04.01.07.03.11.04.07.02.13.03.2.05.05.01.1.01.15.02.06.01.12.01.18.02.1 0 .21 0 .31-.02.05-.01.09-.02.13-.03.07-.01.14-.03.2-.05.05-.02.09-.03.13-.05.02-.01.05-.02.07-.03-.6.37-1.64.82-2.65.19 0 0-.65-.47-.7-.97-1.1.61-2.62-.53-2.62-.53-.71-.55-.9-1.16-.88-1.69-.36.22-.75.3-1.14.31-.17-.29-.36-.46-.36-.46l-.86-.36zM113.07 108.32s.03 0 .07-.01c-.02.01-.05.01-.07.01 0 .01 0 0 0 0z" fill="#E48C15" fill-rule="nonzero"/>
            <path d="M119.32 120.74c-.02.09-.03.19-.03.28 0-.09.02-.19.03-.28zM119.3 121.11c0 .09.01.18.02.26-.02-.08-.02-.17-.02-.26zM119.62 122.05c.04.06.08.11.13.16-.05-.05-.09-.11-.13-.16zM119.45 121.76zM119.43 120.35c-.03.1-.07.19-.09.28.02-.09.05-.18.09-.28zM119.34 121.45zM123.73 124.44a1.876 1.876 0 0 0 0 0zM124.19 124.54c.06.01.12.01.18.02-.06-.01-.12-.02-.18-.02zM124.68 124.53c.05-.01.09-.02.13-.03-.04.02-.08.03-.13.03zM125.97 117.22s.17.2-.29 1.36c0 0-.67 1.67-2.34 3.89-.61.85-.55 1.26-.31 1.52-.03-.03-.06-.05-.08-.07-.49-.58-.87-1.08.26-2.12.03-.03.07-.07.11-.1l-.23-.09c-.25.33-.55.66-.9.91.5-.49 1.64-1.8 3.3-4.8 0-.01.33-.76.48-.5zM115.03 121.04c-1.64-.93-1.96-1.91-1.96-2.55-.85.53-1.9.13-1.9.13-1.85-.82-1.79-2.63-1.79-2.63.09-2.47 2.51-6 3.69-7.66.03-.01.05-.01.08-.02.16-.02.58-.06.67-.07-1.06 1.58-2.3 3.93-2.8 4.89-.8 1.54-1.33 3.05.1 4.13.66.5 1.26.57 1.75.37.48-.39.91-1.19.91-1.19 1.89-3.47 3.2-5.21 3.2-5.21.13-.15.41-.63.8-.87.5-.3.35.23.35.23-2.2 3.43-3.54 6.17-3.54 6.17-.57 1.04-.47 1.78-.31 2.19.19.5 1.28 1.2 1.28 1.2 2.22 1.33 3.24-.44 3.24-.44s1.3-1.63 3.48-5.7c0 0 .34-.56.55-.17 0 0-.12.69-.44 1.34 0 0-.99 2.36-2.91 5.07.01-.02.01-.04.02-.06l-.77-.31c-.06.09-.12.17-.18.26-.71 1.02-2.2.66-3.05.18l.5.56.87.36s.19.17.36.46c-1.14.02-2.2-.66-2.2-.66zM119.86 122.31c.04.03.07.07.11.1-.04-.03-.08-.06-.11-.1zM125.02 124.45c.05-.02.09-.03.13-.05-.04.02-.09.04-.13.05zM120.2 122.58c.18.11.36.17.53.22a2.85 2.85 0 0 1-.53-.22zM120.88 122.82zM121.38 122.84c.1-.01.2-.04.3-.07-.1.03-.2.05-.3.07zM121.81 122.72zM123.84 124.47c.07.02.13.03.2.05a1.17 1.17 0 0 1-.2-.05z" fill="#E48C15" fill-rule="nonzero"/>
        </g>
        <g fill-rule="nonzero">
            <path d="M97.05 52.31s5.89 1.02 5.89 7.37c0 5.6-4.3 7.81-8.6 7.81V52.31h2.71zM32.77 52.31s-5.89 1.02-5.89 7.37c0 5.6 4.3 7.81 8.6 7.81V52.31h-2.71z" fill="#E39400"/>
            <path d="M64.91 10.75c-25.4 0-32.04 19.69-32.04 47.35 0 28.68 18.43 36.1 32.04 36.1 13.41 0 32.04-7.2 32.04-36.1.01-27.66-6.64-47.35-32.04-47.35z" fill="#FAC01B"/>
            <path d="M54.36 60.67c0 2.86-1.91 5.17-4.28 5.17-2.36 0-4.29-2.32-4.29-5.17 0-2.86 1.92-5.18 4.29-5.18s4.28 2.31 4.28 5.18M75.46 60.67c0 2.86 1.91 5.17 4.29 5.17 2.36 0 4.28-2.32 4.28-5.17 0-2.86-1.92-5.18-4.28-5.18-2.38 0-4.29 2.31-4.29 5.18" fill="#444"/>
            <path d="M74.19 78.14h-9.27-9.27c-1.06 0-1.52.71-.82 1.79.98 1.5 4.64 4.38 10.09 4.38s9.11-2.88 10.09-4.38c.7-1.08.24-1.79-.82-1.79z" fill="#513F35"/>
            <path d="M69.39 70.25c-1.58.45-3.22.66-4.48.66-1.26 0-2.9-.22-4.48-.66-.67-.19-.94.45-.7.87.5.88 2.52 2.66 5.18 2.66 2.66 0 4.68-1.78 5.18-2.66.24-.42-.02-1.06-.7-.87z" fill="#E39400"/>
            <path d="M65.68 7.14s-.5-.02-.71-.01c-.21 0-.71.01-.71.01-27.41.53-35.67 17.01-35.67 28.45 0 11.11.01 19.28.01 19.28s.44-.45 1.24-1.08c.86-.67 1.81-1.04 1.81-1.04l1.38 9.28 9.13-19.08c.06-.12.18-.19.31-.17l5.41.6c5.44.6 10.91.9 16.37.91v.01c.24 0 .47-.01.71-.01s.47.01.71.01v-.01c5.46-.02 10.93-.31 16.37-.91l5.41-.6c.13-.01.25.06.31.17l9.13 19.08 1.38-9.28s.95.38 1.81 1.04c.81.63 1.24 1.08 1.24 1.08s.01-8.16.01-19.28c.02-11.44-8.24-27.92-35.65-28.45z" fill="#6D4C41"/>
        </g>
        <ellipse fill="url(#a)" fill-rule="nonzero" cx="65.4" cy="84.29" rx="43.38" ry="39.29"/>
        <g fill-rule="nonzero">
            <path d="M105.87 74.71H24.13c-3.58 0-6.5 2.93-6.5 6.5v51.32c0 3.58 2.93 6.5 6.5 6.5h81.75a6.5 6.5 0 0 0 6.5-6.5V81.21c0-3.59-2.91-6.5-6.51-6.5z" fill="#4DD0E1"/>
            <path d="M79.88 125.35c-1.43-4.91-2.03-13.09-2.28-18.81a6.757 6.757 0 0 0-6.75-6.46H61.91a6.75 6.75 0 0 0-6.75 6.46c-.25 5.72-.85 13.91-2.28 18.81-2.37 8.13-6.08 14.73.36 14.73h26.28c6.44 0 2.73-6.6.36-14.73z" fill="#00ACC1"/>
        </g>
    </g>
</svg>