<svg id="customer" width="137" height="124" 
    xmlns="http://www.w3.org/2000/svg">
    <g fill-rule="nonzero" fill="none">
        <path d="M32.87 109.53c-6.51-22.34-6.51-68.14-6.51-68.14l84-.33s0 41.49-4.88 68.19l-72.61.28z" fill="#6D4C41"/>
        <path d="M24.68 114.1v9.89h87.14v-9.89c0-15.17-21.39-22.87-43.24-22.84-21.71.02-43.9 6.77-43.9 22.84z" fill="#262626"/>
        <path d="M68.69 91.25c-8.69 0-14.54 1.06-14.54 1.06l6.4 31.67h8.14V91.25z" fill="#E0E0E0"/>
        <path d="M68.26 91.25c8.4 0 14.12 1.05 14.12 1.05l-6.44 31.68h-7.69V91.25h.01z" fill="#E0E0E0"/>
        <ellipse cx="42.36" cy="40.12" rx="42" ry="39.5" transform="translate(26 2)" fill="#6D4C41"/>
        <path d="M68.36 86.25h-9.08v9.59c0 4.34 3.22 6.58 7.78 6.58l3.67-.17c4.56 0 6.72-2.08 6.72-6.41v-9.59h-9.09z" fill="#E49800"/>
        <path d="M77.44 91.65c0 1.53-1.31 4.42-3.4 6.82-2.12 2.44-5.65 3.95-5.65 3.95l10.39 11.08 3.72-21.19c0 .01-3.08-.47-5.06-.66z" fill="#F5F5F5"/>
        <path d="M68.26 9.58c-24.35 0-30.72 18.87-30.72 45.39 0 26.51 18.89 34.6 30.72 34.6 11.83 0 30.72-8.09 30.72-34.6-.01-26.52-6.38-45.39-30.72-45.39z" fill="#FBC11B"/>
        <path d="M77.59 74.11h-9.23-9.23c-1.06 0-1.51.71-.81 1.78.98 1.49 4.61 4.36 10.04 4.36 5.43 0 9.06-2.87 10.04-4.36.7-1.06.25-1.78-.81-1.78z" fill="#444"/>
        <g fill="#444">
            <path d="M57.86 56.73c0 2.84-1.9 5.15-4.26 5.15-2.35 0-4.27-2.3-4.27-5.15 0-2.85 1.91-5.15 4.27-5.15 2.36 0 4.26 2.3 4.26 5.15M78.86 56.73c0 2.84 1.9 5.15 4.27 5.15 2.35 0 4.26-2.3 4.26-5.15 0-2.85-1.91-5.15-4.26-5.15-2.37 0-4.27 2.3-4.27 5.15"/>
        </g>
        <path d="M72.77 66.27c-1.57.44-3.2.66-4.46.66-1.26 0-2.89-.22-4.46-.66-.67-.19-.94.45-.69.87.5.88 2.5 2.64 5.15 2.64 2.65 0 4.65-1.77 5.15-2.64.24-.42-.02-1.06-.69-.87z" fill="#E49800"/>
        <path d="M77.44 30.43c-3.23 3.11-19.29 17.58-41.42 21.35V22.12S45.57 3.17 68.49 3.17c22.92 0 32.47 19.43 32.47 19.43v29.19S85.94 46.03 78.4 30.62c-.18-.38-.66-.48-.96-.19z" fill="#6D4C41"/>
        <path d="M80.74 92.05l-6.4 31.93h7.26l11.48-11.99-4.75-6.6 7.12-4.71-4.01-6.35c-.01.01-5.05-1.53-10.7-2.28z" fill="#0A0A0A"/>
        <path d="M59.31 91.65c0 1.53 1.31 4.42 3.4 6.82 2.12 2.44 5.65 3.95 5.65 3.95l-10.38 11.09-3.74-21.21c.01-.01 3.03-.49 5.07-.65z" fill="#F5F5F5"/>
        <path d="M56.01 92.03l6.41 31.95h-7.29l-11.44-12.04 4.75-6.6-7.12-4.71 4.06-6.44c-.01 0 4.98-1.41 10.63-2.16z" fill="#0A0A0A"/>
        <circle fill="#262626" cx="68.55" cy="111.29" r="1.69"/>
        <circle fill="#262626" cx="68.55" cy="119.29" r="1.69"/>
        <path d="M68.26 36.61c-21.04.14-40.1 3.7-40.1 3.7s9.8 10.5 40.1 10.72c30.3-.22 40.1-10.72 40.1-10.72s-19.06-3.56-40.1-3.7z" fill="#262626"/>
        <path d="M112.19 18.41c-2.59-3.1-4.62-4.99-7.97-7.26C93.79 4.13 79.32.97 68.65.97c-.13 0-.26.01-.39.01S68 .97 67.87.97C57.19.97 42.72 4.13 32.3 11.16c-3.35 2.27-5.38 4.15-7.97 7.26-3.81 4.56-4.59 11.57-2.22 17.47 1.9 4.72 4.16 7.94 4.16 7.94 2.11-4 5.08-6.48 9.17-7.54 4.19-1.09 19.41-2.28 32.82-2.81 13.41.53 28.64 1.73 32.82 2.81 4.09 1.06 7.06 3.53 9.17 7.54 0 0 2.26-3.22 4.16-7.94 2.37-5.91 1.59-12.92-2.22-17.48z" fill="#262626"/>
        <path d="M106.02 33.6S89.61 22.4 68.26 22.34c-21.35.07-37.77 11.26-37.77 11.26l-1.8 6.85s18.07-2.06 39.44-2.06c25.38 0 39.68 2.06 39.68 2.06l-1.79-6.85z" fill="#444"/>
        <g fill="#FFC107">
            <path d="M68.37 91.84C30.72 91.84.09 77.76.09 60.45c0-17.31 30.63-31.39 68.28-31.39 37.65 0 68.28 14.08 68.28 31.39-.01 17.31-30.64 31.39-68.28 31.39zm0-61.08C31.88 30.76 2.2 44.08 2.2 60.45s29.69 29.69 66.17 29.69c36.48 0 66.17-13.32 66.17-29.69s-29.69-29.69-66.17-29.69z"/>
            <path d="M68.37 95.34C30.72 95.34.09 81.26.09 63.95c0-17.31 30.63-31.39 68.28-31.39 37.65 0 68.28 14.08 68.28 31.39-.01 17.31-30.64 31.39-68.28 31.39zm0-61.08C31.88 34.26 2.2 47.58 2.2 63.95s29.69 29.69 66.17 29.69c36.48 0 66.17-13.32 66.17-29.69s-29.69-29.69-66.17-29.69z"/>
        </g>
        <g fill="#FFC107">
            <path d="M61.62 13.48c-.09.06-.18.1-.29.1h-9.76c-.35 0-.5.46-.21.66.23.16.46.32.68.48.79.54 1.73.82 2.69.82h7.66c-.23-.74-.48-1.43-.77-2.06zM61.15 12.52c-.52-.99-1.02-1.76-1.39-2.28H47.22c-.27 0-.39.33-.2.51.12.11.24.22.37.32 1.06.94 2.43 1.45 3.85 1.45h9.91zM62.69 16.6h-6.74c-.21 0-.28.29-.09.38 4.08 2.03 6.38 1.9 6.38 1.9h.79c-.05-.79-.17-1.55-.34-2.28zM84.94 13.58h-9.76c-.11 0-.21-.04-.29-.1-.28.63-.54 1.32-.77 2.05h7.66c.96 0 1.89-.28 2.69-.82.22-.15.45-.31.68-.48.28-.19.14-.65-.21-.65zM89.29 10.24H76.75c-.37.52-.88 1.29-1.39 2.28h9.91c1.42 0 2.79-.51 3.85-1.45.12-.11.24-.22.37-.32.19-.18.07-.51-.2-.51zM80.56 16.6h-6.73c-.17.73-.29 1.49-.35 2.28h.78s2.31.14 6.38-1.9c.2-.09.13-.38-.08-.38zM72.48 7.58c-.75.35-1.65.56-2.47.68-1.16.18-2.34.18-3.5 0-.82-.12-1.72-.33-2.47-.68-.47-.22-1.04.02-1.23.5l-.79 1.97c-.21.52-.17.85.02 1.11.7.96 2.37 3.56 2.48 6.7.01.35.2.67.51.82.64.31 1.77.9 2.62 1.6.36.29.85.29 1.21 0 .85-.7 1.98-1.29 2.62-1.6.32-.15.5-.47.51-.82.11-3.14 1.78-5.74 2.48-6.7a.9.9 0 0 0 .11-.88c-.22-.56-.6-1.48-.88-2.19-.19-.49-.75-.73-1.22-.51z"/>
        </g>
        <g fill="#FFC107">
            <path d="M88.24 116.63c-.04.03-.08.04-.13.04h-4.34c-.16 0-.22.2-.09.3l.3.21c.35.24.77.36 1.19.36h3.41c-.1-.32-.21-.63-.34-.91zM88.03 116.2c-.23-.44-.45-.78-.62-1.01h-5.58c-.12 0-.18.15-.09.23.05.05.11.1.16.14.47.42 1.08.64 1.71.64h4.42zM88.72 118.02h-3c-.09 0-.12.13-.04.17 1.81.9 2.84.84 2.84.84h.35a7.91 7.91 0 0 0-.15-1.01zM98.61 116.67h-4.34c-.05 0-.09-.02-.13-.04-.13.28-.24.59-.34.91h3.41c.43 0 .84-.12 1.19-.36l.3-.21c.13-.09.07-.3-.09-.3zM100.55 115.19h-5.58c-.16.23-.39.57-.62 1.01h4.41c.63 0 1.24-.23 1.71-.64.05-.05.11-.1.16-.14.09-.08.03-.23-.08-.23zM96.66 118.02h-2.99c-.08.32-.13.66-.15 1.01h.35s1.03.06 2.84-.84c.08-.05.05-.17-.05-.17zM93.07 114.01c-.33.16-.73.25-1.1.3a5.1 5.1 0 0 1-1.56 0c-.36-.06-.76-.15-1.1-.3-.21-.1-.46.01-.55.22l-.35.87c-.09.23-.08.38.01.49.31.43 1.05 1.58 1.1 2.98.01.16.09.3.23.36.29.14.79.4 1.17.71.16.13.38.13.54 0 .38-.31.88-.57 1.17-.71.14-.07.22-.21.23-.36.05-1.4.79-2.55 1.1-2.98.08-.11.1-.26.05-.39-.1-.25-.26-.66-.39-.97a.406.406 0 0 0-.55-.22z"/>
        </g>
    </g>
</svg>