<svg id="customer" width="101" height="127" 
    xmlns="http://www.w3.org/2000/svg">
    <g fill-rule="nonzero" fill="none">
        <path d="M97.63 53.12s2.39 14.39 2.39 17.32c0 17.6-23.26 24.66-48.67 24.67V17.92c21.19.04 46.28 35.2 46.28 35.2z" fill="#EF5350"/>
        <path d="M91.77 49.87s3.8 18.48 3.8 21.4c0 17.6-21.63 25.98-46.06 25.98V18.59c20.39.03 42.26 31.28 42.26 31.28z" fill="#B71C1C"/>
        <path d="M3.69 53.12S1.3 67.51 1.3 70.44c0 17.6 23.26 24.66 48.67 24.67V17.92c-21.19.04-46.28 35.2-46.28 35.2z" fill="#EF5350"/>
        <path d="M9.55 49.87s-3.8 18.48-3.8 21.4c0 17.6 21.63 25.98 46.06 25.98V18.59c-20.38.03-42.26 31.28-42.26 31.28z" fill="#B71C1C"/>
        <path d="M14.63 112.55C8.14 90.21 8.14 44.41 8.14 44.41l83.71-.33c0 41.5-.03 41.65-4.87 68.19l-72.35.28z" fill="#6D4C41"/>
        <ellipse cx="42" cy="40.13" rx="42" ry="39.5" transform="translate(8 5)" fill="#6D4C41"/>
        <path d="M0 117.11V127h100v-9.89c0-15.17-24.54-22.87-49.62-22.84C25.46 94.3 0 101.05 0 117.11z" fill="#E53935"/>
        <path d="M50 89.27h-9.08v9.59c0 4.34 3.7 7.86 8.26 7.86h1.65c4.56 0 8.26-3.52 8.26-7.86v-9.59H50z" fill="#E49800"/>
        <path d="M49.69 110.44l-15.48-7.15c-3.1-1.43-5.22-4.51-5.56-8.05l-1.18-12.29 14.9 9.46c4.52 2.7 7.32 7.71 7.32 13.14v4.89z" fill="#FDD835"/>
        <path d="M49.21 110.44l15.73-7.27c2.95-1.37 5.03-4.24 5.51-7.6l1.69-12.03-15.61 8.86c-4.52 2.7-7.31 7.71-7.31 13.14v4.9h-.01z" fill="#FDD835"/>
        <path d="M50 12.59c-24.35 0-30.72 18.87-30.72 45.39 0 26.51 18.89 34.6 30.72 34.6 11.83 0 30.72-8.09 30.72-34.6S74.35 12.59 50 12.59z" fill="#FBC11B"/>
        <path d="M59.23 77.13H50h-9.23c-1.06 0-1.51.71-.81 1.78.98 1.49 4.61 4.36 10.04 4.36 5.43 0 9.06-2.87 10.04-4.36.7-1.07.25-1.78-.81-1.78z" fill="#262626"/>
        <g fill="#444">
            <path d="M39.5 59.75c0 2.84-1.9 5.15-4.26 5.15-2.35 0-4.27-2.3-4.27-5.15 0-2.85 1.91-5.15 4.27-5.15 2.36 0 4.26 2.3 4.26 5.15M60.49 59.75c0 2.84 1.9 5.15 4.27 5.15 2.35 0 4.26-2.3 4.26-5.15 0-2.85-1.91-5.15-4.26-5.15-2.36 0-4.27 2.3-4.27 5.15"/>
        </g>
        <path d="M54.46 69.29c-1.57.44-3.2.66-4.46.66-1.26 0-2.89-.22-4.46-.66-.67-.19-.94.45-.69.87.5.88 2.5 2.64 5.15 2.64 2.65 0 4.65-1.77 5.15-2.64.24-.43-.02-1.06-.69-.87z" fill="#E49800"/>
        <path d="M58.94 33.45c-3.23 3.11-19.29 17.58-41.42 21.35V25.14S27.07 6.19 49.99 6.19c22.92 0 32.47 19.43 32.47 19.43V54.8S67.44 49.04 59.9 33.63a.599.599 0 0 0-.96-.18z" fill="#6D4C41"/>
        <path d="M50.41 2.54C3.65 2.54 7.17 49.89 7.17 49.89s12.21-11.01 43.5-11.01 42.09 9.99 42.09 9.99S97.17 2.54 50.41 2.54z" fill="#E53935"/>
        <path d="M33.12 4.89l6.95-2.35v23.75c-1.41-10.26-3.43-17.68-6.95-21.4zM67.71 4.89l-6.95-2.35v23.75c1.41-10.26 3.43-17.68 6.95-21.4z" fill="#E57373"/>
        <path d="M55.62 39.28h-10.6c-2.82 0-5.1-2.28-5.1-5.1V5.47c0-2.82 2.28-5.1 5.1-5.1h10.6c2.82 0 5.1 2.28 5.1 5.1v28.7c0 2.82-2.28 5.11-5.1 5.11z" fill="#E53935"/>
        <path d="M80 126.94H20v-4.33a2.48 2.48 0 0 1 2.48-2.48h55.05a2.48 2.48 0 0 1 2.48 2.48v4.33H80z" fill="#FDD835"/>
        <path fill="#FDD835" d="M47.55 105.87h4v21.07h-4z"/>
        <g transform="translate(29)">
            <path d="M20.48 37.92c-.33 0-.66-.11-.92-.32-.11-.09-.21-.19-.29-.3-.91-.32-2.91-.96-4.86-1.18C7.1 35.3 4.12 32.2 2.9 29.74c-1.5-3.04-1.13-6.7 1.05-10.31 1.1-1.83 1.49-3.45 1.15-4.8a3.944 3.944 0 0 0-1.64-2.3c-.38-.22-.64-.6-.72-1.03-.08-.43.03-.88.31-1.21l4.11-5.03a1.515 1.515 0 0 1 1.59-.49c.02 0 1.92.56 4.24.56.63 0 1.23-.04 1.8-.12 2.57-.37 4.68-2.42 5.04-2.78.11-.14.25-.26.41-.35.23-.14.49-.21.76-.21a1.511 1.511 0 0 1 1.2.6c.46.46 2.51 2.39 5 2.74.57.08 1.17.12 1.8.12 2.32 0 4.23-.56 4.25-.56.14-.04.28-.06.42-.06.44 0 .87.2 1.16.55l4.11 5.03a1.506 1.506 0 0 1-.43 2.26c-.04.02-1.25.76-1.63 2.29-.34 1.35.05 2.97 1.15 4.8 2.17 3.61 2.55 7.27 1.05 10.31-1.21 2.46-4.19 5.56-11.51 6.39-1.96.22-3.95.86-4.86 1.18a1.491 1.491 0 0 1-1.6.57l-.11-.05-.13.04c-.13.03-.26.04-.39.04z" fill="#FFCA28"/>
            <path d="M21.01 3.17v.02c.17.18 2.67 2.84 5.98 3.31.69.1 1.36.14 2.01.14 2.59 0 4.67-.62 4.67-.62l4.11 5.03s-4.89 2.76-1.03 9.17c3.86 6.41 1.49 13.21-9.34 14.44-2.87.32-5.74 1.46-5.74 1.46l-.16.04v.28l-.51-.16-.52.14v-.28l-.16-.04s-2.88-1.14-5.74-1.46C3.75 33.42 1.38 26.61 5.24 20.2c3.86-6.41-1.03-9.17-1.03-9.17L8.32 6s2.08.62 4.67.62c.65 0 1.33-.04 2.01-.14 3.31-.47 5.81-3.12 5.98-3.31v-.02c.01.02.02.03.03.02-.01.01 0 0 0 0zm-.02-3c-.36 0-.72.06-1.06.2-.51.19-.95.52-1.27.92-.66.64-2.32 1.99-4.07 2.23-.5.07-1.03.11-1.59.11-2.08 0-3.81-.5-3.83-.5A3.003 3.003 0 0 0 6 4.11L1.89 9.14c-.58.71-.87 1.6-.68 2.49.19.88.7 1.6 1.5 2.01.67.44 1.91 1.79-.04 5.02C.22 22.72-.17 26.9 1.56 30.41c1.38 2.79 4.7 6.32 12.68 7.22 1.58.18 3.23.67 4.18.98a3.013 3.013 0 0 0 2.06.82c.17 0 .35-.02.52-.05.17.03.35.05.52.05a3.013 3.013 0 0 0 2.06-.82c.94-.32 2.59-.8 4.17-.98 7.99-.9 11.31-4.42 12.68-7.22 1.73-3.51 1.34-7.68-1.11-11.75-1.95-3.23-.71-4.58-.04-5.02.8-.41 1.31-1.12 1.5-2.01.19-.89-.1-1.79-.68-2.49L36 4.11c-.58-.71-1.44-1.1-2.32-1.1-.29 0-.58.04-.86.13-.01 0-1.73.5-3.82.5-.56 0-1.09-.04-1.59-.11-1.81-.26-3.52-1.68-4.13-2.3-.22-.26-.49-.49-.8-.66-.45-.27-.97-.4-1.49-.4z" fill="#C62828"/>
            <ellipse fill="#795548" cx="21" cy="19.58" rx="12.51" ry="11.83"/>
            <g fill="#FFEB3B">
                <path d="M19.81 13.09c-.56-.51-.85-1.27-.75-2-.37.43-.54 1.01-.59 1.44-.21 1.93 2.03 2.54 2.07 2.5.07-.09.21-.33.04-.8-.26-.7.42-1.09.42-1.09s-.26.56-.07.8c.3.38.57.36.7.55.14.2-.02.52-.16.58 1.01-.08 1.81-.95 2.02-1.88.21-.93-.06-1.9-.46-2.78-.06.71-.79 1.3-1.55 1.27.22-.27.57-1.02.35-1.83-.22-.82-1.51-1.26-1.51-1.26s.36.37.38 1.12c0 .75-1.75 1.62-.89 3.38zM26.3 26.68L16.37 17l-1.79 1.27 9.96 9.66c.14.14.38.22.63.22.26 0 .53-.07.74-.22.29-.2.5-.54.53-.83a.496.496 0 0 0-.14-.42z"/>
                <path d="M17.21 15.94c-.14-.1-.42-.12-.58-.14.03-.06.33-.69.75-.81.35-.1.26-.54-.06-.65-.7-.23-2.15-.2-3.37.88-.14.12-1.97 1.79-2.88 2.65-.06.05-.13.09-.23.11-.54.13-.87.64-.74 1.13.13.47.45 1.2 1.16 1.68.68.46 1.91.76 1.94.76.51 0 .95-.22 1.1-.67.09-.27-.12-.43.17-.78 0 0 2.92-2.6 3.21-3 .29-.4.05-.77-.47-1.16z"/>
                <g>
                    <path d="M15.7 26.68L25.63 17l1.79 1.27-9.96 9.66c-.14.14-.38.22-.63.22-.26 0-.53-.07-.74-.22-.29-.2-.5-.54-.53-.83-.02-.21.06-.34.14-.42z"/>
                    <path d="M24.79 15.94c.14-.1.42-.12.58-.14-.03-.06-.33-.69-.75-.81-.35-.1-.26-.54.06-.65.7-.23 2.15-.2 3.37.88.14.12 1.97 1.79 2.88 2.65.06.05.13.09.23.11.54.13.87.64.74 1.13-.13.47-.45 1.2-1.16 1.68-.68.46-1.91.76-1.94.76-.51 0-.95-.22-1.1-.67-.09-.27.12-.43-.17-.78 0 0-2.92-2.6-3.21-3-.29-.4-.05-.77.47-1.16z"/>
                </g>
            </g>
        </g>
        <path d="M50.66 32.25C6.13 32.25 3.73 53.1 3.73 53.1l4.57 2.5s1.04-5.79 4.4-7.53c7.26-3.76 18.26-8.29 37.97-8.3v-7.52h-.01z" fill="#EF5350"/>
        <path d="M50.66 32.25c44.53 0 46.93 20.85 46.93 20.85l-4.79 2s-1.04-5.79-4.4-7.53c-7.26-3.76-18.04-7.79-37.76-7.8v-7.52h.02z" fill="#EF5350"/>
    </g>
</svg>