<svg id="customer" width="106" height="125" 
    xmlns="http://www.w3.org/2000/svg">
    <g fill-rule="nonzero" fill="none">
        <path d="M8.1 107.51C1.59 85.17 1.59 39.37 1.59 39.37l84-.33s0 41.49-4.88 68.19l-72.61.28z" fill="#6D4C41"/>
        <ellipse cx="42.59" cy="40.09" rx="42" ry="39.5" transform="translate(1)" fill="#6D4C41"/>
        <path d="M.02 112.07v9.89h87.14v-9.89c0-15.17-21.39-22.87-43.24-22.84-21.72.02-43.9 6.78-43.9 22.84z" fill="#E0E0E0"/>
        <path d="M43.54 84.23h-9.08v9.59c0 4.34 3.7 7.86 8.26 7.86h1.65c4.56 0 8.26-3.52 8.26-7.86v-9.59h-9.09z" fill="#E49500"/>
        <path d="M43.48 7.55c-24.35 0-30.72 18.87-30.72 45.39 0 26.51 18.89 34.6 30.72 34.6 11.83 0 30.72-8.09 30.72-34.6S67.83 7.55 43.48 7.55z" fill="#FBC11B"/>
        <path d="M52.82 72.09h-9.23-9.23c-1.06 0-1.51.71-.81 1.78.98 1.49 4.61 4.36 10.04 4.36 5.43 0 9.06-2.87 10.04-4.36.7-1.07.24-1.78-.81-1.78z" fill="#444"/>
        <g fill="#444">
            <path d="M33.09 54.71c0 2.84-1.9 5.15-4.26 5.15-2.35 0-4.27-2.3-4.27-5.15 0-2.85 1.91-5.15 4.27-5.15 2.36-.01 4.26 2.3 4.26 5.15M54.08 54.71c0 2.84 1.9 5.15 4.27 5.15 2.35 0 4.26-2.3 4.26-5.15 0-2.85-1.91-5.15-4.26-5.15-2.36-.01-4.27 2.3-4.27 5.15"/>
        </g>
        <path d="M47.99 64.25c-1.57.44-3.2.66-4.46.66-1.26 0-2.89-.22-4.46-.66-.67-.19-.94.45-.69.87.5.88 2.5 2.64 5.15 2.64 2.65 0 4.65-1.77 5.15-2.64.25-.43-.02-1.06-.69-.87z" fill="#E49500"/>
        <path fill="#80CBC4" d="M34.77 94.72H52.2l-7.15 27.24h-2.98z"/>
        <path fill="#EEE" d="M34.46 88.38l-10 5.87 9.58 10.06-2.29 8.01 10.48 9.79zM52.62 88.38l10 5.87-9.58 10.06 2.29 8.01-10.48 9.79z"/>
        <path d="M13.56 60.07l-.97-.85c-.11-.09-.2-.21-.27-.35L7.13 48.62v-4.75l5.03-6c.15-.17.33-.29.53-.33l.74-.16.13 22.69zM73.65 60.07l.97-.85c.11-.09.2-.21.27-.35l5.19-10.25v-4.75l-5.03-6a.975.975 0 0 0-.53-.33l-.74-.16-.13 22.69z" fill="#E0E0E0"/>
        <path d="M61 61.77zM21.67 61.22zM54.28 61.39c-.36-.07-.71-.14-1.07-.23.36.08.71.16 1.07.23zM23.78 61.56zM22.7 61.41c-.24-.04-.48-.08-.71-.13.23.04.47.09.71.13zM26.11 61.78zM24.91 61.69c-.24-.02-.48-.05-.72-.07.24.03.48.05.72.07zM53.16 61.14c-.36-.09-.71-.18-1.06-.29.35.11.71.21 1.06.29zM57.65 61.79zM58.78 61.83c-.34 0-.69-.01-1.04-.03l1.04.03z" fill="#6EBCC5"/>
        <path d="M43.97 38.85H35.2l-7.49 22.98c5.68.02 11.94-1.6 15.77-7.01 2.24 3.16 5.31 5.02 8.6 6.02l7.17-21.99H43.97z" fill="#BDBDBD" opacity=".6"/>
        <path d="M59.89 61.82c-.34.01-.69.01-1.03.01.35 0 .69 0 1.03-.01z" fill="#6EBCC5"/>
        <path d="M72.49 38.85h-4l-7.47 22.92c5.69-.35 10.44-2.2 10.94-3.21 1.05-2.09.53-19.71.53-19.71z" fill="#BDBDBD" opacity=".6"/>
        <path d="M55.4 61.57c-.36-.05-.71-.11-1.07-.18.36.08.72.13 1.07.18zM56.53 61.71c-.35-.03-.71-.07-1.06-.12l1.06.12zM27.65 61.83zM20.69 61.01z" fill="#6EBCC5"/>
        <path d="M25.96 38.85H14.47s-.52 17.62.52 19.71c.3.6 2.13 1.51 4.77 2.22-.3-.08-.59-.16-.87-.25l7.07-21.68z" fill="#BDBDBD" opacity=".6"/>
        <path d="M27.65 61.83h.06-.06zM21.99 61.28l-.32-.06.32.06zM20.93 61.06c-.08-.02-.16-.03-.23-.05.07.02.15.03.23.05zM19.89 60.81l-.12-.03.12.03zM23.08 61.47l-.38-.06c.12.02.25.04.38.06zM25.34 61.73c-.15-.01-.29-.03-.43-.04.14.02.29.03.43.04zM24.19 61.62c-.14-.02-.28-.04-.41-.05.14.01.27.03.41.05zM26.52 61.81c-.14-.01-.27-.02-.4-.02.13 0 .26.01.4.02z" fill="#F9F5ED"/>
        <path d="M25.96 38.85L18.9 60.53c.28.09.57.17.87.25l.12.03c.26.07.53.13.8.2.08.02.15.04.23.05.24.05.49.11.74.16.1.02.21.04.32.06.23.04.47.09.71.13l.38.06c.23.04.47.07.7.1.14.02.27.04.41.05.24.03.48.05.72.07.14.01.29.03.43.04.25.02.51.04.77.05.13.01.27.02.4.02.38.02.75.03 1.14.03h.06l7.49-22.98h-9.23z" fill="#E0E0E0" opacity=".6"/>
        <path d="M58.86 61.83h-.08.08zM61.02 61.77H61h.02zM59.96 61.82h-.07.07zM52.09 60.85h0zM57.74 61.79c-.03 0-.06 0-.09-.01.03.01.06.01.09.01zM53.21 61.16c-.02 0-.03-.01-.05-.01.02 0 .03 0 .05.01zM54.34 61.4c-.02 0-.04-.01-.06-.01.02 0 .04 0 .06.01zM56.61 61.71c-.03 0-.05-.01-.08-.01.03.01.05.01.08.01zM55.47 61.58c-.02 0-.04-.01-.07-.01.03.01.05.01.07.01z" fill="#F9F5ED"/>
        <path d="M59.26 38.85l-7.17 21.99h.01c.35.11.7.2 1.06.29.02 0 .03.01.05.01.36.09.71.16 1.07.23.02 0 .04.01.06.01.36.07.71.12 1.07.18.02 0 .04.01.07.01.35.05.71.09 1.06.12.03 0 .05.01.08.01.35.03.7.06 1.04.08.03 0 .06 0 .09.01.35.02.69.03 1.04.03h.08c.35 0 .69 0 1.03-.01h.07c.35-.01.7-.02 1.04-.05h.02l7.47-22.92h-9.24v.01z" fill="#E0E0E0" opacity=".6"/>
        <path d="M59.15 63.4c-4.78 0-11.17-1.1-15.67-6.07-4.5 4.97-10.89 6.07-15.67 6.07-6.25 0-14.16-2.01-15.22-4.14-1.1-2.2-.85-15.04-.69-20.46.02-.85.72-1.52 1.57-1.52h60.02c.85 0 1.54.67 1.57 1.52.16 5.42.41 18.25-.69 20.46-1.06 2.13-8.97 4.14-15.22 4.14zM43.48 52.12l1.28 1.8c3.72 5.25 9.88 6.35 14.39 6.35 5.66 0 10.5-1.72 11.45-2.5.47-1.54.55-9.67.36-17.34H16c-.19 7.64-.1 15.73.37 17.35.97.79 5.79 2.5 11.45 2.5 4.51 0 10.67-1.1 14.39-6.35l1.27-1.81z" fill="#EEE"/>
        <path d="M52.66 28.41c-3.23 3.11-19.29 17.58-41.42 21.35V20.09S20.79 1.14 43.71 1.14c22.92 0 32.47 19.43 32.47 19.43v29.19S61.16 44 53.62 28.59a.594.594 0 0 0-.96-.18z" fill="#6D4C41"/>
        <path d="M13.95 49.19s-7.88 1.69-8.44 1.62l-.12-10.38 6.5-4.56 2.06 13.32zM75.79 49.59s3.53 1.66 5.22 1.84l.44-11.12-4.62-3.38-1.5.56-1.56 3.56 2.02 8.54z" fill="#6D4C41"/>
        <g>
            <path d="M93.85 101.67c1.5.37 2.46 1.43 3.13 2.75 1.67-.3 4.55-.6 5.39-.58.99.03 2.3.14 2.52 2.17.14 1.32-.36 2.41-2.05 2.57-.63.06-1.28.1-1.92.13l.23.74c.59-.01 1.12-.03 1.53-.03 1.71-.02 2.68.89 2.68 2.7 0 1.59-1.37 2.34-2.37 2.4-.53.03-2.01-.05-3.47-.19l-.15.31-.06.09c.92.14 1.8.29 2.42.4 1.67.3 2.47 1.41 2.28 2.73-.23 1.6-1.66 2.04-2.65 2.01-.74-.02-3.34-.43-5.08-.8l-.34.49c.12.02.25.04.39.06.02 0 .04.01.07.01l.35.06c.03 0 .05.01.08.01.14.02.28.05.42.07h.02c.15.02.3.05.45.08.03 0 .06.01.08.01l.35.06c.05.01.09.02.14.02.1.02.2.04.29.05l.15.03c.1.02.19.04.28.05l.14.03c.13.03.27.05.39.08 1.53.32 2.11 1.01 1.92 2.22-.26 1.7-1.97 2.08-2.88 1.99-.91-.08-3.97-.71-4.97-1.15l-.18-.09-.35.5c-4.5-.3-7.73-2.18-7.73-2.18-2.64-1.48-3.08-2.62-3.52-4.43-.5-2.06-.38-4.5-.36-4.88.16-4.1 1.07-6.75 4.38-8.95.8-.53 1.97-1.46 4.56-1.76 1-.1 2.44-.02 3.44.22z" fill="#80CBC4"/>
            <path d="M97.59 108.48s.04-2.06-.61-4.06l.72-.13s.51 1.42.69 3.52c.03.34.04.65.04.95l.64-.04 4.29-.24s-.32.06-.32.54c0 .2.12.33.21.41-.18-.02-.38-.04-.58-.03l-4.26.11c-.01.12-.01.24-.02.37-.1 1.74-.51 3.41-1.48 4.05 3.22.38 6.08.57 6.08.57-.56.23-.32.91-.32.91-2.17-.59-7.43-.9-7.43-.9-2.22-.19-2.52 1.31-2.52 1.31-.41 1.81 1.56 2.64 1.56 2.64.26.15 2.61.62 4.29.94l1.68.31.47.09c-.05-.01-.25-.02-.33.31-.04.16 0 .27.03.34-.25-.11-.55-.21-.9-.28-.79-.16-3.18-.55-3.36-.58l-.6-.08c-1.98-.26-2.46.09-2.46.09-1.1.58-.78 1.98-.78 1.98.24 1.35 1.73 1.77 1.73 1.77.57.17 3.59.9 3.59.9l-4.57-.6c-.32-.1-.44-.25-.62-.39-1.61-1.32-.93-3.11-.93-3.11.25-.69.77-1 .77-1 .31-.19.67-.29 1.04-.33-1.87-.99-1.57-2.99-1.57-2.99.24-1.23 1.13-1.75 1.83-1.97-.06-.05-.13-.1-.19-.16 0 0-1.2-.79-.76-4.18.15-1.14.13-1.3.01-2.02 0 0-.43-1.54-1.71-1.05 0 0-.43.11-1.1.64 0 0-.54.42-.53-.24 0-.2.14-.56.41-.87 0 0 .28-.33.97-.52 0 0 1.79-.71 2.68 1.08.47.94.38 1.56.23 2.52 0 0-.28 3.03.51 4 0 0 .78.89 2.03.34.02.02 1.71-.91 1.45-4.92z" fill="#26A69A"/>
        </g>
        <g>
            <g transform="translate(91 69)">
                <path d="M5.09 17.86c-2.7 0-4.88-.8-4.88-1.79v23.52a4.88 4.88 0 0 0 9.76 0V16.07c.01.99-2.18 1.79-4.88 1.79z" fill="#AB47BC" opacity=".7"/>
                <path d="M5.09.78c-2.7 0-4.88.8-4.88 1.79v13.5c0-.99 2.19-1.79 4.88-1.79 2.7 0 4.88.8 4.88 1.79V2.57C9.98 1.58 7.79.78 5.09.78z" fill="#BBDEFB"/>
                <ellipse fill="#D1C4E9" cx="5.09" cy="16.07" rx="4.88" ry="1.79"/>
            </g>
            <path d="M96.09 70.49c2.59 0 4.1.76 4.18 1.08-.08.33-1.59 1.09-4.18 1.09s-4.1-.76-4.18-1.08c.08-.33 1.59-1.09 4.18-1.09zm0-.71c-2.7 0-4.88.8-4.88 1.79s2.19 1.79 4.88 1.79 4.88-.8 4.88-1.79c.01-.99-2.18-1.79-4.88-1.79z" fill="#E3F2FD"/>
            <path d="M96.56 89.4c-.16 0-.31-.01-.46-.01v.98c.15.01.3.02.46.02 1.31 0 2.49-.19 3.36-.5v-.99c-.87.31-2.05.5-3.36.5zM96.56 92.52c-.16 0-.31-.01-.46-.01v.98c.15.01.3.02.46.02 1.31 0 2.49-.19 3.36-.5v-.99c-.87.3-2.05.5-3.36.5zM96.56 95.64c-.16 0-.31-.01-.46-.01v.98c.15.01.3.02.46.02 1.31 0 2.49-.19 3.36-.5v-.99c-.87.3-2.05.5-3.36.5zM96.56 98.75c-.16 0-.31-.01-.46-.01v.98c.15.01.3.02.46.02 1.31 0 2.49-.19 3.36-.5v-.99c-.87.31-2.05.5-3.36.5z" fill="#D1C4E9"/>
            <path d="M99.63 107.58c-.28 0-.5-.23-.5-.5V75.7c0-.28.23-.5.5-.5.28 0 .5.23.5.5v31.37c0 .28-.22.51-.5.51z" fill="#EEE" opacity=".5"/>
        </g>
        <path d="M102.88 114.51h.11c.99-.06 2.36-.81 2.37-2.4 0-1.74-.89-2.64-2.48-2.69l-.07-.37.52-.03c.88-.21 1.34-.74 1.5-1.42.06-.1.08-1.24.07-1.37-.08-1.07-.47-1.57-.47-1.57-.4-1.02-2.86-.79-2.86-.79l-4.49.6c-.16-.05-.32-.1-.47-.15-.65-1.02-1.52-1.81-2.77-2.12-1-.24-2.43-.32-3.44-.2-2.59.3-3.76 1.23-4.56 1.76-.17.11-.31.23-.46.35.91 1.65 2.29 3.38 3.98 3.09.11-.25.29-.51.37-.6.36-.39.86-.67 1.39-.73.83-.1 1.69.31 2.14 1.01.7 1.08-.11 2.51-.16 3.8-.02.61.48 1.2.6 1.8.11.57.33 1.17.82 1.48.03.02.08.02.11.04-.03.1-.1.3-.18.56-.32.02-.63.08-.9.23-.62.34-.94 1.09-.86 1.78.06.51.33.98.71 1.33-.24.78-.44 1.48-.54 1.89-.69.53-.76 1.66-.28 2.41.5.79 1.42 1.22 2.33 1.45.91.23 1.85.31 2.74.61-.05-.01-.09-.01-.14-.02.45.08.83.14 1.07.16.9.08 2.62-.3 2.88-1.99.15-.97-.21-1.6-1.14-1.98-.07-.25-.19-.53-.26-.74.17.03.35.07.52.1.33.04.61.07.78.07.99.03 2.43-.41 2.65-2.01.15-1.06-.34-1.97-1.4-2.45-.39-.08-.79-.14-1.18-.21.16-.26.32-.52.48-.77l.97.09z" fill="#80CBC4"/>
        <path d="M103.32 109.45c-.14-.18-.17-.47-.17-.47h-.03c-.36-.03-4.67-.21-4.67-.21-.02-1.39-.59-3.05-.98-4.38-.26-.03-.57 0-.84-.09.34 1.31.97 2.84 1.01 4.18.03.9-.03 1.79-.22 2.67-.15.71-.39 1.43-.91 1.94s-1.37.72-1.98.33c-.49-.31-.7-.91-.82-1.48-.12-.6-.17-1.21-.14-1.81.05-1.29.4-2.7-.29-3.78-.45-.7-1.32-1.11-2.14-1.01-.53.06-1.03.34-1.39.73-.17.19-.83 1.13-.15 1.15.19 0 .36-.13.51-.25.46-.37 1.04-.71 1.61-.54.7.21.97 1.06 1 1.79.04 1-.17 1.99-.17 2.98 0 1 .27 2.07 1.04 2.7-1.04.23-1.81 1.26-1.84 2.33-.03 1.07.64 2.09 1.57 2.61-.87.02-1.63.72-1.86 1.56-.23.84.03 1.76.56 2.45.23.3.51.56.85.72.07.03.15.05.23.07l.32-.46-.11.15-.22.31c.23.07.48.11.72.15.14.02.28.04.43.05 1.09.14 2.18.28 3.27.41.05.01.09.01.14.02-.89-.3-1.83-.38-2.74-.61-.91-.23-1.82-.66-2.33-1.45-.5-.79-.41-2 .38-2.49.48-.3 1.07-.28 1.63-.24.89.06 1.77.17 2.65.31.24.04.48.08.71.12l.18.03c.05.01.09.02.14.02.1.02.2.04.29.05l.15.03c.1.02.19.04.28.05l.14.03c.13.03.27.05.39.08.27.06.49.13.7.2.06.02.13.03.19.05-.14-.23.03-.58.29-.62l-.14-.03-4.89-.96c-.64-.13-1.3-.26-1.85-.59-.6-.36-1.06-.98-1.15-1.68-.09-.7.24-1.45.86-1.78.47-.26 1.03-.25 1.57-.24 2.51.08 5.02.37 7.49.86.02 0 .05.01.07.01-.16-.31 0-.75.32-.89-.04 0-.08-.01-.11-.01-1.98-.18-3.96-.37-5.94-.55 1.21-1.06 1.39-2.85 1.48-4.45.01-.01 4.71-.07 4.91-.07z" fill="#26A69A"/>
    </g>
</svg>