<svg width="95" height="123" 
    xmlns="http://www.w3.org/2000/svg" id="customer">
    <g fill-rule="nonzero" fill="none">
        <path d="M.5 112.15v10.3h93.87v-10.3c0-15.8-23.4-23.83-46.94-23.8C24.05 88.37.5 95.41.5 112.15z" fill="#00BFA5"/>
        <path d="M47 84.08h-9.08v9.59c0 4.34 3.7 7.86 8.26 7.86h1.65c4.56 0 8.26-3.52 8.26-7.86v-9.59H47z" fill="#E49800"/>
        <path fill="#010101" opacity=".54" d="M19.41 113.37h3v8.46h-3zM71.7 113.37h3v8.46h-3z"/>
        <path d="M79.19 45.47s5.89 1.02 5.89 7.37c0 5.6-4.3 7.81-8.6 7.81V45.47h2.71zM14.91 45.47s-5.89 1.02-5.89 7.37c0 5.6 4.3 7.81 8.6 7.81V45.47h-2.71z" fill="#E39400"/>
        <path d="M47.05 3.91c-25.4 0-32.04 19.69-32.04 47.35 0 28.68 18.43 36.1 32.04 36.1 13.41 0 32.04-7.2 32.04-36.1.01-27.67-6.64-47.35-32.04-47.35z" fill="#FAC01B"/>
        <path d="M36.5 53.82c0 2.86-1.91 5.17-4.28 5.17-2.36 0-4.29-2.32-4.29-5.17 0-2.86 1.92-5.18 4.29-5.18s4.28 2.32 4.28 5.18M57.6 53.82c0 2.86 1.91 5.17 4.29 5.17 2.36 0 4.28-2.32 4.28-5.17 0-2.86-1.92-5.18-4.28-5.18-2.38 0-4.29 2.32-4.29 5.18" fill="#444"/>
        <path d="M56.33 71.29h-9.27-9.27c-1.06 0-1.52.71-.82 1.79.98 1.5 4.64 4.38 10.09 4.38s9.11-2.88 10.09-4.38c.7-1.07.24-1.79-.82-1.79z" fill="#513F35"/>
        <path d="M51.53 63.41c-1.58.45-3.22.66-4.48.66-1.26 0-2.9-.22-4.48-.66-.67-.19-.94.45-.7.87.5.88 2.52 2.66 5.18 2.66 2.66 0 4.68-1.78 5.18-2.66.24-.42-.02-1.06-.7-.87z" fill="#E39400"/>
        <path d="M47.82.29s-.5-.02-.71-.01c-.21 0-.71.01-.71.01-27.41.53-35.67 17.02-35.67 28.45 0 11.11.01 19.28.01 19.28s.44-.45 1.24-1.08c.86-.67 1.81-1.04 1.81-1.04l1.38 9.28L24.3 36.1c.06-.12.18-.19.31-.17l5.41.6c5.44.6 10.91.9 16.37.91v.01c.24 0 .47-.01.71-.01s.47.01.71.01v-.01c5.46-.02 10.93-.31 16.37-.91l5.41-.6c.13-.01.25.06.31.17l9.13 19.08 1.38-9.28s.95.38 1.81 1.04c.81.63 1.24 1.08 1.24 1.08s.01-8.16.01-19.28C83.49 17.31 75.23.82 47.82.29z" fill="#F9E073"/>
    </g>
</svg>