<svg id="customer" width="110" height="122" 
    xmlns="http://www.w3.org/2000/svg">
    <g fill-rule="nonzero" fill="none">
        <path d="M107.74 43.62C105.84 19.06 89.93-.26 55 1.42 19.93-.11 4.27 19.06 2.36 43.62 1.12 59.53.03 121.97.03 121.97h109.95c-.01.01-1.01-62.43-2.24-78.35z" fill="#D3D3D3"/>
        <path d="M19.51 107.53C13 85.19 13 39.39 13 39.39l84-.33s0 41.49-4.88 68.19l-72.61.28z" fill="#6D4C41"/>
        <path d="M11.43 112.09v9.89h87.14v-9.89c0-15.17-21.39-22.87-43.24-22.84-21.72.03-43.9 6.78-43.9 22.84z" fill="#F5F5F5"/>
        <path d="M55 83.82h-9.08v12.6l-5.1 9.71c-.16.3.06.66.4.66h27.54c.34 0 .56-.36.4-.66l-5.1-9.71v-12.6H55z" fill="#E59900"/>
        <ellipse cx="42" cy="40.11" rx="42" ry="39.5" transform="translate(13)" fill="#6D4C41"/>
        <path d="M55 8.28c-24.33 0-30.7 18.86-30.7 45.36S43.17 88.22 55 88.22c11.83 0 30.7-8.08 30.7-34.58S79.33 8.28 55 8.28z" fill="#FCC21B"/>
        <path d="M44.45 54.73c0 2.84-1.9 5.15-4.26 5.15-2.35 0-4.27-2.3-4.27-5.15 0-2.85 1.91-5.15 4.27-5.15 2.36-.01 4.26 2.3 4.26 5.15M65.44 54.73c0 2.84 1.9 5.15 4.27 5.15 2.35 0 4.26-2.3 4.26-5.15 0-2.85-1.91-5.15-4.26-5.15-2.36-.01-4.27 2.3-4.27 5.15" fill="#444"/>
        <path d="M64.23 72.11H55h-9.23c-1.06 0-1.51.71-.81 1.78.98 1.49 4.61 4.36 10.04 4.36 5.43 0 9.06-2.87 10.04-4.36.7-1.07.25-1.78-.81-1.78z" fill="#513F35"/>
        <path d="M59.46 64.27c-1.57.44-3.2.66-4.46.66-1.26 0-2.89-.22-4.46-.66-.67-.19-.94.45-.69.87.5.88 2.5 2.64 5.15 2.64 2.65 0 4.65-1.77 5.15-2.64.24-.43-.02-1.06-.69-.87z" fill="#E59600"/>
        <path d="M64.26 29.25c-3.23 3.1-19.25 17.54-41.32 21.31v-29.6s9.53-18.91 32.4-18.91c22.87 0 32.4 19.39 32.4 19.39v29.12s-14.98-5.75-22.51-21.12c-.19-.38-.67-.48-.97-.19z" fill="#6D4C41"/>
        <path d="M55.42 16.62c9.72 0 20.97-2.7 30.28-5.49-1.45-1.55-2.58-2.49-3.9-3.56-19.57 5.81-34.89 5.53-53.59 0-1.7 1.1-3.12 2.58-3.9 3.56 9.49 2.92 21.17 5.49 31.11 5.49z" fill="#F5F5F5"/>
    </g>
</svg>