<svg id="customer" width="88" height="122" 
    xmlns="http://www.w3.org/2000/svg">
    <g fill-rule="nonzero" fill="none">
        <path d="M2 39.39s0 45.8 6.51 68.14l72.6-.29C86 80.55 86 39.06 86 39.06l-84 .33zm22.52 10.66l9.87 2.6-9.87-2.6z" fill="#6D4C41"/>
        <path d="M44 .61C20.8.61 2 18.29 2 40.11c0 21.81 18.8 39.5 42 39.5s42-17.68 42-39.5C86 18.3 67.2.61 44 .61zM24.52 50.05l9.87 2.6-9.87-2.6z" fill="#6D4C41"/>
        <path d="M.43 112.09v9.89h87.14v-9.89c0-15.17-21.39-22.87-43.24-22.84-21.72.03-43.9 6.78-43.9 22.84z" fill="#651FFF"/>
        <path d="M43.95 84.25h-9.08v9.59c0 4.34 3.7 7.86 8.26 7.86h1.65c4.56 0 8.26-3.52 8.26-7.86v-9.59h-9.09z" fill="#E59900"/>
        <path d="M43.89 7.57c-24.35 0-30.72 18.87-30.72 45.39 0 26.51 18.89 34.6 30.72 34.6 11.83 0 30.72-8.09 30.72-34.6S68.24 7.57 43.89 7.57zM24.52 50.05l9.87 2.6-9.87-2.6z" fill="#FCC21B"/>
        <path d="M53.07 28.43c-3.23 3.11-19.29 17.58-41.42 21.35V20.11S21.2 1.16 44.12 1.16c22.92 0 32.48 19.43 32.48 19.43v29.19s-15.02-5.76-22.56-21.17a.61.61 0 0 0-.97-.18z" fill="#6D4C41"/>
        <path d="M48.56 62.69c-1.57.45-3.2.66-4.46.66-1.26 0-2.89-.22-4.46-.66-.67-.19-.94.45-.7.87.5.88 2.51 2.65 5.16 2.65 2.65 0 4.66-1.77 5.16-2.65.23-.43-.03-1.06-.7-.87z" fill="#E59600"/>
        <path fill="#010101" opacity=".54" d="M69.44 113.54h3V122h-3zM15.35 113.54h3V122h-3z"/>
        <path d="M43.79 72.75c5.46 0 10.31 6.88 9.86 4.7-.45-2.22-4.74-7.66-9.95-7.66-5.21 0-8.91 5.82-9.35 7.66-.44 1.85 3.98-4.7 9.44-4.7z" fill="#A66F00"/>
        <path d="M43.88 78.67c3.1 0 5.85 3.9 5.59 2.66-.26-1.26-2.69-4.35-5.65-4.35-2.96 0-5.05 3.3-5.3 4.35-.25 1.05 2.26-2.66 5.36-2.66z" fill="#A66F00"/>
        <g fill="#444">
            <path d="M63.23 54.05c0 2.84-1.9 5.15-4.26 5.15-2.35 0-4.27-2.3-4.27-5.15 0-2.85 1.91-5.16 4.27-5.16 2.36 0 4.26 2.31 4.26 5.16M33.39 54.05c0 2.84-1.9 5.15-4.26 5.15-2.35 0-4.27-2.3-4.27-5.15 0-2.85 1.91-5.16 4.27-5.16 2.35 0 4.26 2.31 4.26 5.16M54.95 51.55l6.06-1.8M61.26 58.1l-6.24-1.41"/>
        </g>
        <path fill="#FCC21B" d="M21.99 57.68h46v3.1h-46z"/>
    </g>
</svg>