<?xml version="1.0" encoding="UTF-8"?>
<svg viewBox="0 0 1440 900" version="1.1" xmlns="http://www.w3.org/2000/svg" xmlns:xlink="http://www.w3.org/1999/xlink">
	<g id="Slide-386" stroke="none" stroke-width="1" fill="none" fill-rule="evenodd" transform="translate(0.000000, 0.000000)" font-family="DINAlternate-Bold, DIN Alternate" font-size="100" font-weight="bold">
		<svg xmlns="http://www.w3.org/2000/svg" viewBox="0 0 501 324" id="xz" x="342" y="205" width="757" height="490">
			<path d="M250.46.1Q373.67.1 496.89 0c3.62 0 4.34.77 4.34 4.36q-.18 157.7 0 315.4c0 3.35-.37 4.46-4.23 4.46q-246.42-.21-492.85 0c-3.44 0-4.09-.7-4.09-4.11Q.21 162.14 0 4.19C0 .14 1.36 0 4.54 0Q127.5.16 250.46.1zm63.83 46.51a.83.83 0 0 0-.5-.38c-.63-1-1.27-2.08-1.91-3.12-2.21-2.82-6-3-8.6-5.25-1.1-1.79-1.82-3.88-3.86-4.94.29-2.88-1.93-3.7-3.92-4.4-3-1.06-6.25-.6-9.39-.4-.93-.82-1.72-1.91-3.2-1.64a1.15 1.15 0 0 0-.73-1.52c-.25-.34-.51-.68-.76-1-1.08-5.43-2.78-6.58-8.37-5.65a7 7 0 0 0-4.07.62l-2.88-.47a6.45 6.45 0 0 0-4.67-1.49 4.12 4.12 0 0 0-4.3-2.47 4 4 0 0 0-3.94.36c-4.36-.26-8.73-.56-13.09-.74-1.59-.06-3.31-1.71-4.79.27a2.53 2.53 0 0 0-3.43.44c-.85-1.39-1 .06-1.47.35-1 .08-1.37.82-1.52 1.71-1.9 3.38-4.95 4.49-8.65 4.68-2.9.16-6-.15-8.32 2.31A8.63 8.63 0 0 0 207 29c-1.12.29-1.38 1.23-1.63 2.18-12.28 1.67-14.49 14.13-22.14 20.82-1.11 1-1.39 3.31-1 5.2a1.4 1.4 0 0 0-.27 2c-.4 1.16-.81 2.32-1.22 3.47a2.13 2.13 0 0 0-1.51 2.4c-1.79 1.68-3 3.62-2.91 6.21-1.3 3.55.72 7.37-.63 10.82-3.89 10-.24 20-.36 29.92.13 1 .25 2.08.38 3.12-.54 1.92.55 3.52 1 5.26 3.52 13.82 10.38 26.66 11.94 41.05a93.51 93.51 0 0 0 18 46.24c3.29 4.46 2.61 6.18-2.42 8.73h-4.25a5.13 5.13 0 0 0-3.93-.41 4.75 4.75 0 0 0-3.92-.14c-2.68-.25-5.17.16-7.21 2.12l-.83.5c-2.27.88-3.63 2.76-5 4.59l-1 .48-4.87 1.86-2.1.62a1.51 1.51 0 0 0-1.9.38l-3.1.51c-4.68-.51-8.83.58-12.15 4.11l-1.88 1.47c-4.51 1.89-9.86 2.09-13.07 6.55l-2.89 1.86a26 26 0 0 0-7.93 2.43l-2.08.53a31.1 31.1 0 0 0-11.57 3.89l-2.42 1.09a7.7 7.7 0 0 0-4.49 2l-2.52.94a2.67 2.67 0 0 0-2.57 1 10.78 10.78 0 0 0-4.47 2.68A2.3 2.3 0 0 0 96 257l-4.91 4.35A2.61 2.61 0 0 0 89 263l-1.85 1.41a2.47 2.47 0 0 0-2 1.64l-1 .51a2.37 2.37 0 0 0-2.22 1.4 11.32 11.32 0 0 0-6.94 7 2.32 2.32 0 0 0-1.35 2.2c-3.49 3-6.92 6.1-8.88 10.43a9.48 9.48 0 0 0-1.71 7.5c-.27 2.13-.55 4.26-.82 6.39l-2 .9-2.08.5a3 3 0 0 0-2.92.48 7.61 7.61 0 0 0-4.1 1.31 23 23 0 0 0-8.39 4.18c-3 1.29-3.91 4.15-4.92 6.9-.9 2.32-3.78 4.16-1.76 7.19 1.82.06 3.65.17 5.47.17h147.12c10.8 0 21.6-.13 32.4-.2l7 .05h3.09c8.82.05 17.64.17 26.47.16q32.19-.06 64.4-.23l10.13.07c2 .06 4 .16 6 .17H496c1.88 0 3.51.29 3.47-2.65-.29-23.14.59-46.27-.22-69.4.18-5.46.29-10.91.56-16.36.24-4.86-1.88-7.95-6.09-10.4-11.1-6.49-23.22-10.59-35-15.54-4.06-1.72-8-3.92-12.67-3.88a3.94 3.94 0 0 0-3-.56 246.29 246.29 0 0 0-44.25-12.42c-22.92-4.2-46.58-4.69-68.63-13.36-.48-1.22-1.16-2.32-1-3.76A94 94 0 0 0 328 151a1.86 1.86 0 0 0 .64-2l.59-.88c3.36-2.49 3-6.21 2.55-9.53-1.17-8.71.22-16.87 3.38-25 4.09-10.55 2.29-14-8.47-18.56l-.52-6.9a7.67 7.67 0 0 0 .46-4.75c.76-1.44-.19-1.91-1.3-2.3l-1.3-3c1.31-1.63 1-2.91-.83-3.88 1.07-6.07-1.92-10.66-5.52-15 0-2.79-.08-5.56-1.62-8-.3-1.55-.23-3.23-1.59-4.4z" fill="#fdfdfd" />
			<path class="xz-cls-2" d="M221.07 322.89c-10.8.07-21.6.2-32.4.2H41.55c-1.82 0-3.65-.11-5.47-.17.29-2.47 2.18-4.55 1.76-7.19 1-2.75 1.87-5.61 4.91-6.9a12 12 0 0 0 8.4-4.18 7.61 7.61 0 0 1 4.1-1.31c1.18 1.09 2.15 1 2.92-.48l2.08-.5c1.3 1.11 1.77.42 2-.9.27-2.13.55-4.26.82-6.39 1.58-2.27 1.66-4.88 1.71-7.5 2-4.33 5.39-7.41 8.88-10.43 1.3-.21 1.61-1 1.35-2.2a11.32 11.32 0 0 1 6.94-7c1.21.28 2-.09 2.22-1.4l1-.51c1.27.19 2-.32 2-1.64L89 263c1.28.2 2.08-.23 2.14-1.63L96 257c1.23.17 2-.26 2.1-1.6a10.78 10.78 0 0 1 4.47-2.68c1.16.47 2.1.37 2.57-1l2.52-.94a3.83 3.83 0 0 0 4.49-2l2.42-1.09a22.82 22.82 0 0 0 11.57-3.89l2.08-.53c3.06.54 5.61-.57 7.93-2.43l2.89-1.85c4.19-2.51 9.32-3.17 13.07-6.56L154 231l12.15-4.11 3.1-.51c.89 1.15 1.43.59 1.9-.38l2.1-.62c2.12.7 3.8.21 4.87-1.86l1-.48c2.72-.39 4.16-2.18 5-4.59l.83-.5c2.39-.77 5.23 0 7.21-2.12a4.75 4.75 0 0 1 3.92.14c1.16 1.57 2.48 1.59 3.93.41h4.25a3.07 3.07 0 0 0 4.82-1.67c1.23-3.82 3.06-2.79 5.69-1.75 3 1.16 4.57 5.61 8.82 3.75.12-.05.7.66.91 1.09 1.7 3.63 5.05 6 7.05 9.51 2.44 4.35 6.28 8 9.58 11.74 6.31 7.19 15.15 8.83 24.46 6.37 2.74-.72 4.21.61 6 2.29 2.05 1.95-.17 3.42-.71 4.19-2.72 3.93-.64 5.21 2.74 6.24a19.9 19.9 0 0 0 5.84 1c9.34 0 18.69-.85 27.27-4.43 4.34-1.8 9.37-3.23 12.56-7.33a16 16 0 0 0 8.77-7.49c2.17-1.07 2.67-3.15 3.29-5.23.33-1.11 1.33-2.21 2.48-1.94.63.15 1.2 1.56 1.36 2.48a11.37 11.37 0 0 1-.18 3.43c-1.18 8.1-2.46 16.19-3.55 24.31-.23 1.7-1 3.61.45 5.24-3.3 1.76 2.29 2.36.51 3.93-3.68 3.24-3.31 8.05-4.24 12.16-2.87 12.7-4.56 25.63-6.11 38.57q-32.21.12-64.4.23c-8.83 0-17.65-.11-26.47-.16-1-4.62-2.08-9.24-3.12-13.86 1.2-6.48-1.12-12.7-1.51-19.07-.18-3 .19-6.41-2.14-9a11.79 11.79 0 0 0-.79-6c0-5.43-1.35-10.65-2.54-15.9 2.86-6.17-2-12-.86-18.08.17-.86.37-2.24-1-2.46-1.5-.25-1.82 1-2.13 2.19a22.64 22.64 0 0 0 .95 15.2c-2.27.12-3.24.94-1.71 3.13-1.17 4.47-.12 8.81.76 13.15a2.06 2.06 0 0 0-.26 2.73 2.85 2.85 0 0 0 .08 3.13l.33 5c0 9.87-.24 19.77 3.62 29.16.3 3-2 6 .14 9zm32.13-62.78c2.46 0 4.46-.08 6.44 0 2.85.14 2.5-2.71 3.8-4 .85-.84.34-2.42-.55-2.43-3.54 0-5.61-3.13-9-3.73-5.71-1-11.89-.64-16.75-4.81-1.49-1.28-3.08-.75-4.57.24-1.26.84-2 2.31-1.29 3.4 2.08 3.05 2.78 7.75 8.09 7.39a4.5 4.5 0 0 1 3.25.87c3.11 3.45 7.04 3.29 10.58 3.07z" />
			<path class="xz-cls-2" d="M499.25 251.06c.81 23.13-.07 46.26.22 69.4 0 2.94-1.59 2.66-3.47 2.65H338.15c-2 0-4-.11-6-.17.43-2.56-1.19-5.24-.72-7.29.66-2.94 2.73-5.51.71-8.63l2 .06.13.16-.17-.12c.34-2.31.67-4.61 1-6.92 2.75-11.58 3.61-23.38 4.1-35.23 1.93-5.52 2.79-11.1.86-16.83a11.1 11.1 0 0 0 1.21-10.14q.18-4 .35-7.92c.75-2.3.24-4.57-.22-6.81-1.38-6.64-3.45-13.21-4-19.91-.45-4.92-1.48-9-5.05-12.44-1.44-3.12-3.15-6.18-2.21-9.83 6.12-.46 10.71 5.1 16.92 4.3 2 4.5 8.48 4.87 9.42 10.41.11.63.77 2.74 2.35 1.44.87-.72 1.88-2-.16-3.11s-3-3.07-1.43-4.81 4.83-2.16 5.92-.7c3.25 4.37 8.06 2.27 11.66 2.72 7.59.94 15.31.84 23 2.37 4.71 1 9 4.18 14.3 2.52 2.34-.73 4.51.25 5.73 2.8a3.89 3.89 0 0 0 2.24 1.83c6.41 1.83 12.84 3.58 19.3 5.2a3 3 0 0 0 3.74-1.69 3.93 3.93 0 0 1 3 .56c3.19 1.67 4.14 5 4.12 7.89 0 .87-4.22 0-6.41-.94a1.39 1.39 0 0 0-1.23.13 1 1 0 0 0 .31 1.68c3.29 1 6.08 3.9 10.22 1.31 2.84-1.77 5.9-2.91 10.23-1.59 3.51 1.06 6.57 3.2 10.26 3.82 6.11 1 7.74 3.11 7.51 9.3-.14 3.87.54 6.45 5.07 6.81a6.29 6.29 0 0 1 4.31 2.18c2.42 2.82 7.3 11.32 8.14 14.86.01.23.34.44.59.68zm-61.87-38.34l.36-.82c-.28-.12-.61-.39-.81-.31s-.26.5-.38.78z" />
			<path class="xz-cls-3" d="M319.26 247.4c-3.19 4.1-8.22 5.53-12.56 7.33-8.58 3.58-17.93 4.39-27.27 4.43a19.9 19.9 0 0 1-5.84-1c-3.38-1-5.46-2.31-2.74-6.24.54-.77 2.76-2.24.71-4.19-1.76-1.68-3.23-3-6-2.29-9.31 2.46-18.15.82-24.46-6.37-3.3-3.76-7.14-7.39-9.58-11.74-2-3.55-5.35-5.88-7.05-9.51-.21-.43-.79-1.14-.91-1.09-4.25 1.86-5.85-2.59-8.82-3.75-2.63-1-4.46-2.07-5.69 1.75a3.07 3.07 0 0 1-4.82 1.67c5-2.55 5.71-4.27 2.42-8.73a93.51 93.51 0 0 1-18-46.24c-1.56-14.39-8.42-27.23-11.94-41-.44-1.74-1.53-3.34-1-5.26 2.11.15.55 3.28 3.41 3.51-2.19-4.39 4-6.59 2.19-11-.33-.8.75-1.29 1.57-1.6 2.73-1 3.23-3.73 2.86-5.76-.51-2.81-.31-5.65-.91-8.4-1.24-5.66-1.48-11.13 2.32-16.08.69-.89 1.54-2.48.28-3.1-4.31-2.13-.76-4.2.38-5.08a41.09 41.09 0 0 1 13.65-6.37 49.3 49.3 0 0 1 20.45-1.91c-1.73-2.05-2.4-3.37-4.89-2.87-1.94.4-5.1.24-6.06-1-3.19-4.05-6.87-2.48-10.34-1.55a96.5 96.5 0 0 0-11 4.17c-.74.3-1.43 1.12-2.14.21a1.54 1.54 0 0 1 .37-2.22c3.64-2.53 6.53-6.23 11.28-7 8.45-1.41 16.87-1.89 25.36.42-3.93-3.56-8.15-6.47-13.51-7.3-1.78-.28-3.63-1.16-3.42-2.94.23-2 2.43-1.08 3.79-1.2 5.95-.5 11.14 2.72 16.84 3.58.58-6.44-3.89-9.25-10.08-11.72 6.48-1.06 9.63-.29 10.81 2.36.62 1.36.44 3.18 2.76 2.1 1.1-.51 3.12.17 3.14-1.71 0-1.57-.31-3.51-2-4.26-6.66-3-13.08-7.22-21-4.53 2.29-2.46 5.42-2.15 8.32-2.31 3.7-.19 6.75-1.3 8.65-4.68.05 3.86 3 4.47 5.84 5.59 4.43 1.77 8.46 4.14 9 9.66a5.65 5.65 0 0 1-3.37-2.7c-.68-1.15-1.32-2.61-2.93-1.73-1.92 1.06-.59 2.5-.08 3.81.82 2.13 1.57 4.29 2.36 6.43-.85 1.83.16 4.23-1.75 5.74-.9-1.75-1.78-3.51-2.73-5.23-.83-1.53-2.65-2.08-3.71-1.37-1.64 1.1.25 1.9.83 2.94 1.24 2.24 2.94 4.37 3 7.14l-1.36.53A81.26 81.26 0 0 0 228 44.2c-1.29-.7-2.84-2.83-4.1-.71-1.15 1.92 1.66 1.78 2.45 2.79s2 2.21 2.85 3.38c2 2.7.43 3.4-2 3.6-2.06-1.79-5.23-.46-7.23-2.57a1.4 1.4 0 0 0-2.17 0c-.75 1.08.21 2 1 2.35 2.76 1.11 5.62 2 8.44 2.94.3.05.61.1.92.13-.95 3.87-3.48 5.24-7.35 5-3.69-.18-7.57-.58-11.05 3.36 5.46-.88 4.81 3.14 5 5.43.32 3.8-2.57.5-3.88 1.16-1.16.59-2.56.68-3.78 1.17-1.44.57-2.7 1.53-2.75 3.22s1.65 1.22 2.5 1.8c1.05.72 2.65 2 2.56 2.8-.56 5 2.91 4 5.63 4 2.43 0 3.76 1.21 3 3.31-1.52 4 .57 5.67 4.14 6.64-6.87 5.63-8 8.56-4.83 11.49-2.72 2.49-6.6.78-9.73 2.09.46 1.89 1.76 2.44 2.74 2.35 3.5-.35 6.34 1.84 9.63 2.22a5.62 5.62 0 0 1 4.63 4.61c.41 2.13-2.52 1.42-3.88 2-4.12 1.66-8.47 2.75-12.66 4.27s-4.84 6.13-7.48 9c-.56.61.78 1.73 1.81 1.89a11.27 11.27 0 0 0 4.91-.39 73.14 73.14 0 0 1 27.24-2.53c2.08.2 3.64.53 3.9 2.8s2.93 4.09.1 6.69c-5.22 4.78-3.6 12.13-6.62 18.2-2.12-.78-4.82-1.3-6.36 1.76s-3.44 6.2-.56 10c1.68 2.21 3.55 1.08 5.27 1.65 2.88.94 6.71-2.23 8.8 2-2.56.26-5.92-1.06-6.35 3.39-.05.54-1.13 1.29-1.82 1.41-4.22.75-7.22 3.87-11 5.54-2.63 1.16-2.47 4.32-2.1 7 .35 2.46 1.64 3.91 4.35 3.65a4.23 4.23 0 0 1 4.78 2.81c2.61 8 10.47 7 16.19 9.68a10.28 10.28 0 0 0 1-1.49h3l.38 2.07c-1.11.56-3.37.84-2.68 2.23 1.35 2.77-.15 7 3.87 8.37 3.81 1.29 7.17 4.32 11.85 2.48a6.83 6.83 0 0 1 6.53 1.09c-4.86.78-5.81 6.12-9.22 7.53-4 1.65-3 4.54-3.28 7-.32 2.85 6 7.35 7.16 5.62 2.48-3.63 6.49-2.58 9.42-4.37l2 .15c3.15 3.38 5.73 1.36 7.88-1.13 1.67-1.93 3.22-3.83 5.83-4.36 6.23-1.27 5.12-8.34 9-11.44a11.82 11.82 0 0 0-.74-1.17l.14-1.92c5-.73 4.41-4.7 4.71-8.15l.24-4.87c2.37 1.43 3.65 3.8 5 6 .54.88.92 1.84-.54 2.86-3.85 2.71-3.7 5.23-.06 7.73.47.32.34 1.52.48 2.3-2.23.52-4 3.39-6.83 1.14a1.38 1.38 0 0 0-1.94 1c-.18.7.08 1.17.84 1.5 3.42 1.46 6.51.07 7.91-3.65a27.14 27.14 0 0 0 3.37-.52c.77-.21.39-2.35 1.85-1.46 1.18.73.63 2 .28 3.15-.88 2.95-3.06 4.53-5.58 5.95-2.21 1.25-4.8 3.29-4.31 5.57.41 1.94 3.73 2.46 5.86 3.51 4.35 2.12 9.63 2.7 12.7 7.1zm-96-108.23c.14-2.81-1.57-3.32-3.84-3-4.57.54-9.15 1-13.7 1.69-3.4.48-7 0-10.14 1.76-1 .54-2.37 1.32-1.84 2.59.65 1.54 1.94.49 2.93.07 3.45-1.46 6.92-1.91 10.46-.33-2.73 3.7-1.37 10.18-7.77 11.45-.2 0 0 1.31-.28 1.89-1.68 3.65 0 7.54-1.28 11.54-1.42 4.3 3.95 6.06 7 8.42 2.21 1.72 4.15.85 5.78-.76 3-3 6.21-5.66 7.83-9.9 1.31-3.42 2.67-7.28 7-8.43 2.25-.59 2.76-3 2.49-4.38-.68-3.47.53-6.23 1.41-9.37.47-1.66 2.94-3.51 1-6.08-2.08 1.75-4.17 3.46-7.08 2.84zm-18.32-27a24.17 24.17 0 0 0-2.5.16c-2.32.44-9.2 8.19-8.76 10.28.21 1 .17 4.06 2.19 2.79 3.45-2.17 7.62-2.34 10.91-4.66 2-1.41 2.74-3.06 1.94-5.55-.72-2.31-1.87-3.51-3.81-3.07z" />
			<path class="xz-cls-4" d="M228.13 56.11c-.31 0-.62-.08-.92-.13v-2.72c2.46-.2 4.07-.9 2-3.6-.89-1.17-1.94-2.22-2.85-3.38s-3.6-.87-2.45-2.79c1.26-2.12 2.81 0 4.1.71 2 1.08 3.93 2.3 5.89 3.46.34.84.78 2.15 1.72 1.71s.48-1.57-.36-2.23c0-2.77-1.73-4.9-3-7.14-.58-1-2.47-1.84-.83-2.94 1.06-.71 2.88-.16 3.71 1.37.95 1.72 1.83 3.48 2.73 5.22.47 1.51.94 3 1.67 5.39.69-2.14.45-4.15 2.65-4.14l.08.11c0 1.07.19 2.08 1.6 1.83 1.11-.21 1-1.12.82-2 2-4.34 5.49-7.92 6.57-12.74 2.71-.29 1.15-3.47 3-4.37l2 .27c-.12 1.35-.23 2.7-.35 4.05-2.62 4-3.73 9-7.5 12.46 6.53-.71 9.92-5.61 12.63-10.35 3-5.32 1-11.46.36-17.26a6.45 6.45 0 0 1 4.67 1.49c-.64 5.45 1.71 11.12-1.55 16.41-1 1.6.67 2 2.12 2.28 3.18.67 4.72-3 6.66-3 5.6-.05 7.54-3.65 9.58-7.62 1.48-.27 2.27.82 3.2 1.64l-.92 1.18a2.25 2.25 0 0 0-1.81 2.91L282 35.07a2.85 2.85 0 0 0-2.78 2l-1.13 1c-3.29 0-4 3.27-6 4.84l-3-.82c-8.58-.62-12.95 6.94-19.83 9.81 3.38-.5 7.15 4.43 9.81-.79l4 .08c.15 1.39 1 1.88 2.3 1.76s1.6-.85 1.61-1.94c1.12-1.4 2.64-1 4.1-.93.1 1.06.4 2 1.73 1.79s1.22-1.35 1.5-2.25a8.17 8.17 0 0 1 5.58.11c2.18.51 2.18-1 2.28-2.45.41-2.53 2.35-2 4-2 1.26 1.77-3.66 5.68 2 5.91 3.47 1.65 6.74.25 10.12-.46 4.34-.91 8.85-2.78 13 .79-3.51.81-7.35-.42-11 1.39 1.29 2 4.71.06 4.61 3.28-4 .8-8.31-2.27-12.52 1 3.36 1 6.42 2.55 9.5 2.58 8.16.09 13 5.5 18.25 10.33-.85.08-1 2-2.65.4a10.82 10.82 0 0 0-7.4-3.41c-1.6-.22-3.42.23-4.62-1.25-3.13-3.87-7.58-4.29-12-4.71-1.92-.55-3.67-1.92-5.87-1.44.45 3.47 4.6 3.55 5.39 6.49-1.4 1.41-1 3.09-.43 4.6 1.29 3.38 4.18 6 4 10.2-.07 1.24 2.46 3.19 4.54.87 7 3.68 11.56 9.94 16.46 15.84L317 99.2a8.81 8.81 0 0 1-5.22-4.2c-.53-.94-1-3-2.69-2.8-6.08.84-8.34-1.43-6.1-7.9-3.5 3.68-7.9 2.37-11.43 4-.85-2.26 2.32-2.08 1.73-3.8-1.53-1.37-3.15 1-5.33-.8 4.84-.49 4.54-3.75 4.14-6.7-.72-5.34-5-9.19-6.39-14.29-.09-.32-.82-.47-1.27-.67-3.25-1.46-6.73-2.55-8.64-6a1.42 1.42 0 0 0-1.17-.22c-3.31 5.21-4.69.72-6.62-1.53-.88 1.12-1.73 3-2.44 3-5-.34-4.08 2.51-3.9 5.76.11 2 0 4.66-3.1 5.51-1.66.45-2 2.34-2.63 3.91-1 2.4-2.54 5.41-5.69 4.84-1.68-.31-2.95-1.35-4.19.45-1.57 2.27-1.23 4.88-.59 7.21.44 1.64 2.25 2 4.14 1.87 4.36-.3 10.18 4.53 8.71 7.58-2.09 4.28.15 4.9 3.12 5.72 1.47.41 2 1.27 1.05 2.52-2.52 3.17-1.76 4.21 2.16 3.85 1.23-.12 2.54.65 3.82 1-1.86 2.46-6.22 1-7.34 4.63 0-1.38-.65-2.08-2.06-2-2.87-.33-4.77 1.58-6.9 3-3.77-.35-5.59 2.6-6.88 5.07-1.5 2.88 1.46 4.65 3.38 6.39.57.52 1.92 1.14 1.86 1.27-2.19 5.11 3 8 3.6 12.23-.86.18-1.95-.25-2.42.85-.08.17.42.82.72.87 1.29.22 1.49-.78 1.7-1.72 3.31.2 5.85 2.08 8.23 4.1 1.72 1.46 3.32 1.58 4.62-.14 2.37-3.12 5.18-3.57 8.7-2.31 1.47.53 3.84-1.18 2.82-1.73-3.77-2-1.08-4.57-1.32-6.81l4.78-.4a5.4 5.4 0 0 0 1.58 3c4.76 4.89 4.73 4.92-1.81 7.64 1.13.85 3.33 1.62 2 3.1-4.83 5.35-.5 6 3.37 7.14a3.3 3.3 0 0 1 1.92 1.47c2.45 5.21 9.57 1.49 12.14 6.4a2.68 2.68 0 0 0 .85-.35c3.34-2.26 7-.73 10.78-.69-.7-3.89-2.29-8 3.47-9.46 1.24-.3 1.32-2.64.67-3.6-2-2.95-1.33-5.06 1.27-7.11a2.61 2.61 0 0 0 .66-2.24c-3.26-10.93-2-22.28-3.17-33.4 0-.18.78-.44 1.2-.66 3.46 1 3.87 3.31 2.43 6.09-.81 1.56-1.55 2.57 0 4.28 1.88 2.06 2.77-1 4.21-.38a16.43 16.43 0 0 0 2.81 4.43c5 4.89 4 12.17-1.82 15.91-1.24-2 .64-3.77.55-5.7a3 3 0 0 0-2-3c-1.43-.56-1.69.38-1.92 1.41-2.42 2.28-1.38 7.19 1.91 9 3.83 3.92 2.8 9.95 6.13 14.08l-.59.88c-1.24.35-1.86.9-.64 2a94 94 0 0 1 1.16 23.74c-.13 1.44.55 2.54 1 3.76 0 .83-.05 1.66-.07 2.5-.94 3.65.77 6.71 2.21 9.83-2.06 1.75-.74 3.63-.21 5.47s1.69 3 2.24 4.81c2.56 8.39 1.95 17.07 2.66 25.6.33 3.94 1.58 4.3 4.63 3.28q-.17 4-.35 7.92c-3.32-.21-3.88 2-4.5 4.63-.76 3.15 1 4.4 3.29 5.55 1.93 5.73 1.07 11.31-.86 16.83-3-.09-5.9-.15-7.32 3.24-1.42-1.63-.68-3.54-.45-5.24 1.09-8.12 2.37-16.21 3.55-24.31a11.37 11.37 0 0 0 .18-3.43c-.16-.92-.73-2.33-1.36-2.48-1.15-.27-2.15.83-2.48 1.94-.62 2.08-1.12 4.16-3.29 5.23-.9-.65-2.55-1.25-2.59-2-.34-5.09-5.22-7.24-7-11.32-.71-1.64-2.21-2.18-3.48-3.08 4.09-4.47 4.54-10.23 4.36-15.43-.15-4.15-.78-7.34 3.32-9.87 2.7-1.66 1.4-5.4 3.26-7.89 1.32-1.78-2.09-2-2.64-3.49-.3-.82.14-2.15-1.46-2.24-1.93 4.15-5.72 1.87-8.7 2.47 1.82-5.53-4.75-9.07-3.48-14.52 0-.2-1-1-1.46-.92-1.1.07-1.1 1.14-1 1.9.37 3.34-.76 6.51-1 9.77-.24 2.91-2.17 4.22-4.62 5.09-1.07.39-2.26 1.12-3.07-.21a4.63 4.63 0 0 1 .4-5.86c.15-.17-.28-.84-.45-1.27v-2.75c1.11-.39 2.2-.78 1-2.2-.82-2 1.29-5-2.23-6-.83-3.59-2.24-7.11-5.07-9.36-8.74-7-18-13.08-29.77-13.47-1.43-5.15-6.61-3.3-9.77-5.21-1.61-1-3.41-1.87-4.45.67-.75 1.85-3.44 3.83.25 5.63 1.75.85 1.47 1.91.34 3.54-3.21 4.59-1.79 9.72-.76 14.6.43 2.07 2.41 1.65 4.14 1.23 3-.74 6-2.16 9.2-1.29-.44 3-4.79 1.63-5.21 4.65-2.32-.26-3.71 1.86-5.78 2.26a1.65 1.65 0 0 0-2.18.9c-1.23 0-2.56-.16-3.09 1.42h-3.1l.15-1.51c.11-2.35-1.7-3-3.34-3.77-.79-.39-2.67-.65-1.88-1.61 3-3.69-.72-7.34.29-10.94.21-.78 0-2.35.17-2.36 5.69-.57 1.78-4.87 2.76-7.23.6-1.44-.16-3.53.58-4.83 3.28-5.73-2.87-12.33 1.84-17.81-2.72-3.38-1.3-8-3.4-11.55a7.54 7.54 0 0 1 0-1c2.09-2.41 6.57-1.21 7.71-4.8 1.09-3.4 2.3-6.47 5.49-8.57 1.36-.89 1.19-2.74.17-4a1.76 1.76 0 0 0-2.67-.1c-1.92 3.23-6.17 3.5-8.1 5.94-3.57 4.52-5.84 1.31-8.72-.26-4.3-2.35.66-3.5.63-5.29a7.36 7.36 0 0 1 .49-1.91c1.64-.44 2.48 2.86 4.31 1 2.56-2.57 2.3-6.09 2.51-9.28.17-2.52-2.52-4.55-4.15-4.14-3.83 1-4.66-2.58-7-3.54-1.64-.66-1.71-1.82-.44-2.49 4.09-2.14 2.14-5 .81-7.41-.68-1.26-1.56-3-.83-3.57 2.86-2.1 1.09-5.79 3.54-7.79-1.7-1.1-3.23-.67-4.69-.74zm97 118.24v5.93c0 .87.4 1.64 1.48 1.31.88-.28 1.5-1.36.91-1.84-1.52-1.26-.96-3.28-2.36-5.4zm2.16 12.39a10.51 10.51 0 0 0-.55-2.25c-.44-.74-1.38-1.43-1.82-.4-.54 1.33 1.01 1.63 2.4 2.65zm9.35 62c-.16.28-.41.53-.42.78s.23.53.35.79c.15-.25.41-.49.42-.74s-.18-.49-.32-.79zm-28.09-80.24l.21-.68-.37.11z" />
			<path class="xz-cls-2" d="M211.92 23.85c7.89-2.69 14.31 1.53 21 4.53 1.67.75 2 2.69 2 4.26 0 1.88-2 1.2-3.14 1.71-2.32 1.08-2.14-.74-2.76-2.1-1.18-2.65-4.33-3.42-10.81-2.36 6.19 2.47 10.66 5.28 10.08 11.72-5.7-.86-10.89-4.08-16.84-3.58-1.36.12-3.56-.79-3.79 1.2-.21 1.78 1.64 2.66 3.42 2.94 5.36.83 9.58 3.74 13.51 7.3-8.49-2.31-16.91-1.83-25.36-.42-4.75.79-7.64 4.49-11.28 7a1.54 1.54 0 0 0-.37 2.22c.71.91 1.4.09 2.14-.21a96.5 96.5 0 0 1 11-4.17c3.47-.93 7.15-2.5 10.34 1.55 1 1.22 4.12 1.38 6.06 1 2.49-.5 3.16.82 4.89 2.87a49.3 49.3 0 0 0-20.45 1.91 41.09 41.09 0 0 0-13.65 6.37c-1.14.88-4.69 3-.38 5.08 1.26.62.41 2.21-.28 3.1-3.8 5-3.56 10.42-2.32 16.08.6 2.75.4 5.59.91 8.4.37 2-.13 4.75-2.86 5.76-.82.31-1.9.8-1.57 1.6 1.84 4.41-4.38 6.61-2.19 11-2.86-.23-1.3-3.36-3.41-3.51-.13-1-.25-2.08-.38-3.12a8.21 8.21 0 0 0 .75-2.24c.2-7.72.43-15.42 3.82-22.61.47-1 .68-2.91-.26-3.25-5.48-2-1.3-3.84-.09-5.74.72-1.14 3.06-1.8 1.87-3.46s-2.48.88-4 .66c-.86-1.22.3-3-1.12-4.1-.13-2.59 1.12-4.53 2.91-6.21 1.61-.1 1.93-1 1.51-2.4.41-1.15.82-2.31 1.22-3.47 1.15-.52 1.57-1.13.27-2-.41-1.89-.13-4.24 1-5.2 7.65-6.67 9.86-19.13 22.12-20.85 1.47 0 2-.77 1.63-2.18a8.63 8.63 0 0 1 4.86-5.08z" />
			<path class="xz-cls-5" d="M331.88 268.2c1.42-3.39 4.36-3.33 7.32-3.24-.49 11.85-1.35 23.65-4.1 35.23-3-.07-5.62 0-2.92 4.1.42.63 0 1.8 0 2.72 2 3.12-.05 5.69-.71 8.63-.47 2.05 1.15 4.73.72 7.29l-10.19-.07c1.55-12.94 3.24-25.87 6.11-38.57.93-4.11.56-8.92 4.24-12.16 1.82-1.57-3.77-2.13-.47-3.93zm1.52 4.8c3 3.13 1 4-2.47 4.84 2.72.08 4.46.81 5-1.19.32-1.26.82-3-2.53-3.65z" />
			<path class="xz-cls-3" d="M499.25 251.06c-.22-.24-.58-.45-.65-.73-.84-3.54-5.72-12-8.14-14.86a6.29 6.29 0 0 0-4.31-2.18c-4.53-.36-5.21-2.94-5.07-6.81.23-6.19-1.4-8.27-7.51-9.3-3.69-.62-6.75-2.76-10.26-3.82-4.33-1.32-7.39-.18-10.23 1.59-4.14 2.59-6.93-.33-10.22-1.31a1 1 0 0 1-.31-1.68 1.39 1.39 0 0 1 1.23-.13c2.19.92 6.4 1.81 6.41.94 0-2.93-.93-6.22-4.12-7.89 4.64 0 8.62 2.16 12.68 3.88 11.75 5 23.87 9.05 35 15.54 4.21 2.45 6.33 5.54 6.09 10.4-.3 5.45-.41 10.9-.59 16.36zM330.09 181c0-.84.05-1.67.07-2.5 22 8.67 45.71 9.16 68.63 13.36A246 246 0 0 1 443 204.32a3 3 0 0 1-3.74 1.69c-6.46-1.62-12.89-3.37-19.3-5.2a3.89 3.89 0 0 1-2.24-1.83c-1.22-2.55-3.39-3.53-5.73-2.8-5.29 1.66-9.59-1.57-14.3-2.52-7.64-1.53-15.36-1.43-23-2.37-3.6-.45-8.41 1.65-11.66-2.72-1.09-1.46-4.43-1-5.92.7s-.5 3.78 1.43 4.81 1 2.39.16 3.11c-1.58 1.3-2.24-.81-2.35-1.44-.94-5.54-7.46-5.91-9.42-10.41-6.13.8-10.72-4.76-16.84-4.34zM269.12 42.15l3 .82c2.69-.77 6.34-.33 6-4.84l1.13-1c1.38-.07 2.89 0 2.78-2l1.38-2.86c1.72-.27 1.76-1.6 1.81-2.91l.92-1.18c3.14-.2 6.35-.66 9.39.4 2 .7 4.21 1.52 3.92 4.4L289.13 43.3c-1.52-.11-2.92-.07-2.89 2-1.66 0-3.6-.52-4 2a2.77 2.77 0 0 0-2.24 2.49 8.17 8.17 0 0 0-5.58-.11c-1.17-.51-2.32-.83-3.23.46-1.46-.11-3-.47-4.1.93-1.3.22-2.69-1.67-3.91.18l-4-.08c.2-1.49-.59-4.14 1.65-3.86 3.33.42 6.3-.42 9.45-1-1.55-1.16-1.02-2.74-1.16-4.16z" />
			<path class="xz-cls-5" d="M321.16 125.07c.23-1 .49-2 1.92-1.41a3 3 0 0 1 2 3c.09 1.93-1.79 3.66-.55 5.7 5.79-3.74 6.78-11 1.82-15.91a16.43 16.43 0 0 1-2.81-4.43c-.31-1.12.36-1.9.91-2.72 1.37-.33 3.33-.17 3.2-2.18-.09-1.53-1.78-.9-2.81-1.12.36-.91.44-2.17 1.1-2.65 3.43-2.48 2.5-4.86.11-7.34l.61-1c10.76 4.52 12.56 8 8.47 18.56-3.16 8.14-4.55 16.3-3.38 25 .45 3.32.81 7-2.55 9.53-3.33-4.13-2.3-10.16-6.12-14.08zm10.14-13c.1 1.26-1 3.12 1 3.47.91.16.79-1.45.85-2.35.84-1.56 2.11-2.88 2.09-4.87s-.14-4.16-2.84-4.21c-2.5 0-3.47 1.46-3 3.89-.33 1.53-.41 2.93 1.71 3.11.06.29.13.61.19.89z" />
			<path class="xz-cls-3" d="M282.91 26.48c-2 4-4 7.57-9.58 7.62-1.94 0-3.48 3.69-6.66 3-1.45-.31-3.11-.68-2.12-2.28 3.26-5.29.91-11 1.55-16.41l2.88.47 1.16 1.38c-.35 3.73-1.55 7.36-1.22 11.22 2.8-.75 3.4-3.4 4.46-5.43 1.31-2.49 1.67-5.15-2.18-6l1.85-1.77c5.59-.93 7.29.22 8.37 5.65-.23.7 0 1.07.76 1a1.15 1.15 0 0 1 .73 1.55zM311.35 51.57c-4.1-3.57-8.61-1.7-13-.79-3.38.71-6.65 2.11-10.12.46a4 4 0 0 1 1.93-3.05c1.89.16 2.7-1.84 4.24-2.19 4.57-1 4.74-6.69 8.83-8.14 2.6 2.2 6.39 2.43 8.6 5.25-3.68 1.17-8 1-10.7 5 4.32-.6 8.54-.59 12.61-1.86a.79.79 0 0 1 .49.38l-.65.62.81-.49c1.36 1.17 1.29 2.85 1.59 4.4l-2.51.8z" />
			<path class="xz-cls-2" d="M243.68 32.11c-.49-5.52-4.52-7.89-9-9.66-2.8-1.12-5.79-1.73-5.84-5.59.15-.89.47-1.63 1.52-1.71.57.22 1.11.33 1.47-.35a2.53 2.53 0 0 1 3.43-.44c3.7 2.41 9.41.7 11.82 5.77-.09 1.68-2.94 3.21-.29 5.05-1.84 2.65 1.32 7.24-3.4 8.78z" />
			<path class="xz-cls-3" d="M320.23 70.16C315 65.32 310.14 59.91 302 59.82c-3.08 0-6.14-1.62-9.5-2.58 4.21-3.27 8.5-.2 12.52-1 1-.24.82 2.19 2.25 1 3.64-.26 6.83 1.82 10.4 1.94 3.6 4.35 6.59 8.94 5.52 15-.05 1.29-.1 2.58-.16 3.88-2.84.45-3.43-1.6-4-3.64 2.36-.83 2.78-2.26 1.2-4.26zM176.34 71.24c1.42 1.06.26 2.88 1.12 4.1 1.5.22 2.8-2.31 4-.66s-1.15 2.32-1.87 3.46c-1.21 1.9-5.39 3.78.09 5.74.94.34.73 2.24.26 3.25-3.39 7.19-3.62 14.89-3.82 22.61a8.21 8.21 0 0 1-.75 2.24c.12-10-3.53-20 .36-29.92 1.33-3.45-.73-7.27.61-10.82zm-.7 20c.32-1.54 2.2-2.76.59-5.11a4.45 4.45 0 0 0-.59 5.09zM261.43 16.94c.63 5.8 2.67 11.94-.36 17.26-2.71 4.74-6.1 9.64-12.63 10.35 3.77-3.45 4.88-8.41 7.5-12.46 2.78-.43 3-2.57 3.21-4.74a27.93 27.93 0 0 0-2-12.88 4.11 4.11 0 0 1 4.28 2.47z" />
			<path class="xz-cls-6" d="M247.13 20.13c-2.41-5.07-8.12-3.36-11.82-5.77 1.48-2 3.2-.33 4.79-.27 4.36.18 8.73.48 13.09.74-.72 2.39-1.36 4.79.16 7.14-.74 2.1 1 3.81.91 5.8-1.81.9-.25 4.08-3 4.37 1.84-4.36-2.17-7.55-2.38-11.51.03-.2-1.13-.33-1.75-.5z" />
			<path class="xz-cls-4" d="M303.28 37.86C299.19 39.31 299 45 294.45 46c-1.54.35-2.35 2.35-4.24 2.19l-1.08-4.89 10.29-10.38c2.04 1.08 2.76 3.15 3.86 4.94z" />
			<path class="xz-cls-5" d="M228.05 309.07c1 4.62 2.09 9.24 3.12 13.86h-3.09c-2.74-1.58-2.62-4.88-3.92-7.09-3.8.48 1.56 5.51-3.13 5.37-2.14-3 .16-6-.14-9 2.33-1.15 4.31-3.13 7.16-3.14zm-4.49 4.39l.2-.63c-.12 0-.33.06-.33.1a2 2 0 0 0 .13.53z" />
			<path class="xz-cls-2" d="M319 74.44c.6 2 1.19 4.08 4 3.63h1l1.3 3c-.52 1.3-.22 2.14 1.3 2.3a7.67 7.67 0 0 1-.46 4.75 1.41 1.41 0 0 0-.95 0c-.89-1.7-.59-4.17-3.1-4.83-3.93-1.53-5.72-5.92-9.75-7.31-.11-.62-.21-1.25-.31-1.88 1.26-.54 2.5-1.19 4-.89.65 1.13 1.9.93 2.97 1.23zM253.35 22c-1.52-2.35-.88-4.75-.16-7.14a4 4 0 0 1 3.95-.36 27.93 27.93 0 0 1 2 12.88c-.23 2.17-.43 4.31-3.21 4.74.12-1.35.23-2.7.35-4.05.59-2.81.21-5.07-2.93-6.07z" />
			<path class="xz-cls-4" d="M317.65 59.18c-3.57-.12-6.76-2.2-10.4-1.94.52-1.78 1.3-3.28 3.53-3.16a2.59 2.59 0 0 0 2.74-2.14l2.51-.8c1.54 2.48 1.63 5.25 1.62 8.04z" />
			<path class="xz-cls-3" d="M325.19 88.12a1.41 1.41 0 0 1 .95 0q.27 3.45.52 6.9c-.2.34-.4.68-.61 1-4.62-.79-7.27-3.79-8.85-8 2.66.5 5.31 3.27 7.99.1z" />
			<path class="xz-cls-2" d="M313.79 46.23c-4.07 1.27-8.29 1.26-12.61 1.86 2.74-4 7-3.81 10.7-5 .64 1.06 1.28 2.1 1.91 3.14z" />
			<path class="xz-cls-4" d="M221 321.22c4.69.14-.67-4.89 3.13-5.37 1.3 2.21 1.18 5.51 3.92 7.09l-7-.05c.01-.56-.05-1.11-.05-1.67z" />
			<path class="xz-cls-3" d="M152.13 232.44c-3.75 3.39-8.88 4.05-13.07 6.56 3.21-4.47 8.56-4.67 13.07-6.56zM166.16 226.86L154 231c3.33-3.56 7.48-4.65 12.16-4.14zM126.16 243.81a22.82 22.82 0 0 1-11.57 3.89 31.1 31.1 0 0 1 11.57-3.89zM51.15 304.65a12 12 0 0 1-8.4 4.18 23.1 23.1 0 0 1 8.4-4.18zM136.17 240.85c-2.32 1.86-4.87 3-7.93 2.43a26 26 0 0 1 7.93-2.43zM64.74 287.57c0 2.62-.13 5.23-1.71 7.5a9.48 9.48 0 0 1 1.71-7.5zM184.12 218.42c-.87 2.41-2.31 4.2-5 4.59 1.37-1.83 2.73-3.71 5-4.59zM192.16 215.8c-2 2.16-4.82 1.35-7.21 2.12 2.05-1.92 4.53-2.37 7.21-2.12zM37.84 315.73c.42 2.64-1.47 4.72-1.76 7.19-2.02-3.03.86-4.87 1.76-7.19zM178.13 223.49c-1.07 2.07-2.75 2.56-4.87 1.86zM112.17 248.79a3.83 3.83 0 0 1-4.49 2 7.7 7.7 0 0 1 4.49-2z" />
			<path class="xz-cls-5" d="M324 78.07h-1c.06-1.3.11-2.59.16-3.88 1.84.97 2.15 2.25.84 3.88z" />
			<path class="xz-cls-3" d="M200 216.35c-1.45 1.18-2.77 1.16-3.93-.41a5.13 5.13 0 0 1 3.93.41z" />
			<path class="xz-cls-4" d="M273.05 18.28l-1.85 1.77-1.06.23L269 18.9a7 7 0 0 1 4.05-.62z" />
			<path class="xz-cls-3" d="M58.17 302.86c-.77 1.44-1.74 1.57-2.92.48a3 3 0 0 1 2.92-.48zM207 29c.36 1.41-.16 2.15-1.63 2.18.23-1 .49-1.94 1.63-2.18zM180.76 62.63c.42 1.39.1 2.3-1.51 2.4a2.13 2.13 0 0 1 1.51-2.4zM182.25 57.18c1.3.85.88 1.46-.27 2a1.4 1.4 0 0 1 .27-2z" />
			<path class="xz-cls-5" d="M326.6 83.38c-1.52-.16-1.82-1-1.3-2.3 1.11.39 2.06.86 1.3 2.3z" />
			<path class="xz-cls-3" d="M105.16 251.71c-.47 1.35-1.41 1.45-2.57 1a2.67 2.67 0 0 1 2.57-1zM98.12 255.37c-.09 1.34-.87 1.77-2.1 1.6a2.3 2.3 0 0 1 2.1-1.6zM91.11 261.32c-.06 1.4-.86 1.83-2.14 1.63a2.61 2.61 0 0 1 2.14-1.63zM87.12 264.36c-.06 1.32-.77 1.83-2 1.64a2.47 2.47 0 0 1 2-1.64zM231.88 14.8c-.36.68-.9.57-1.47.35.45-.29.59-1.74 1.47-.35zM84.13 266.51c-.2 1.31-1 1.68-2.22 1.4a2.37 2.37 0 0 1 2.22-1.4zM171.16 226c-.47 1-1 1.53-1.9.38a1.51 1.51 0 0 1 1.9-.38z" />
			<path class="xz-cls-5" d="M328 151c-1.22-1.13-.6-1.68.64-2a1.86 1.86 0 0 1-.64 2z" />
			<path class="xz-cls-3" d="M75 274.94c.26 1.17 0 2-1.35 2.2a2.32 2.32 0 0 1 1.35-2.2zM62.21 301.46c-.19 1.32-.66 2-2 .9z" />
			<path class="xz-cls-2" d="M314.44 46.74l-.81.49.65-.62z" />
			<path class="xz-cls-4" d="M282.18 25c-.78 0-1-.33-.76-1 .25.28.51.62.76 1z" />
			<path class="xz-cls-6" d="M313.12 187.09c3-.6 6.77 1.68 8.7-2.47 1.6.09 1.16 1.42 1.46 2.24.55 1.51 4 1.71 2.64 3.49-1.86 2.49-.56 6.23-3.26 7.89-4.1 2.53-3.47 5.72-3.32 9.87.18 5.2-.27 11-4.36 15.43 1.27.9 2.77 1.44 3.48 3.08 1.76 4.08 6.64 6.23 7 11.32 0 .72 1.69 1.32 2.59 2a16 16 0 0 1-8.77 7.49c-3.07-4.38-8.35-5-12.67-7.12-2.13-1.05-5.45-1.57-5.86-3.51-.49-2.28 2.1-4.32 4.31-5.57 2.52-1.42 4.7-3 5.58-5.95.35-1.16.9-2.42-.28-3.15-1.46-.89-1.08 1.25-1.85 1.46a27.14 27.14 0 0 1-3.37.52c-.14-.78 0-2-.48-2.3-3.64-2.5-3.79-5 .06-7.73 1.46-1 1.08-2 .54-2.86-1.36-2.24-2.64-4.61-5-6-1-3.25-1-8-3.22-9.42-3.56-2.35-6.65-5.17-10-7.76.09-2.22 3.64-5.57-1.94-5.94.24-1.69-.28-2.67-2.1-3.24a3.93 3.93 0 0 1-2.83-4.6l2-.07c3.91.77 8.41.33 9.92 5.6.46 1.64 1.91 1.63 3.09.3l3.22 1c.17.43.6 1.1.45 1.27a4.63 4.63 0 0 0-.4 5.86c.81 1.33 2 .6 3.07.21 2.45-.87 4.38-2.18 4.62-5.09.26-3.26 1.39-6.43 1-9.77-.08-.76-.08-1.83 1-1.9.49 0 1.51.72 1.46.92-1.27 5.45 5.3 9 3.48 14.52-1.2.07-2.3.33-2.59 1.71a.67.67 0 0 0 .84.85c1.45-.28 1.67-1.4 1.79-2.58zm-3.72 25.78c4.28-3.12 5.17-6 4.21-11.25-3.15 2.58-3 6.8-4.21 11.25z" />
			<path class="xz-cls-3" d="M253.2 260.11c-3.54.22-7.47.38-10.55-3.06a4.5 4.5 0 0 0-3.25-.87c-5.31.36-6-4.34-8.09-7.39-.75-1.09 0-2.56 1.29-3.4 1.49-1 3.08-1.52 4.57-.24 4.86 4.17 11 3.81 16.75 4.81 3.36.6 5.43 3.7 9 3.73.89 0 1.4 1.59.55 2.43-1.3 1.3-.95 4.15-3.8 4-2.01-.12-4.01-.01-6.47-.01z" />
			<path class="xz-cls-4" d="M228.05 309.07c-2.85 0-4.83 2-7.16 3.19-3.86-9.4-3.63-19.3-3.62-29.17 2.2-1.32 4.37-2.69 7.13-2.1 2.33 2.6 2 6 2.14 9 .39 6.38 2.71 12.6 1.51 19.08zm-6.86-25c-1.84 6.12 1.33 11.78 1.57 17.84 0 1.13-1.16 5.06 2 4.24 3.61-1-.33-2.77-.39-4.27a16.76 16.76 0 0 0-.18-2.46c-1.02-5.1-2.02-10.21-3-15.33zM221.07 259.1c1.19 5.25 2.52 10.47 2.54 15.9-1.47-2.55-3.82-3-6.49-2.77-.88-4.34-1.93-8.68-.76-13.15h1.69c1.01 1.46 2.02.43 3.02.02z" />
			<path class="xz-cls-3" d="M221.07 259.1c-1 .41-2 1.44-3 0 1.52-1 1.28-2.1 0-3.16a22.64 22.64 0 0 1-.95-15.2c.31-1.17.63-2.44 2.13-2.19 1.33.22 1.13 1.6 1 2.46-1.25 6.12 3.68 11.92.82 18.09z" />
			<path class="xz-cls-5" d="M217.12 272.23c2.67-.27 5 .22 6.49 2.77a11.79 11.79 0 0 1 .79 6c-2.76-.59-4.93.78-7.13 2.1l-.33-5c.95-.25 1.87-.69 1.92-1.75.07-1.35-1.13-1.22-2-1.38a2.06 2.06 0 0 1 .26-2.74zm4.7 2.94c-.16-.26-.27-.65-.47-.71a.88.88 0 0 0-.78.3.61.61 0 0 0 .58.93c.22 0 .43-.33.67-.52z" />
			<path class="xz-cls-6" d="M218.07 256c1.26 1.06 1.5 2.12 0 3.16h-1.69c-1.55-2.27-.58-3.09 1.69-3.16z" />
			<path class="xz-cls-4" d="M216.86 275c.87.16 2.07 0 2 1.38-.05 1.06-1 1.5-1.92 1.75a2.85 2.85 0 0 1-.08-3.13z" />
			<path class="xz-cls-5" d="M341.62 230c-3.05 1-4.3.66-4.63-3.28-.71-8.53-.1-17.21-2.66-25.6-.55-1.8-1.74-3.1-2.24-4.81s-1.85-3.72.21-5.47c3.57 3.4 4.6 7.52 5.05 12.44.6 6.7 2.67 13.27 4 19.91.51 2.27 1.02 4.54.27 6.81zM340.06 248.13c-2.27-1.15-4.05-2.4-3.29-5.55.62-2.61 1.18-4.84 4.5-4.63a11.1 11.1 0 0 1-1.21 10.18z" />
			<path class="xz-cls-4" d="M332.16 307c0-.92.44-2.09 0-2.72-2.7-4.09-.06-4.17 2.92-4.1-.34 2.31-.67 4.61-1 6.92z" />
			<path class="xz-cls-3" d="M437.38 212.72l-.83-.35c.12-.28.18-.71.38-.78s.53.19.81.31z" />
			<path class="xz-cls-4" d="M334.09 307.11l.17.12-.13-.16-.04.04z" />
			<path class="xz-cls-6" d="M239.1 114.06c2.1 3.56.68 8.17 3.4 11.55-4.71 5.48 1.44 12.08-1.84 17.81-.74 1.3 0 3.39-.58 4.83-1 2.36 2.93 6.66-2.76 7.23-.13 0 0 1.58-.17 2.36-1 3.6 2.76 7.25-.29 10.94-.79 1 1.09 1.22 1.88 1.61 1.64.81 3.45 1.42 3.34 3.77l-1.26.36-1.73-.37c-2.09-4.26-5.92-1.09-8.8-2-1.72-.57-3.59.56-5.27-1.65-2.88-3.78-1.05-6.79.56-10s4.24-2.54 6.36-1.76c3-6.07 1.4-13.42 6.62-18.2 2.83-2.6.15-4.5-.1-6.69s-1.82-2.6-3.9-2.8a73.14 73.14 0 0 0-27.31 2.52 11.27 11.27 0 0 1-4.91.39c-1-.16-2.37-1.28-1.81-1.89 2.64-2.92 3.31-7.54 7.48-9s8.54-2.61 12.66-4.27c1.36-.54 4.29.17 3.88-2a5.62 5.62 0 0 0-4.63-4.61c-3.29-.38-6.13-2.57-9.63-2.22-1 .09-2.28-.46-2.74-2.35 3.13-1.31 7 .4 9.73-2.09-3.15-2.93-2-5.86 4.83-11.49-3.57-1-5.66-2.63-4.14-6.64.8-2.1-.53-3.35-3-3.31-2.72.05-6.19 1.06-5.63-4 .09-.85-1.51-2.08-2.56-2.8-.85-.58-2.56-.13-2.5-1.8s1.31-2.65 2.75-3.22c1.22-.49 2.62-.58 3.78-1.17 1.31-.66 4.2 2.64 3.88-1.16-.19-2.29.46-6.31-5-5.43 3.48-3.94 7.36-3.54 11.05-3.36 3.87.19 6.4-1.18 7.35-5 1.46.07 3-.36 4.69.8-2.45 2-.68 5.69-3.54 7.79-.73.54.15 2.31.83 3.57 1.33 2.45 3.28 5.27-.81 7.41-1.27.67-1.2 1.83.44 2.49 2.39 1 3.22 4.5 7 3.54 1.63-.41 4.32 1.62 4.15 4.14-.21 3.19.05 6.71-2.51 9.28-1.83 1.83-2.67-1.47-4.31-1-.11-.9.33-2-.87-2.49-.19-.07-.86.46-.91.77-.21 1.33.76 1.59 1.79 1.72a7.36 7.36 0 0 0-.49 1.91c0 1.79-4.93 2.94-.63 5.29 2.88 1.57 5.15 4.78 8.72.26 1.93-2.44 6.18-2.71 8.1-5.94a1.76 1.76 0 0 1 2.67.1c1 1.28 1.19 3.13-.17 4-3.19 2.1-4.4 5.17-5.49 8.57-1.14 3.59-5.62 2.39-7.71 4.8-1.5-4-1.53-9.36-8-9-2.95-.93-5.42-3.31-8.8-3-.93.09-2.18-.37-2.61.82s.83 1.55 1.51 2.21c1.72 1.65 5.44 2.4 5.29 4.45-.31 4.18 2.88 6.6 3.66 10.09.31 1.41 1.19 2.72 2.74 2.16 2.09-.76.2-2.23.15-3.37a3.34 3.34 0 0 0-.83-1.76c-.9-1.12-1.64-2.54-.75-3.63 1.45-1.78 2.39 1 3.78.84a5.07 5.07 0 0 0 3.92 1.09z" />
			<path class="xz-cls-4" d="M287.07 188c3.31 2.59 6.4 5.41 10 7.76 2.19 1.45 2.22 6.17 3.22 9.42l-.24 4.87c-3.48 1.61-5.41 4.12-4.71 8.15-.05.64-.09 1.28-.14 1.92-2.14 0-5.75 1.43-5.39 2 3 4.45-3.79 4.34-3.23 7.51.09.53-1.41 1.27-2.48 1.15-6.3-.68-8.81 1-10.91 7.47l-2-.15c-1.58-2.45-2.68-5.2-5.46-6.8-2.45-1.4-1.61-2.91.45-4 1.17-.61 2.48-.95 3.64-1.56 2.81-1.47 3.13-4.6 3-6.92-.13-3-3 .11-4.31-.85-1.72-1.21-4.52.09-5.54-3.19-.91-3 .87-3.68 2.41-4.93 1.24-1 2.08-2.12 1.72-3.82v.06l4.79-2c2.47 1.87-.67 2.65-.8 4-.07.79-.65 1.72-.4 2.31.36.83 1.43.7 2.2.3 1.57-.85 3.78-.18 4.91-2 .76-1.22 1.37-1.29 2.77-.57 3.18 1.64 7.14-.7 7.56-4.26a16.52 16.52 0 0 0-.88-7.33c-.39-1.16.35-3-1.51-3.22-1.59-.22-2 1.25-2.69 2.41-1.63 2.63-3.65 4.88-7 2 2.95-4.05 8.03-5.73 11.02-9.73z" />
			<path class="xz-cls-6" d="M223.23 139.17c2.91.62 5-1.09 7-2.89 1.93 2.57-.54 4.42-1 6.08-.88 3.14-2.09 5.9-1.41 9.37.27 1.39-.24 3.79-2.49 4.38-4.35 1.15-5.71 5-7 8.43-1.62 4.24-4.83 6.93-7.83 9.9-1.63 1.61-3.57 2.48-5.78.76-3-2.36-8.38-4.12-7-8.42 1.32-4-.4-7.89 1.28-11.54.26-.58.08-1.85.28-1.89 6.4-1.27 5-7.75 7.77-11.45zM267.07 206c.36 1.7-.48 2.83-1.72 3.82-1.54 1.25-3.32 2-2.41 4.93 1 3.28 3.82 2 5.54 3.19 1.36 1 4.18-2.18 4.31.85.1 2.32-.22 5.45-3 6.92-1.16.61-2.47 1-3.64 1.56-2.06 1.07-2.9 2.58-.45 4 2.78 1.6 3.88 4.35 5.46 6.8-2.93 1.79-6.94.74-9.42 4.37-1.18 1.73-7.48-2.77-7.16-5.62.29-2.44-.73-5.33 3.28-7 3.41-1.41 4.36-6.75 9.22-7.53a6.83 6.83 0 0 0-6.53-1.09c-4.68 1.84-8-1.19-11.85-2.48-4-1.35-2.52-5.6-3.87-8.37-.69-1.39 1.57-1.67 2.68-2.23 1.65 2.58 4.32 1.62 6.63 1.91 1.39 1.64 1.78.48 2.15-.76l1.85-.29c1.29 1.69 1.74.53 2.18-.64 2.38-.34 4.15-2.52 6.75-2.34z" />
			<path class="xz-cls-2" d="M239.09 174.15l1.73.37c.24.51.06 1.42 1.11 1.15h3.1c0 2.28.54 4.87-2.74 5.48-3.75.7-7.3 2.17-10.76 3.3-4.5 1.46-7 4.06-10.31 6.82 2.25 1.29 4 2.24 6.34 1.27s4.14-.06 5.72 1.64c2.4 6.59 8 8.05 14.06 8.83l-3.21 3.13a10.28 10.28 0 0 1-1 1.49c-5.72-2.65-13.58-1.69-16.19-9.68a4.23 4.23 0 0 0-4.78-2.81c-2.71.26-4-1.19-4.35-3.65-.37-2.64-.53-5.8 2.1-7 3.76-1.67 6.76-4.79 11-5.54.69-.12 1.77-.87 1.82-1.41.44-4.45 3.8-3.13 6.36-3.39z" />
			<path class="xz-cls-6" d="M273.15 238.22c2.1-6.44 4.61-8.15 10.91-7.47 1.07.12 2.57-.62 2.48-1.15-.56-3.17 6.2-3.06 3.23-7.51-.36-.54 3.25-2 5.39-2a11.82 11.82 0 0 1 .74 1.17c-3.92 3.1-2.81 10.17-9 11.44-2.61.53-4.16 2.43-5.83 4.36-2.19 2.52-4.77 4.54-7.92 1.16z" />
			<path class="xz-cls-2" d="M204.91 112.12c1.94-.44 3.05.76 3.78 3 .8 2.49.07 4.14-1.94 5.55-3.29 2.32-7.46 2.49-10.91 4.66-2 1.27-2-1.77-2.19-2.79-.44-2.09 6.44-9.84 8.76-10.28a24.17 24.17 0 0 1 2.5-.14zM223.23 139.17l-16.13 2.73c-3.54-1.58-7-1.13-10.46.33-1 .42-2.28 1.47-2.93-.07-.53-1.27.88-2 1.84-2.59 3.15-1.77 6.74-1.28 10.14-1.76 4.55-.64 9.13-1.15 13.7-1.69 2.27-.27 3.98.24 3.84 3.05z" />
			<path class="xz-cls-5" d="M267.07 206c-2.6-.2-4.37 2-6.78 2.34a1.83 1.83 0 0 0-2.18.64l-1.85.29a1.93 1.93 0 0 0-2.15.76c-2.31-.29-5 .67-6.63-1.91-.13-.69-.25-1.38-.38-2.07 3.41-2.16 7.62.19 11-2l10.09-1-1.12 3z" />
			<path class="xz-cls-4" d="M243.68 32.11l-.24 1.89c-1.17 3.3.61 7-1.3 10.2-3.29-1.1.83-5.15-2.48-6.24-.79-2.14-1.54-4.3-2.36-6.43-.51-1.31-1.84-2.75.08-3.81 1.61-.88 2.25.58 2.93 1.73a5.65 5.65 0 0 0 3.37 2.66z" />
			<path class="xz-cls-6" d="M258.12 204.09c-3.4 2.17-7.61-.18-11 2h-3l3.21-3.13 9.73-.77zM227.19 53.26v2.72c-2.82-1-5.68-1.83-8.44-2.94-.77-.31-1.73-1.27-1-2.35a1.4 1.4 0 0 1 2.17 0c2.08 2.11 5.21.78 7.27 2.57zM295.3 218.2c-.7-4 1.23-6.54 4.71-8.15-.3 3.45.29 7.42-4.71 8.15zM305.12 224.08c-1.4 3.72-4.49 5.11-7.91 3.65-.76-.33-1-.8-.84-1.5a1.38 1.38 0 0 1 1.94-1c2.79 2.25 4.6-.62 6.83-1.14zM239.66 37.92c3.31 1.09-.81 5.14 2.48 6.24 0 .24.07.49.09.74-2.2 0-2 2-2.65 4.14-.73-2.37-1.2-3.88-1.67-5.39 1.91-1.5.9-3.9 1.75-5.73zM235.27 47.14c.84.66 1.33 1.77.36 2.23s-1.38-.87-1.72-1.71z" />
			<path class="xz-cls-5" d="M268.47 107.53c-1.28-.36-2.59-1.13-3.82-1-3.92.36-4.68-.68-2.16-3.85 1-1.25.42-2.11-1.05-2.52-3-.82-5.21-1.44-3.12-5.72 1.47-3.05-4.35-7.88-8.71-7.58-1.89.13-3.7-.23-4.14-1.87-.64-2.33-1-4.94.59-7.21 1.24-1.8 2.51-.76 4.19-.45 3.15.57 4.67-2.44 5.69-4.84.67-1.57 1-3.46 2.63-3.91 3.09-.85 3.21-3.56 3.1-5.51-.18-3.25-1.1-6.1 3.9-5.76.71.05 1.56-1.87 2.44-3 1.93 2.25 3.31 6.74 6.62 1.53a1.42 1.42 0 0 1 1.17.22c1.91 3.42 5.39 4.51 8.64 6 .45.2 1.18.35 1.27.67 1.41 5.1 5.67 9 6.39 14.29.4 3 .7 6.21-4.14 6.7 2.18 1.75 3.8-.57 5.33.8.59 1.72-2.58 1.54-1.73 3.8 3.53-1.63 7.93-.32 11.43-4-2.24 6.47 0 8.74 6.1 7.9 1.72-.24 2.16 1.86 2.69 2.8A8.8 8.8 0 0 0 317 99.2l-.09 2.85c-.42.23-1.22.49-1.2.67 1.21 11.12-.09 22.47 3.17 33.4a2.61 2.61 0 0 1-.66 2.24c-2.6 2-3.28 4.16-1.27 7.11.65 1 .57 3.3-.67 3.6-5.76 1.45-4.17 5.57-3.47 9.46-3.81 0-7.44-1.57-10.78.69a2.68 2.68 0 0 1-.85.35c-2.57-4.91-9.69-1.19-12.14-6.4a3.3 3.3 0 0 0-1.92-1.47c-3.87-1.12-8.2-1.79-3.37-7.14 1.34-1.48-.86-2.25-2-3.1 6.54-2.72 6.57-2.75 1.81-7.64a5.4 5.4 0 0 1-1.58-3c1.17-2 3.25-1.65 5.07-2 4.31 2.92 8.33.44 12.34-.83.85-.27.36-1.4-.44-1.91-.18-3.35-2.35-1.79-4-1.61l-7 .73a19.47 19.47 0 0 0-6.85.18c-.64-1.48-2-1-3.13-1.15.27-3.07-.33-6.54.5-9.11 1.06-3.26 5.65-2.39 8.69-3.37.21-.06.3-.51.44-.78-2.71-2.91-6.06-3.48-9.79-2.66h-1.72c-.87-1.57-2.13-1.24-3.44-.71z" />
			<path class="xz-cls-6" d="M277.18 131.21c.24 2.24-2.45 4.78 1.32 6.81 1 .55-1.35 2.26-2.82 1.73-3.52-1.26-6.33-.81-8.7 2.31-1.3 1.72-2.9 1.6-4.62.14-2.38-2-4.92-3.9-8.23-4.1-.56-4.23-5.79-7.12-3.6-12.23.06-.13-1.29-.75-1.86-1.27-1.92-1.74-4.88-3.51-3.38-6.39 1.29-2.47 3.11-5.42 6.88-5.07.25 1.52-.92 3.77 1 4.37 1.48.47 2.92-1.21 4-2.47s2.39-2.81 2-4.86c1.41-.1 2.06.6 2.06 2 .19 1.37.19 3.85 2.16 2.49 2.58-1.79 2.29 1.67 3.74 1.37-1.39 5.24 3 6.3 6 8.33-6.8-.59-10.59 4.62-15.37 8.22 3.22-.3 6.72 2.61 9.52-1.26a40 40 0 0 1 9.9-.12z" />
			<path class="xz-cls-3" d="M233.28 194.14c-1.58-1.7-3.46-2.6-5.72-1.64s-4.09 0-6.34-1.27c3.31-2.76 5.81-5.36 10.31-6.82 3.46-1.13 7-2.6 10.76-3.3 3.28-.61 2.73-3.2 2.74-5.48.53-1.57 1.86-1.39 3.09-1.41 1.45 1.44 1.79.21 2.18-.9 2.07-.4 3.46-2.52 5.78-2.26 2.13.05 4.86 1.91 4 2.88-2.22 2.61-.42 4.94-.71 7.32-.72 2.13-2.57 1.78-4.2 1.91-4.06 1.52-8.87-.21-12.89 2.93 2.77 3.09 6.3 2.14 9.35 2 4-.2 4.43 1.35 3.29 4.49l-1.66.68a1.88 1.88 0 0 0-2.11.63h-5.2l-2 .57-2.86-.4c-1.58-1.67-2.75.55-4.16.45z" />
			<path class="xz-cls-5" d="M261.29 166.42c-3.25-.88-6.19.54-9.2 1.28-1.73.42-3.71.84-4.14-1.23-1-4.88-2.45-10 .76-14.6 1.13-1.63 1.41-2.69-.34-3.54-3.69-1.8-1-3.78-.25-5.63 1-2.54 2.84-1.65 4.45-.67 3.16 1.91 8.34.06 9.77 5.21l-1.14 1.86a9.22 9.22 0 0 1-1.35.64c-2.53.72-4.71 1.74-4.67 4.9 0 1.66-.17 3.49 1.86 4.16 2.85.94 4.12-1.48 5.76-3 1.27-1.15 2.55-2.49 4.28-1.12a4.41 4.41 0 0 1 1.88 4.35c-.46 2.08-2.42 2.71-4.18 3-2.61.38-4 1.37-3.36 4.21z" />
			<path class="xz-cls-2" d="M317.2 88.09c1.58 4.17 4.23 7.17 8.85 8 2.39 2.47 3.32 4.85-.11 7.33-.66.48-.74 1.74-1.09 2.65a.65.65 0 0 0-.79 0c-1.89-.11-1.75-1.56-2-2.86a7 7 0 0 0-4.46-5.47c-4.9-5.9-9.43-12.16-16.46-15.84-.16-2-4.39-4 0-6 3.13 4.43 8.18 6.63 12 10.26.75 1.85 2.18 2.25 4 1.86z" />
			<path class="xz-cls-6" d="M261.2 149.1l1.14-1.86c11.77.39 21 6.5 29.77 13.47 2.83 2.25 4.24 5.77 5.07 9.36-2.73-.84-3.69-3.22-5.18-5.34-1.3-1.85-1.88-6.54-6.2-3.42-3.5-.75-6.1-3.34-8.72-5.29-4.87-3.64-11.27-3.15-15.88-6.92z" />
			<path class="xz-cls-5" d="M312.34 76c4 1.39 5.82 5.78 9.75 7.31-.22 1.65-1.13 1.75-2.42 1.09a76.22 76.22 0 0 0-7.37-3.63c-4.85-1.83-6.62-7.76-12-8.79-1.24-3.41-3.87-5.06-7.27-5.73-.79-2.94-4.94-3-5.39-6.49 2.2-.48 4 .89 5.87 1.44-.32 1.82 1.44 2.43 2.32 2.69 5 1.52 8.33 5.32 12.26 8.32a1.84 1.84 0 0 0 1.92 2l.06.08c.12 1.34.93 1.86 2.27 1.71z" />
			<path class="xz-cls-6" d="M259.4 181.26c.29-2.38-1.51-4.71.71-7.32.83-1-1.9-2.83-4-2.88.42-3 4.77-1.64 5.21-4.65l.12-.17c3.06.41 3.35.57 2.78 1.58-2.89 5.19 1.08 5.37 4.13 5.18 3.86-.23 5.36 1.41 5.69 4.86l-3.89.23c-1.58.11-3.59-.76-4.1 1.79l-.13.09a15 15 0 0 0-6.52 1.29z" />
			<path class="xz-cls-3" d="M242.23 44.9c0-.25 0-.5-.09-.74 1.91-3.22.13-6.9 1.3-10.2 4.72-1.54 1.56-6.13 3.4-8.78-2.65-1.84.2-3.37.29-5.05.62.17 1.78.3 1.79.5.21 4 4.22 7.15 2.38 11.51-1.08 4.82-4.57 8.4-6.56 12.75l-2.43.12z" />
			<path class="xz-cls-6" d="M269.12 42.15c.14 1.42-.39 3 1.08 4.14-3.15.6-6.12 1.44-9.45 1-2.24-.28-1.45 2.37-1.65 3.86-2.66 5.22-6.43.29-9.81.79 6.88-2.85 11.25-10.41 19.83-9.79z" />
			<path class="xz-cls-3" d="M308.1 72.19c-3.93-3-7.27-6.8-12.26-8.32-.88-.26-2.64-.87-2.32-2.69 4.46.42 8.91.84 12 4.71 1.2 1.48 3 1 4.62 1.25.45 3.44 4.92 3 5.8 6.07-1.45-.3-2.69.35-4 .89l-1.95.12-.06-.08a1.68 1.68 0 0 0-1.83-1.95z" />
			<path class="xz-cls-6" d="M293 66.23c3.4.67 6 2.32 7.27 5.73.28 1.32.56 2.63.85 4-4.42 2-.19 4 0 6-2.08 2.32-4.61.37-4.54-.87.2-4.19-2.69-6.82-4-10.2-.58-1.57-.94-3.25.42-4.66z" />
			<path class="xz-cls-3" d="M267 116c-1.45.3-1.16-3.16-3.74-1.37-2 1.36-2-1.12-2.16-2.49 1.12-3.64 5.48-2.16 7.34-4.62l4.24.1c.89 1.49 2 2.15 3.44.72h1.72c.45 2.75-.87 4-3.5 3.85-3.24-.19-5.34 1.55-7.34 3.81z" />
			<path class="xz-cls-2" d="M277.18 131.21a40 40 0 0 0-10 .09c-.48-.48-.93-1.54-.44-1.61 3.26-.5 5.58-3.89 9.49-2.72 1.42.43 4.07 1.37 4.89-1.58a19.47 19.47 0 0 1 6.85-.18l-.15 2.36-.83 1.26c-1.82.33-3.9 0-5.07 2z" />
			<path class="xz-cls-3" d="M285.8 161.31c4.32-3.12 4.9 1.57 6.2 3.42 1.49 2.12 2.45 4.5 5.18 5.34 3.52 1 1.41 4 2.23 6-1.11.39-1.27 1.2-1 2.21v2.79l-3.22-1c.2-3.58-.23-6.89-3.16-9.49-1.32-1.17-2.88-2.3-3.24-4.26a2.29 2.29 0 0 0-1.78-3.1c-.4-.65-.81-1.28-1.21-1.91z" />
			<path class="xz-cls-6" d="M317.59 97.74a7 7 0 0 1 4.46 5.47c.26 1.3.12 2.75 2 2.86l.39 3.26c-.55.82-1.22 1.6-.91 2.72-1.44-.63-2.33 2.44-4.21.38-1.57-1.71-.83-2.72 0-4.28 1.44-2.78 1-5.12-2.43-6.09l.11-2.86c.17-.49.38-.97.59-1.46z" />
			<path class="xz-cls-5" d="M231.14 104.13c6.46-.38 6.49 5 8 9a7.54 7.54 0 0 0 0 1 5.07 5.07 0 0 1-3.82-1.12c.31-3.82-3.5-5.61-4.18-8.88z" />
			<path class="xz-cls-3" d="M259.07 110.18c.43 2-.83 3.48-2 4.86s-2.47 2.94-4 2.47c-1.91-.6-.74-2.85-1-4.37 2.23-1.38 4.13-3.29 7-2.96z" />
			<path class="xz-cls-5" d="M313.52 51.94a2.59 2.59 0 0 1-2.74 2.14c-2.23-.12-3 1.38-3.53 3.16-1.43 1.19-1.24-1.24-2.25-1 .1-3.22-3.32-1.32-4.61-3.28 3.61-1.81 7.45-.58 11-1.39z" />
			<path class="xz-cls-6" d="M316 73.21c-.88-3-5.35-2.63-5.8-6.07a10.82 10.82 0 0 1 7.4 3.41c1.65 1.63 1.8-.32 2.65-.4q2.37 3-1.25 4.28c-1.07-.29-2.32-.09-3-1.22z" />
			<path class="xz-cls-5" d="M289.13 43.3l1.08 4.89a4 4 0 0 0-1.93 3.05c-5.7-.23-.78-4.14-2-5.91-.07-2.1 1.33-2.14 2.85-2.03z" />
			<path class="xz-cls-6" d="M321.16 125.07l1.92 9c-3.3-1.81-4.34-6.72-1.92-9zM278.09 38.13c.33 4.51-3.32 4.07-6 4.84 2.03-1.57 2.71-4.82 6-4.84z" />
			<path class="xz-cls-3" d="M253.35 22c3.14 1 3.52 3.29 2.94 6.07l-2-.27c.04-2.02-1.68-3.73-.94-5.8z" />
			<path class="xz-cls-6" d="M325.16 174.35c1.4 2.12.87 4.14 2.41 5.4.59.48 0 1.56-.91 1.84-1.08.33-1.45-.44-1.48-1.31-.05-1.73-.02-3.45-.02-5.93zM263.13 51.25c1.22-1.85 2.61 0 3.91-.18 0 1.09-.42 1.82-1.61 1.94s-2.15-.37-2.3-1.76zM271.14 50.14c.91-1.29 2.06-1 3.23-.46-.28.9-.23 2.06-1.5 2.25s-1.63-.73-1.73-1.79zM242.31 45l2.43-.12c.15.83.28 1.74-.83 2-1.41.21-1.59-.8-1.6-1.88zM254.13 138.1c-.21.94-.41 1.94-1.7 1.72-.3 0-.8-.7-.72-.87.47-1.1 1.56-.67 2.42-.85zM327.32 186.74c-1.39-1-2.94-1.32-2.37-2.65.44-1 1.38-.34 1.82.4a10.51 10.51 0 0 1 .55 2.25zM285.19 29.3c-.05 1.31-.09 2.64-1.81 2.91a2.25 2.25 0 0 1 1.81-2.91zM280 49.79a2.77 2.77 0 0 1 2.28-2.45c-.15 1.43-.15 2.96-2.28 2.45zM282 35.07c.11 2.09-1.4 2-2.78 2a2.85 2.85 0 0 1 2.78-2zM298.42 178.3c-.28-1-.12-1.82 1-2.21 1.2 1.43.11 1.82-1 2.21zM250.3 173.32c-.39 1.11-.73 2.34-2.18.9a1.65 1.65 0 0 1 2.18-.9z" />
			<path class="xz-cls-5" d="M336.67 248.78c.14.3.36.57.35.83s-.27.49-.42.74c-.12-.26-.35-.53-.35-.79s.26-.5.42-.78z" />
			<path class="xz-cls-6" d="M308.55 168.5l-.16-.57.37-.11z" />
			<path class="xz-cls-3" d="M241.93 175.67c-1.05.27-.87-.64-1.11-1.15l1.26-.36z" />
			<path class="xz-cls-4" d="M333.4 273c3.35.63 2.85 2.37 2.52 3.65-.53 2-2.27 1.27-5 1.19 3.49-.84 5.51-1.69 2.48-4.84z" />
			<path class="xz-cls-6" d="M329.39 108c-.44-2.43.53-3.94 3-3.89 2.7 0 2.81 2.09 2.84 4.21s-1.25 3.31-2.09 4.87L331.3 112c-.06-.32-.13-.64-.2-1 .1-1.33.11-2.68-1.71-3z" />
			<path class="xz-cls-4" d="M324.45 109.33l-.39-3.26a.65.65 0 0 1 .79 0c1 .22 2.71-.41 2.8 1.12.13 1.97-1.83 1.81-3.2 2.14zM331.3 112l1.87 1.12c-.06.9.06 2.51-.85 2.35-2.02-.31-.92-2.17-1.02-3.47zM329.39 108c1.82.35 1.81 1.7 1.71 3.11-2.1-.21-2.04-1.61-1.71-3.11z" />
			<path class="xz-cls-2" d="M270.14 20.28l1.06-.23c3.85.87 3.49 3.53 2.18 6-1.06 2-1.66 4.68-4.46 5.43-.33-3.84.87-7.48 1.22-11.2zM175.64 91.22a4.45 4.45 0 0 1 .59-5.11c1.61 2.35-.23 3.57-.59 5.11z" />
			<path class="xz-cls-4" d="M223.56 313.46a2 2 0 0 1-.13-.53s.21-.07.33-.1zM301.16 75.91c-.29-1.32-.57-2.63-.85-4 5.37 1 7.14 7 12 8.79a76.22 76.22 0 0 1 7.37 3.63c1.29.66 2.2.56 2.42-1.09 2.51.66 2.21 3.13 3.1 4.83-2.68 3.17-5.33.4-8 0l-.05-.06c-.49-2.43-1.38-4-4-1.86-3.81-3.61-8.86-5.81-11.99-10.24zM310.08 74.22l1.92-.12c.1.63.2 1.26.31 1.88-1.31.17-2.12-.35-2.23-1.76zM285.8 161.31c.4.63.81 1.26 1.22 1.89 0 1.37.08 2.7 1.78 3.1.36 2 1.92 3.09 3.24 4.26 2.93 2.6 3.36 5.91 3.16 9.49-1.18 1.33-2.63 1.34-3.09-.3-1.51-5.27-6-4.83-9.92-5.6.43-5.42-1-10.07-5.12-13.9-1.54-1.43-3.32-1.75-4.29-.52-1.67 2.13-4 3.92-4.46 6.92-.46 2.73-.27 4.23 3.13 4.69 3 .41 6.4.25 8.75 2.88a3.93 3.93 0 0 0 2.83 4.6c1.82.57 2.34 1.55 2.1 3.24-1.66 1.11-4.18 1.35-4.22 4.12L276 187a2.27 2.27 0 0 0-3.12-.6c-5.66 4.52-10.91-1.6-16.45-.55-1.43.27-1.23-1.6-1.26-2.72 1.63-.13 3.48.22 4.2-1.91a15 15 0 0 1 6.49-1.29c.31 2.12 1.51 3.33 3.67 3.14 4.1-.35 8.2-.86 12.62-1.34-2.35-3.25-5.92-2-8.17-3.91-.33-3.45-1.83-5.09-5.69-4.86-3.05.19-7 0-4.13-5.18.57-1 .28-1.17-2.78-1.58-.67-2.84.76-3.83 3.37-4.21 1.76-.27 3.72-.9 4.18-3a4.41 4.41 0 0 0-1.88-4.35c-1.73-1.37-3 0-4.28 1.12-1.64 1.5-2.91 3.92-5.76 3-2-.67-1.84-2.5-1.86-4.16 0-3.16 2.14-4.18 4.67-4.9a9.22 9.22 0 0 0 1.35-.64c4.61 3.77 11 3.28 15.88 6.92 2.65 2.02 5.25 4.58 8.75 5.33z" />
			<path class="xz-cls-5" d="M280.2 174.22c-2.35-2.63-5.78-2.47-8.75-2.88-3.4-.46-3.59-2-3.13-4.69.5-3 2.79-4.79 4.46-6.92 1-1.23 2.75-.91 4.29.52 4.12 3.83 5.55 8.48 5.12 13.9z" />
			<path class="xz-cls-3" d="M280.91 186.18c0-2.77 2.56-3 4.22-4.12 5.58.37 2 3.72 1.94 5.94-3 4-8.08 5.68-11 9.76l-1.77.55-1.15-1.09c.94-1.77 1.22-3.64 4-4.36s4.31-3.39 3.76-6.68zM309.4 212.87c1.21-4.45 1.06-8.67 4.21-11.25.96 5.3.07 8.13-4.21 11.25z" />
			<path class="xz-cls-4" d="M313.12 187.09c-.1 1.18-.34 2.3-1.73 2.58a.67.67 0 0 1-.84-.85c.29-1.38 1.39-1.64 2.59-1.71z" />
			<path class="xz-cls-5" d="M221.19 284.09c1 5.12 2 10.23 2.95 15.35a16.76 16.76 0 0 1 .18 2.46c.06 1.5 4 3.31.39 4.27-3.11.82-1.91-3.11-2-4.24-.19-6.06-3.36-11.72-1.52-17.84z" />
			<path class="xz-cls-4" d="M221.82 275.17c-.24.19-.45.52-.67.52a.61.61 0 0 1-.58-.93.88.88 0 0 1 .78-.3c.2.06.31.45.47.71zM231.14 104.13c.68 3.27 4.49 5.06 4.14 8.81-1.39.15-2.33-2.62-3.78-.84-.89 1.09-.15 2.51.75 3.63a3.34 3.34 0 0 1 .83 1.76c0 1.14 1.94 2.61-.15 3.37-1.55.56-2.43-.75-2.74-2.16-.78-3.49-4-5.91-3.66-10.09.15-2-3.57-2.8-5.29-4.45-.68-.66-2-1-1.51-2.21s1.68-.73 2.61-.82c3.38-.31 5.85 2.07 8.8 3zM234.13 94.1c-1-.13-2-.39-1.79-1.72 0-.31.72-.84.91-.77 1.2.46.76 1.59.87 2.49z" />
			<path class="xz-cls-5" d="M274.28 198.31l1.77-.55c3.34 2.86 5.36.61 7-2 .72-1.16 1.1-2.63 2.69-2.41 1.86.25 1.12 2.06 1.51 3.22a16.52 16.52 0 0 1 .88 7.33c-.42 3.56-4.38 5.9-7.56 4.26-1.4-.72-2-.65-2.77.57-1.13 1.83-3.34 1.16-4.91 2-.77.4-1.84.53-2.2-.3-.25-.59.33-1.52.4-2.31.13-1.38 3.27-2.16.81-4 .35-2.12 2.58-3.47 2.38-5.81z" />
			<path class="xz-cls-6" d="M274.28 198.31c.2 2.34-2 3.66-2.39 5.77l-4.8 2c.38-1 .75-2 1.12-3 1.72-1.49-.8-3.12.16-4.64l4.76-1.24z" />
			<path class="xz-cls-4" d="M254.11 210.05a1.93 1.93 0 0 1 2.15-.76c-.37 1.24-.76 2.4-2.15.76zM258.11 209a1.83 1.83 0 0 1 2.18-.64c-.44 1.17-.89 2.33-2.18.64z" />
			<path class="xz-cls-5" d="M273.13 197.22l-4.76 1.24c-4.26-.23-7 4-11.3 3.74l-9.73.77c-6.05-.78-11.66-2.24-14.06-8.83l3.69.39c.51 1.45 1.25 2.77 3 2.37 1.45-.33 1.09-1.73 1.13-2.81l2.86.4c.38.41.77 1.17 1.12 1.16 1.07 0 .86-1 .87-1.73h5.2c1.27 1.65 1.75.73 2.11-.63l1.66-.68c7.87 1.37 14.63-1.51 21.08-5.54l4.88-.86c.55 3.29-1.11 6-3.82 6.68s-2.99 2.56-3.93 4.33z" />
			<path class="xz-cls-4" d="M257.07 202.2c4.26.25 7-4 11.3-3.74-1 1.52 1.56 3.15-.16 4.64l-10.09 1zM267 116c1.93-2.27 4.07-4 7.34-3.84 2.63.16 3.95-1.1 3.5-3.85 3.73-.82 7.08-.25 9.79 2.66-.14.27-.23.72-.44.78-3 1-7.63.11-8.69 3.37-.83 2.57-.23 6-.5 9.1l-5 .11c-3-2.02-7.36-3.08-6-8.33z" />
			<path class="xz-cls-3" d="M273.07 124.34l5-.11c1.13.16 2.49-.32 3.13 1.16-.82 3-3.47 2-4.89 1.58-3.91-1.17-6.23 2.22-9.49 2.72-.49.07 0 1.13.44 1.61-2.8 3.87-6.3 1-9.52 1.26 4.74-3.56 8.53-8.81 15.33-8.22z" />
			<path class="xz-cls-4" d="M287 128.83c.27-.42.55-.84.83-1.26 2.76 1.18 5 0 7.27-1.47h3.79c.81.51 1.3 1.64.45 1.91-3.98 1.26-8 3.74-12.34.82z" />
			<path class="xz-cls-3" d="M295.13 126.1c-2.23 1.44-4.51 2.65-7.27 1.47l.15-2.36 7-.73c-.01.52.06 1.08.12 1.62z" />
			<path class="xz-cls-6" d="M295.13 126.1c-.06-.54-.11-1.08-.16-1.62 1.61-.18 3.78-1.74 4 1.61z" />
			<path class="xz-cls-4" d="M276.15 108.35c-1.49 1.43-2.55.77-3.44-.72 1.29-.52 2.57-.85 3.44.72z" />
			<path class="xz-cls-6" d="M276 187c-6.45 4-13.21 6.91-21.08 5.54 1.14-3.14.66-4.69-3.29-4.49-3 .15-6.58 1.1-9.35-2 4-3.14 8.83-1.41 12.89-2.93 0 1.12-.17 3 1.26 2.72 5.54-1 10.79 5.07 16.45.55a2.27 2.27 0 0 1 3.12.61z" />
			<path class="xz-cls-4" d="M241.13 194.09c0 1.08.32 2.48-1.13 2.81-1.78.4-2.52-.92-3-2.37 1.38.11 2.55-2.11 4.13-.44zM246 193.92c0 .73.2 1.69-.87 1.73-.35 0-.74-.75-1.12-1.16z" />
			<path class="xz-cls-6" d="M253.29 193.26c-.36 1.36-.84 2.28-2.11.63a1.88 1.88 0 0 1 2.11-.63z" />
			<path class="xz-cls-3" d="M313.17 86.17c2.6-2.12 3.49-.57 4 1.86-1.82.39-3.25-.03-4-1.86z" />
			<path class="xz-cls-4" d="M308.1 72.19a1.68 1.68 0 0 1 1.92 2 1.84 1.84 0 0 1-1.92-2z" />
			<path class="xz-cls-5" d="M274 177.86c2.25 1.87 5.82.66 8.17 3.91-4.42.48-8.52 1-12.62 1.34-2.16.19-3.36-1-3.67-3.14l.13-.09c1.61 0 3.67 1 4.1-1.79z" />
			<path class="xz-cls-4" d="M270.12 178.09c-.43 2.74-2.49 1.75-4.1 1.79.51-2.55 2.52-1.68 4.1-1.79z" />
			<path class="xz-cls-6" d="M288.8 166.3c-1.7-.4-1.77-1.73-1.78-3.1a2.29 2.29 0 0 1 1.78 3.1z" />
		</svg>
		<text id="Logos" font-family="DINAlternate-Bold, DIN Alternate" font-size="50" font-weight="bold" fill="#000000">
			<tspan x="20" y="57">
				Copy the entire file?
			</tspan>
		</text>
	</g>
</svg>
