<?xml version="1.0" encoding="UTF-8"?>
<svg width="1440px" height="151px" viewBox="0 0 1440 151" version="1.1" xmlns="http://www.w3.org/2000/svg" xmlns:xlink="http://www.w3.org/1999/xlink">
    <!-- Generator: Sketch 54.1 (76490) - https://sketchapp.com -->
    <title>Long logo</title>
    <desc>Created with Sketch.</desc>
    <g id="Long-logo" stroke="none" stroke-width="1" fill="none" fill-rule="evenodd">
        <path d="M616,149.75 L592.8,149.75 C591.55,149.75 591,149.2 591,147.95 L591,115.55 C591,114.3 591.55,113.75 592.8,113.75 L616,113.75 C617.25,113.75 617.8,114.3 617.8,115.55 L617.8,121.4 C617.8,122.65 617.25,123.2 616,123.2 L602.2,123.2 L602.2,127.05 L611.95,127.05 C613.2,127.05 613.75,127.6 613.75,128.85 L613.75,134.2 C613.75,135.45 613.2,136 611.95,136 L602.2,136 L602.2,140.3 L616,140.3 C617.25,140.3 617.8,140.85 617.8,142.1 L617.8,147.95 C617.8,149.2 617.25,149.75 616,149.75 Z M640.4,149.75 L624.6,149.75 C623.35,149.75 622.8,149.2 622.8,147.95 L622.8,142.1 C622.8,140.85 623.35,140.3 624.6,140.3 L638.05,140.3 C638.9,140.3 639.35,139.65 639.35,138.85 C639.35,137.7 638.9,137.25 638.05,137.15 L630.55,136.1 C625.85,135.4 622.8,133.4 622.8,127.8 L622.8,122.55 C622.8,116.85 626.65,113.75 633.15,113.75 L647.15,113.75 C648.4,113.75 648.95,114.3 648.95,115.55 L648.95,121.5 C648.95,122.75 648.4,123.3 647.15,123.3 L635.5,123.3 C634.65,123.3 634.15,123.9 634.15,124.8 C634.15,125.7 634.65,126.3 635.5,126.4 L642.95,127.4 C647.65,128.1 650.75,130.1 650.75,135.7 L650.75,140.95 C650.75,146.65 646.85,149.75 640.4,149.75 Z M673.2,149.75 L665.1,149.75 C663.85,149.75 663.3,149.2 663.3,147.95 L663.3,123.4 L655.95,123.4 C654.7,123.4 654.15,122.85 654.15,121.6 L654.15,115.55 C654.15,114.3 654.7,113.75 655.95,113.75 L682.35,113.75 C683.6,113.75 684.15,114.3 684.15,115.55 L684.15,121.6 C684.15,122.85 683.6,123.4 682.35,123.4 L675,123.4 L675,147.95 C675,149.2 674.45,149.75 673.2,149.75 Z M700.2,149.75 L690.1,149.75 C688.85,149.75 688.3,149.2 688.3,147.95 L688.3,137.8 C688.3,136.5 688.85,136 690.1,136 L700.2,136 C701.45,136 702,136.5 702,137.8 L702,147.95 C702,149.2 701.45,149.75 700.2,149.75 Z M742.3,149.75 L720.2,149.75 C718.95,149.75 718.4,149.2 718.4,147.95 L718.4,141.9 C718.4,140.65 718.95,140.1 720.2,140.1 L725.8,140.1 L725.8,123.4 L721.2,123.4 C719.95,123.4 719.4,122.85 719.4,121.6 L719.4,115.55 C719.4,114.3 719.95,113.75 721.2,113.75 L735.7,113.75 C736.95,113.75 737.5,114.3 737.5,115.55 L737.5,140.1 L742.3,140.1 C743.55,140.1 744.1,140.65 744.1,141.9 L744.1,147.95 C744.1,149.2 743.55,149.75 742.3,149.75 Z M765.5,149.75 L754,149.75 C752.7,149.75 752.2,149.2 752.2,147.95 L752.2,142.05 C752.2,140.8 752.75,140.25 754,140.25 L763.35,140.25 C765.8,140.25 766.5,139.7 766.5,137.25 L766.5,136.15 C764.9,136.65 762.8,136.9 760.15,136.9 C751.1,136.9 748.4,133.85 748.4,127.9 L748.4,123.1 C748.4,117 751.3,113 762.8,113 C775.1,113 777.8,117 777.8,123.1 L777.8,139.5 C777.8,145.6 774.95,149.75 765.5,149.75 Z M766.5,126.85 L766.5,123.9 C766.5,122.85 766.05,122.05 763.15,122.05 C760.15,122.05 759.7,122.85 759.7,123.9 L759.7,126.85 C759.7,127.85 760.15,128.65 763.15,128.65 C766.05,128.65 766.5,127.85 766.5,126.85 Z M813.9,136.95 L813.9,141.8 C813.9,147 810.55,150.5 798.5,150.5 C786.45,150.5 783.05,147 783.05,141.8 L783.05,136.95 C783.05,132.25 785.35,129.8 788.35,129.2 C786.15,128.25 785.4,126.35 785.4,123.8 L785.4,120.9 C785.4,116 788.5,113 798.55,113 C808.6,113 811.55,116 811.55,120.9 L811.55,123.8 C811.55,126.35 810.8,128.25 808.6,129.2 C811.6,129.8 813.9,132.25 813.9,136.95 Z M795.35,125.75 C795.35,126.8 795.7,127.6 798.5,127.6 C801.35,127.6 801.6,126.8 801.6,125.75 L801.6,123.55 C801.6,122.55 801.35,121.75 798.5,121.75 C795.7,121.75 795.35,122.55 795.35,123.55 L795.35,125.75 Z M794.1,139.9 C794.1,140.95 794.9,141.75 798.5,141.75 C802.15,141.75 802.85,140.95 802.85,139.9 L802.85,137.25 C802.85,136.25 802.15,135.45 798.5,135.45 C794.9,135.45 794.1,136.25 794.1,137.25 L794.1,139.9 Z M836.95,141.4 L828.5,141.4 C822,141.4 819.4,138.8 819.4,133.1 L819.4,115.55 C819.4,114.3 819.95,113.75 821.2,113.75 L828.95,113.75 C830.2,113.75 830.75,114.3 830.75,115.55 L830.75,129.25 C830.75,130.3 831.35,130.95 832.3,130.95 L836.95,130.95 L836.95,115.55 C836.95,114.3 837.5,113.75 838.75,113.75 L846.45,113.75 C847.7,113.75 848.25,114.3 848.25,115.55 L848.25,147.95 C848.25,149.2 847.7,149.75 846.45,149.75 L838.75,149.75 C837.5,149.75 836.95,149.2 836.95,147.95 L836.95,141.4 Z" id="est.1984" fill="#000000" fill-rule="nonzero"></path>
        <path d="M71.85,98 L43.546,98 C24.058,98 15.01,90.46 15.01,74.336 L15.01,38.26 C15.01,22.02 24.058,14.48 43.546,14.48 L71.85,14.48 C74.75,14.48 76.026,15.756 76.026,18.656 L76.026,32.692 C76.026,35.592 74.75,36.868 71.85,36.868 L48.534,36.868 C43.662,36.868 41.458,38.724 41.458,42.668 L41.458,70.276 C41.458,74.104 43.662,75.844 48.534,75.844 L71.85,75.844 C74.75,75.844 76.026,77.12 76.026,80.02 L76.026,93.824 C76.026,96.724 74.75,98 71.85,98 Z M160.242,76.076 C160.242,90.228 153.166,99.74 124.398,99.74 C95.63,99.74 88.554,90.228 88.554,76.076 L88.554,18.656 C88.554,15.756 89.83,14.48 92.73,14.48 L110.942,14.48 C113.842,14.48 115.118,15.756 115.118,18.656 L115.118,71.552 C115.118,74.684 116.51,77.004 124.63,77.004 C132.866,77.004 134.258,74.684 134.258,71.552 L134.258,18.656 C134.258,15.756 135.418,14.48 138.434,14.48 L156.066,14.48 C158.966,14.48 160.242,15.756 160.242,18.656 L160.242,76.076 Z M218.938,98 L179.846,98 C176.946,98 175.67,96.724 175.67,93.824 L175.67,18.656 C175.67,15.756 176.946,14.48 179.846,14.48 L218.938,14.48 C238.426,14.48 247.474,22.02 247.474,38.144 L247.474,74.336 C247.474,90.46 238.426,98 218.938,98 Z M202.002,36.636 L202.002,76.076 L215.806,76.076 C219.518,76.076 221.258,74.336 221.258,70.392 L221.258,42.204 C221.258,38.376 219.518,36.636 215.806,36.636 L202.002,36.636 Z M305.474,98 L266.382,98 C263.482,98 262.206,96.724 262.206,93.824 L262.206,18.656 C262.206,15.756 263.482,14.48 266.382,14.48 L305.474,14.48 C324.962,14.48 334.01,22.02 334.01,38.144 L334.01,74.336 C334.01,90.46 324.962,98 305.474,98 Z M288.538,36.636 L288.538,76.076 L302.342,76.076 C306.054,76.076 307.794,74.336 307.794,70.392 L307.794,42.204 C307.794,38.376 306.054,36.636 302.342,36.636 L288.538,36.636 Z M406.742,98 L352.918,98 C350.018,98 348.742,96.724 348.742,93.824 L348.742,18.656 C348.742,15.756 350.018,14.48 352.918,14.48 L406.742,14.48 C409.642,14.48 410.918,15.756 410.918,18.656 L410.918,32.228 C410.918,35.128 409.642,36.404 406.742,36.404 L374.726,36.404 L374.726,45.336 L397.346,45.336 C400.246,45.336 401.522,46.612 401.522,49.512 L401.522,61.924 C401.522,64.824 400.246,66.1 397.346,66.1 L374.726,66.1 L374.726,76.076 L406.742,76.076 C409.642,76.076 410.918,77.352 410.918,80.252 L410.918,93.824 C410.918,96.724 409.642,98 406.742,98 Z M463.35,98 L426.694,98 C423.794,98 422.518,96.724 422.518,93.824 L422.518,80.252 C422.518,77.352 423.794,76.076 426.694,76.076 L457.898,76.076 C459.87,76.076 460.914,74.568 460.914,72.712 C460.914,70.044 459.87,69 457.898,68.768 L440.498,66.332 C429.594,64.708 422.518,60.068 422.518,47.076 L422.518,34.896 C422.518,21.672 431.45,14.48 446.53,14.48 L479.01,14.48 C481.91,14.48 483.186,15.756 483.186,18.656 L483.186,32.46 C483.186,35.36 481.91,36.636 479.01,36.636 L451.982,36.636 C450.01,36.636 448.85,38.028 448.85,40.116 C448.85,42.204 450.01,43.596 451.982,43.828 L469.266,46.148 C480.17,47.772 487.362,52.412 487.362,65.404 L487.362,77.584 C487.362,90.808 478.314,98 463.35,98 Z M543.274,98 L504.182,98 C501.282,98 500.006,96.724 500.006,93.824 L500.006,18.656 C500.006,15.756 501.282,14.48 504.182,14.48 L543.274,14.48 C562.762,14.48 571.81,22.02 571.81,38.144 L571.81,74.336 C571.81,90.46 562.762,98 543.274,98 Z M526.338,36.636 L526.338,76.076 L540.142,76.076 C543.854,76.076 545.594,74.336 545.594,70.392 L545.594,42.204 C545.594,38.376 543.854,36.636 540.142,36.636 L526.338,36.636 Z M657.302,76.076 C657.302,90.228 650.342,99.74 621.342,99.74 C592.342,99.74 585.266,90.228 585.266,76.076 L585.266,36.52 C585.266,22.368 592.342,12.74 621.342,12.74 C650.342,12.74 657.302,22.368 657.302,36.52 L657.302,76.076 Z M611.598,71.9 C611.598,75.032 612.99,77.352 621.342,77.352 C629.81,77.352 631.086,75.032 631.086,71.9 L631.086,40.696 C631.086,37.68 629.81,35.36 621.342,35.36 C612.99,35.36 611.598,37.68 611.598,40.696 L611.598,71.9 Z M693.61,98 L676.21,98 C673.31,98 672.034,96.724 672.034,93.824 L672.034,18.656 C672.034,15.756 673.31,14.48 676.21,14.48 L688.274,14.48 C691.29,14.48 693.146,15.292 695.118,17.612 L717.622,43.364 L717.622,18.656 C717.622,15.756 718.898,14.48 721.798,14.48 L739.198,14.48 C742.098,14.48 743.374,15.756 743.374,18.656 L743.374,93.824 C743.374,96.724 742.098,98 739.198,98 L721.798,98 C718.898,98 717.622,96.724 717.622,93.824 L717.622,79.556 L697.786,55.544 L697.786,93.824 C697.786,96.724 696.51,98 693.61,98 Z M845.454,14.48 L862.738,14.48 C865.638,14.48 866.914,15.756 866.914,18.656 L866.914,63.664 C866.914,68.652 866.914,72.364 864.826,78.048 L859.026,93.824 C858.214,96.144 856.822,98 854.386,98 L838.958,98 C836.406,98 834.318,96.956 833.622,94.52 L828.286,75.612 C827.822,74.104 827.126,73.64 826.198,73.64 L825.154,73.64 C824.226,73.64 823.53,74.104 823.066,75.612 L817.614,94.52 C816.918,96.84 815.178,98 812.742,98 L797.43,98 C794.878,98 793.138,96.26 792.326,93.824 L786.526,77.816 C784.438,72.132 784.438,68.42 784.438,63.432 L784.438,18.656 C784.438,15.756 785.714,14.48 788.614,14.48 L806.478,14.48 C809.378,14.48 810.654,15.756 810.654,18.656 L810.654,61.344 L817.382,46.728 C818.658,44.06 820.514,43.132 823.53,43.132 L828.402,43.132 C831.418,43.132 833.274,44.06 834.55,46.728 L841.278,61.344 L841.278,18.656 C841.278,15.756 842.438,14.48 845.454,14.48 Z M904.034,98 L886.054,98 C883.154,98 881.878,96.724 881.878,93.824 L881.878,18.656 C881.878,15.756 883.154,14.48 886.054,14.48 L904.034,14.48 C906.934,14.48 908.21,15.756 908.21,18.656 L908.21,43.828 L927.582,43.828 L927.582,18.656 C927.582,15.756 928.858,14.48 931.758,14.48 L949.738,14.48 C952.638,14.48 953.914,15.756 953.914,18.656 L953.914,93.824 C953.914,96.724 952.638,98 949.738,98 L931.758,98 C928.858,98 927.582,96.724 927.582,93.824 L927.582,68.072 L908.21,68.072 L908.21,93.824 C908.21,96.724 906.934,98 904.034,98 Z M1027.922,98 L974.098,98 C971.198,98 969.922,96.724 969.922,93.824 L969.922,18.656 C969.922,15.756 971.198,14.48 974.098,14.48 L1027.922,14.48 C1030.822,14.48 1032.098,15.756 1032.098,18.656 L1032.098,32.228 C1032.098,35.128 1030.822,36.404 1027.922,36.404 L995.906,36.404 L995.906,45.336 L1018.526,45.336 C1021.426,45.336 1022.702,46.612 1022.702,49.512 L1022.702,61.924 C1022.702,64.824 1021.426,66.1 1018.526,66.1 L995.906,66.1 L995.906,76.076 L1027.922,76.076 C1030.822,76.076 1032.098,77.352 1032.098,80.252 L1032.098,93.824 C1032.098,96.724 1030.822,98 1027.922,98 Z M1103.786,98 L1049.962,98 C1047.062,98 1045.786,96.724 1045.786,93.824 L1045.786,18.656 C1045.786,15.756 1047.062,14.48 1049.962,14.48 L1103.786,14.48 C1106.686,14.48 1107.962,15.756 1107.962,18.656 L1107.962,32.228 C1107.962,35.128 1106.686,36.404 1103.786,36.404 L1071.77,36.404 L1071.77,45.336 L1094.39,45.336 C1097.29,45.336 1098.566,46.612 1098.566,49.512 L1098.566,61.924 C1098.566,64.824 1097.29,66.1 1094.39,66.1 L1071.77,66.1 L1071.77,76.076 L1103.786,76.076 C1106.686,76.076 1107.962,77.352 1107.962,80.252 L1107.962,93.824 C1107.962,96.724 1106.686,98 1103.786,98 Z M1184.87,98 L1125.826,98 C1122.926,98 1121.65,96.724 1121.65,93.824 L1121.65,18.656 C1121.65,15.756 1122.926,14.48 1125.826,14.48 L1143.806,14.48 C1146.706,14.48 1147.982,15.756 1147.982,18.656 L1147.982,76.076 L1163.874,76.076 L1163.874,57.284 C1163.874,54.384 1165.15,53.108 1168.05,53.108 L1184.87,53.108 C1187.77,53.108 1189.046,54.384 1189.046,57.284 L1189.046,93.824 C1189.046,96.724 1187.77,98 1184.87,98 Z M1260.27,98 L1206.446,98 C1203.546,98 1202.27,96.724 1202.27,93.824 L1202.27,18.656 C1202.27,15.756 1203.546,14.48 1206.446,14.48 L1260.27,14.48 C1263.17,14.48 1264.446,15.756 1264.446,18.656 L1264.446,32.228 C1264.446,35.128 1263.17,36.404 1260.27,36.404 L1228.254,36.404 L1228.254,45.336 L1250.874,45.336 C1253.774,45.336 1255.05,46.612 1255.05,49.512 L1255.05,61.924 C1255.05,64.824 1253.774,66.1 1250.874,66.1 L1228.254,66.1 L1228.254,76.076 L1260.27,76.076 C1263.17,76.076 1264.446,77.352 1264.446,80.252 L1264.446,93.824 C1264.446,96.724 1263.17,98 1260.27,98 Z M1304.35,35.36 L1304.35,50.208 L1313.05,50.208 C1317.11,50.208 1318.154,47.888 1318.154,44.756 L1318.154,40.812 C1318.154,37.68 1317.11,35.36 1313.05,35.36 L1304.35,35.36 Z M1300.174,98 L1282.31,98 C1279.41,98 1278.134,96.724 1278.134,93.824 L1278.134,18.656 C1278.134,15.756 1279.41,14.48 1282.31,14.48 L1320.938,14.48 C1338.338,14.48 1343.79,22.368 1343.79,33.852 L1343.79,39.188 C1343.79,45.684 1342.166,50.324 1337.294,52.412 C1345.762,53.34 1351.33,59.488 1351.33,69.232 L1351.33,93.824 C1351.33,96.724 1350.054,98 1347.154,98 L1329.174,98 C1326.274,98 1324.998,96.724 1324.998,93.824 L1324.998,76.076 C1324.998,72.596 1323.838,71.088 1320.59,71.088 L1304.35,71.088 L1304.35,93.824 C1304.35,96.724 1303.074,98 1300.174,98 Z M1403.066,98 L1366.41,98 C1363.51,98 1362.234,96.724 1362.234,93.824 L1362.234,80.252 C1362.234,77.352 1363.51,76.076 1366.41,76.076 L1397.614,76.076 C1399.586,76.076 1400.63,74.568 1400.63,72.712 C1400.63,70.044 1399.586,69 1397.614,68.768 L1380.214,66.332 C1369.31,64.708 1362.234,60.068 1362.234,47.076 L1362.234,34.896 C1362.234,21.672 1371.166,14.48 1386.246,14.48 L1418.726,14.48 C1421.626,14.48 1422.902,15.756 1422.902,18.656 L1422.902,32.46 C1422.902,35.36 1421.626,36.636 1418.726,36.636 L1391.698,36.636 C1389.726,36.636 1388.566,38.028 1388.566,40.116 C1388.566,42.204 1389.726,43.596 1391.698,43.828 L1408.982,46.148 C1419.886,47.772 1427.078,52.412 1427.078,65.404 L1427.078,77.584 C1427.078,90.808 1418.03,98 1403.066,98 Z" id="cuddesdonwheelers" fill="#000000" fill-rule="nonzero"></path>
    </g>
</svg>