<?xml version="1.0" encoding="UTF-8"?>
<svg width="680px" height="151px" viewBox="0 0 680 151" version="1.1" xmlns="http://www.w3.org/2000/svg" xmlns:xlink="http://www.w3.org/1999/xlink">
    <!-- Generator: Sketch 54.1 (76490) - https://sketchapp.com -->
    <title>Wrong logo</title>
    <desc>Created with Sketch.</desc>
    <g id="Wrong-logo" stroke="none" stroke-width="1" fill="none" fill-rule="evenodd">
        <path d="M56.84,85.26 L28.536,85.26 C9.048,85.26 -3.41060513e-13,77.72 -3.41060513e-13,61.596 L-3.41060513e-13,25.52 C-3.41060513e-13,9.28 9.048,1.74 28.536,1.74 L56.84,1.74 C59.74,1.74 61.016,3.016 61.016,5.916 L61.016,19.952 C61.016,22.852 59.74,24.128 56.84,24.128 L33.524,24.128 C28.652,24.128 26.448,25.984 26.448,29.928 L26.448,57.536 C26.448,61.364 28.652,63.104 33.524,63.104 L56.84,63.104 C59.74,63.104 61.016,64.38 61.016,67.28 L61.016,81.084 C61.016,83.984 59.74,85.26 56.84,85.26 Z M145.232,63.336 C145.232,77.488 138.156,87 109.388,87 C80.62,87 73.544,77.488 73.544,63.336 L73.544,5.916 C73.544,3.016 74.82,1.74 77.72,1.74 L95.932,1.74 C98.832,1.74 100.108,3.016 100.108,5.916 L100.108,58.812 C100.108,61.944 101.5,64.264 109.62,64.264 C117.856,64.264 119.248,61.944 119.248,58.812 L119.248,5.916 C119.248,3.016 120.408,1.74 123.424,1.74 L141.056,1.74 C143.956,1.74 145.232,3.016 145.232,5.916 L145.232,63.336 Z M203.928,85.26 L164.836,85.26 C161.936,85.26 160.66,83.984 160.66,81.084 L160.66,5.916 C160.66,3.016 161.936,1.74 164.836,1.74 L203.928,1.74 C223.416,1.74 232.464,9.28 232.464,25.404 L232.464,61.596 C232.464,77.72 223.416,85.26 203.928,85.26 Z M186.992,23.896 L186.992,63.336 L200.796,63.336 C204.508,63.336 206.248,61.596 206.248,57.652 L206.248,29.464 C206.248,25.636 204.508,23.896 200.796,23.896 L186.992,23.896 Z M290.464,85.26 L251.372,85.26 C248.472,85.26 247.196,83.984 247.196,81.084 L247.196,5.916 C247.196,3.016 248.472,1.74 251.372,1.74 L290.464,1.74 C309.952,1.74 319,9.28 319,25.404 L319,61.596 C319,77.72 309.952,85.26 290.464,85.26 Z M273.528,23.896 L273.528,63.336 L287.332,63.336 C291.044,63.336 292.784,61.596 292.784,57.652 L292.784,29.464 C292.784,25.636 291.044,23.896 287.332,23.896 L273.528,23.896 Z" id="cuddesdonwheelers" fill="#000000" fill-rule="nonzero"></path>
        <path d="M417.86,85.26 L358.816,85.26 C355.916,85.26 354.64,83.984 354.64,81.084 L354.64,5.916 C354.64,3.016 355.916,1.74 358.816,1.74 L376.796,1.74 C379.696,1.74 380.972,3.016 380.972,5.916 L380.972,63.336 L396.864,63.336 L396.864,44.544 C396.864,41.644 398.14,40.368 401.04,40.368 L417.86,40.368 C420.76,40.368 422.036,41.644 422.036,44.544 L422.036,81.084 C422.036,83.984 420.76,85.26 417.86,85.26 Z M493.26,85.26 L439.436,85.26 C436.536,85.26 435.26,83.984 435.26,81.084 L435.26,5.916 C435.26,3.016 436.536,1.74 439.436,1.74 L493.26,1.74 C496.16,1.74 497.436,3.016 497.436,5.916 L497.436,19.488 C497.436,22.388 496.16,23.664 493.26,23.664 L461.244,23.664 L461.244,32.596 L483.864,32.596 C486.764,32.596 488.04,33.872 488.04,36.772 L488.04,49.184 C488.04,52.084 486.764,53.36 483.864,53.36 L461.244,53.36 L461.244,63.336 L493.26,63.336 C496.16,63.336 497.436,64.612 497.436,67.512 L497.436,81.084 C497.436,83.984 496.16,85.26 493.26,85.26 Z M537.34,22.62 L537.34,37.468 L546.04,37.468 C550.1,37.468 551.144,35.148 551.144,32.016 L551.144,28.072 C551.144,24.94 550.1,22.62 546.04,22.62 L537.34,22.62 Z M533.164,85.26 L515.3,85.26 C512.4,85.26 511.124,83.984 511.124,81.084 L511.124,5.916 C511.124,3.016 512.4,1.74 515.3,1.74 L553.928,1.74 C571.328,1.74 576.78,9.628 576.78,21.112 L576.78,26.448 C576.78,32.944 575.156,37.584 570.284,39.672 C578.752,40.6 584.32,46.748 584.32,56.492 L584.32,81.084 C584.32,83.984 583.044,85.26 580.144,85.26 L562.164,85.26 C559.264,85.26 557.988,83.984 557.988,81.084 L557.988,63.336 C557.988,59.856 556.828,58.348 553.58,58.348 L537.34,58.348 L537.34,81.084 C537.34,83.984 536.064,85.26 533.164,85.26 Z M636.056,85.26 L599.4,85.26 C596.5,85.26 595.224,83.984 595.224,81.084 L595.224,67.512 C595.224,64.612 596.5,63.336 599.4,63.336 L630.604,63.336 C632.576,63.336 633.62,61.828 633.62,59.972 C633.62,57.304 632.576,56.26 630.604,56.028 L613.204,53.592 C602.3,51.968 595.224,47.328 595.224,34.336 L595.224,22.156 C595.224,8.932 604.156,1.74 619.236,1.74 L651.716,1.74 C654.616,1.74 655.892,3.016 655.892,5.916 L655.892,19.72 C655.892,22.62 654.616,23.896 651.716,23.896 L624.688,23.896 C622.716,23.896 621.556,25.288 621.556,27.376 C621.556,29.464 622.716,30.856 624.688,31.088 L641.972,33.408 C652.876,35.032 660.068,39.672 660.068,52.664 L660.068,64.844 C660.068,78.068 651.02,85.26 636.056,85.26 Z" id="cuddesdonwheelers" fill="#000000" fill-rule="nonzero"></path>
    </g>
</svg>