<?xml version="1.0" encoding="UTF-8"?>
<svg id="logo" width="100%" height="100%" viewBox="0 0 919 919" version="1.1" 
    xmlns="http://www.w3.org/2000/svg" 
    xmlns:xlink="http://www.w3.org/1999/xlink">
    <g id="Round-logo" stroke="none" stroke-width="1" fill="none" fill-rule="evenodd">
        <path d="M460,909 C707.975853,909 909,707.975853 909,460 C909,212.024147 707.975853,11 460,11 C212.024147,11 11,212.024147 11,460 C11,707.975853 212.024147,909 460,909 Z M460,879 C228.59269,879 41,691.40731 41,460 C41,228.59269 228.59269,41 460,41 C691.40731,41 879,228.59269 879,460 C879,691.40731 691.40731,879 460,879 Z" id="Oval" fill="#000000" fill-rule="nonzero"></path>
        <path d="M460,863.5 C682.846897,863.5 863.5,682.846897 863.5,460 C863.5,237.153103 682.846897,56.5 460,56.5 C237.153103,56.5 56.5,237.153103 56.5,460 C56.5,682.846897 237.153103,863.5 460,863.5 Z M460,860.5 C238.809958,860.5 59.5,681.190042 59.5,460 C59.5,238.809958 238.809958,59.5 460,59.5 C681.190042,59.5 860.5,238.809958 860.5,460 C860.5,681.190042 681.190042,860.5 460,860.5 Z" id="Oval" fill="#000000" fill-rule="nonzero"></path>
        <polygon id="Line" fill="#000000" fill-rule="nonzero" transform="translate(459.566917, 459.612652) rotate(-28.235254) translate(-459.566917, -459.612652) " points="344.587218 95.2673798 564.971645 826.842351 574.546616 823.957924 354.162189 92.3829527"></polygon>
        <polygon id="Line" fill="#000000" fill-rule="nonzero" transform="translate(459.566917, 459.612652) rotate(61.764746) translate(-459.566917, -459.612652) " points="344.587218 95.2673798 564.971645 826.842351 574.546616 823.957924 354.162189 92.3829527"></polygon>
        <path d="M288.02,546.64 C288.02,554.96 284.38,558.6 276.06,558.6 L212.62,558.6 C166.86,558.6 146.06,540.66 146.06,502.96 L146.06,422.1 C146.06,384.14 166.86,366.2 212.62,366.2 L276.06,366.2 C284.38,366.2 288.02,369.84 288.02,378.16 L288.02,409.62 C288.02,417.94 284.38,421.58 276.06,421.58 L223.8,421.58 C214.96,421.58 210.54,424.7 210.54,431.98 L210.54,493.86 C210.54,501.14 215.22,503.74 223.8,503.74 L276.06,503.74 C284.38,503.74 288.02,507.38 288.02,515.7 L288.02,546.64 Z" id="Path" fill="#000000" fill-rule="nonzero"></path>
        <path d="M263.26,528.5 L263.26,534.1 L218.34,534.1 C185.244005,534.1 175.24,525.412311 175.24,499.06 L175.24,426.26 C175.24,399.61978 185.495077,390.7 218.34,390.7 L263.26,390.7 L263.26,396.3 L218.34,396.3 C189.224859,396.3 180.84,403.34881 180.84,426.26 L180.84,499.06 C180.84,521.675845 188.974754,528.5 218.34,528.5 L263.26,528.5 Z M261.36,531.5 L260.26,531.5 L260.26,531.1 L261.36,531.1 L261.56,531.3 L261.36,531.5 Z M260.26,393.3 L261.36,393.3 L261.56,393.5 L261.36,393.7 L260.26,393.7 L260.26,393.3 Z" id="Path" fill="#FFFFFF" fill-rule="nonzero"></path>
        <path d="M668.4,558.6 L634.08,558.6 C627.32,558.6 622.38,554.18 620.3,547.42 L607.3,511.54 C602.36,498.54 602.36,489.96 602.36,478.52 L602.36,378.16 C602.36,369.84 606,366.2 614.32,366.2 L654.36,366.2 C662.68,366.2 666.32,369.84 666.32,378.16 L666.32,462.14 L676.46,440.04 C679.84,433.02 684.52,430.42 692.58,430.42 L703.5,430.42 C711.56,430.42 716.24,433.02 719.62,440.04 L729.76,462.14 L729.76,378.16 C729.76,369.84 733.14,366.2 741.72,366.2 L780.46,366.2 C788.78,366.2 792.42,369.84 792.42,378.16 L792.42,479.04 C792.42,490.48 792.42,499.06 787.48,512.06 L774.48,547.42 C772.4,553.92 768.24,558.6 761.74,558.6 L727.16,558.6 C720.14,558.6 714.68,555.48 712.6,548.98 L700.64,506.6 C700.38,505.04 699.6,504 698.56,504 L696.22,504 C695.18,504 694.4,505.04 694.14,506.6 L681.92,548.98 C679.84,555.22 675.16,558.6 668.4,558.6 Z" id="Path" fill="#000000" fill-rule="nonzero"></path>
        <path d="M703.5,464.3 C710.094555,464.3 713.485167,467.46457 718.066803,477.705881 L739.39829,525.572161 C740.17276,527.379258 741.173392,527.901657 743.342002,527.98461 C743.674812,527.99734 743.951819,528 744.58,528 L745.88,528 C747.636643,528 749.519753,526.231018 749.906424,524.111584 L756.398839,494.507768 C757.033601,491.333958 757.396927,486.526232 757.555518,480.264106 C757.641391,476.873311 757.66,474.071912 757.66,468.64 L757.66,390.2 L764.26,390.2 L764.26,468.9 C764.26,474.364917 764.241233,477.190225 764.154236,480.625375 C763.99018,487.103255 763.613154,492.092267 762.91278,495.592031 L756.410266,524.983242 C754.974051,531.302588 751.264463,534.6 745.88,534.6 L744.06,534.6 C739.214184,534.6 735.368822,532.997766 733.649951,528.986796 L712.332377,480.632277 C708.724201,472.513882 707.043074,470.9 703.5,470.9 L691.8,470.9 C688.256926,470.9 686.575799,472.513882 682.970049,480.626796 L661.65829,528.967839 C659.931178,532.997766 656.085816,534.6 651.24,534.6 L649.42,534.6 C644.035537,534.6 640.325949,531.302588 638.88722,524.972031 L632.378839,495.552232 C631.686846,492.092267 631.30982,487.103255 631.145764,480.625375 C631.058767,477.190225 631.04,474.364917 631.04,468.9 L631.04,390.2 L637.64,390.2 L637.64,468.64 C637.64,474.071912 637.658609,476.873311 637.744482,480.264106 C637.903073,486.526232 638.266399,491.333958 638.893576,494.471584 L645.40774,524.182229 C645.780247,526.231018 647.663357,528 649.42,528 L650.72,528 C651.348181,528 651.625188,527.99734 651.957998,527.98461 C654.126608,527.901657 655.12724,527.379258 655.913197,525.545881 L677.234363,477.703268 C681.814833,467.46457 685.205445,464.3 691.8,464.3 L703.5,464.3 Z" id="Path" fill="#FFFFFF" fill-rule="nonzero"></path>
        <path d="M444.9,279 L400.7,279 C398.2,279 397.1,277.9 397.1,275.4 L397.1,263.3 C397.1,260.8 398.2,259.7 400.7,259.7 L411.9,259.7 L411.9,226.3 L402.7,226.3 C400.2,226.3 399.1,225.2 399.1,222.7 L399.1,210.6 C399.1,208.1 400.2,207 402.7,207 L431.7,207 C434.2,207 435.3,208.1 435.3,210.6 L435.3,259.7 L444.9,259.7 C447.4,259.7 448.5,260.8 448.5,263.3 L448.5,275.4 C448.5,277.9 447.4,279 444.9,279 Z M491.3,279 L468.3,279 C465.7,279 464.7,277.9 464.7,275.4 L464.7,263.6 C464.7,261.1 465.8,260 468.3,260 L487,260 C491.9,260 493.3,258.9 493.3,254 L493.3,251.8 C490.1,252.8 485.9,253.3 480.6,253.3 C462.5,253.3 457.1,247.2 457.1,235.3 L457.1,225.7 C457.1,213.5 462.9,205.5 485.9,205.5 C510.5,205.5 515.9,213.5 515.9,225.7 L515.9,258.5 C515.9,270.7 510.2,279 491.3,279 Z M493.3,233.2 L493.3,227.3 C493.3,225.2 492.4,223.6 486.6,223.6 C480.6,223.6 479.7,225.2 479.7,227.3 L479.7,233.2 C479.7,235.2 480.6,236.8 486.6,236.8 C492.4,236.8 493.3,235.2 493.3,233.2 Z" id="19" fill="#000000" fill-rule="nonzero"></path>
        <path d="M455.4,686.4 L455.4,696.1 C455.4,706.5 448.7,713.5 424.6,713.5 C400.5,713.5 393.7,706.5 393.7,696.1 L393.7,686.4 C393.7,677 398.3,672.1 404.3,670.9 C399.9,669 398.4,665.2 398.4,660.1 L398.4,654.3 C398.4,644.5 404.6,638.5 424.7,638.5 C444.8,638.5 450.7,644.5 450.7,654.3 L450.7,660.1 C450.7,665.2 449.2,669 444.8,670.9 C450.8,672.1 455.4,677 455.4,686.4 Z M418.3,664 C418.3,666.1 419,667.7 424.6,667.7 C430.3,667.7 430.8,666.1 430.8,664 L430.8,659.6 C430.8,657.6 430.3,656 424.6,656 C419,656 418.3,657.6 418.3,659.6 L418.3,664 Z M415.8,692.3 C415.8,694.4 417.4,696 424.6,696 C431.9,696 433.3,694.4 433.3,692.3 L433.3,687 C433.3,685 431.9,683.4 424.6,683.4 C417.4,683.4 415.8,685 415.8,687 L415.8,692.3 Z M501.5,695.3 L484.6,695.3 C471.6,695.3 466.4,690.1 466.4,678.7 L466.4,643.6 C466.4,641.1 467.5,640 470,640 L485.5,640 C488,640 489.1,641.1 489.1,643.6 L489.1,671 C489.1,673.1 490.3,674.4 492.2,674.4 L501.5,674.4 L501.5,643.6 C501.5,641.1 502.6,640 505.1,640 L520.5,640 C523,640 524.1,641.1 524.1,643.6 L524.1,708.4 C524.1,710.9 523,712 520.5,712 L505.1,712 C502.6,712 501.5,710.9 501.5,708.4 L501.5,695.3 Z" id="84" fill="#000000" fill-rule="nonzero"></path>
    </g>
</svg>