<svg viewBox="0 0 1440 900" xmlns="http://www.w3.org/2000/svg" xmlns:xlink="http://www.w3.org/1999/xlink" overflow="hidden">
	<defs>
		<path d="M65.675 68.02L44.442 57.5l21.235-10.52c1.181-.603 1.661-2.067 1.07-3.27l-2.14-4.361a2.374 2.374 0 0 0-3.212-1.091L33.5 52.078 5.604 38.258a2.373 2.373 0 0 0-3.21 1.09L.253 43.71c-.592 1.203-.113 2.667 1.068 3.27L22.557 57.5 1.324 68.02c-1.182.602-1.662 2.066-1.07 3.27l2.14 4.362a2.372 2.372 0 0 0 3.212 1.09L33.5 62.922l27.895 13.82a2.374 2.374 0 0 0 3.211-1.09l2.14-4.361c.591-1.205.11-2.67-1.07-3.27zM22.451 35.427l-.818 3.863c-.398 1.884.81 3.71 2.456 3.71h18.825c1.647 0 2.854-1.826 2.456-3.71l-.821-3.863C50.787 32.081 55 26.058 55 19.111 55 8.557 45.374 0 33.5 0S12 8.557 12 19.111c0 6.947 4.213 12.97 10.451 16.316zM42 17c2.758 0 5 2.242 5 5s-2.242 5-5 5-5-2.242-5-5 2.242-5 5-5zm-17 0c2.758 0 5 2.242 5 5s-2.242 5-5 5-5-2.242-5-5 2.242-5 5-5z" fill-rule="nonzero" id="seven-skull" />
		<pattern id="seven-pattern-1" width="250" height="250" patternUnits="userSpaceOnUse">
			<rect width="250" height="250" id="seven-skull-bg" fill="white" />
			<use href="#seven-skull" id="seven-skull-1" />
			<use href="#seven-skull" id="seven-skull-2" x="141" y="125" />
		</pattern>
	</defs>
	<g id="seven-Slide-7" fill="none" fill-rule="evenodd" transform="translate(0 1)">
		<rect id="seven-patternBackground" fill="url(#seven-pattern-1)" width="250" height="250" />
		<text id="seven-&lt;pattern&gt;" font-family="DINAlternate-Bold, DIN Alternate" font-size="100" font-weight="bold" fill="#000">
			<tspan x="509.69" y="485">
				&lt;pattern&gt;
			</tspan>
		</text>
		<g id="seven-myspace-header">
			<rect id="seven-Rectangle" fill="#275BB5" x="0" y="0" height="84" width="100%" />
			<path d="M51.635 33.589a7.795 7.795 0 1 1 .006-15.59 7.795 7.795 0 0 1-.006 15.59zm11.292 12.073h.02v20.785H40.786V56.059H28.864v-8.563H20V36.46h.009a5.88 5.88 0 0 1 11.511-1.481 8.14 8.14 0 0 1 5.52-2.157 8.175 8.175 0 0 1 7.501 4.922 11.023 11.023 0 0 1 7.324-2.782c5.992 0 10.859 4.76 11.062 10.7zM36.871 31.805a5.75 5.75 0 1 1 0-11.5 5.753 5.753 0 0 1 5.754 5.751 5.752 5.752 0 0 1-5.754 5.749zm-11.107-1.758a4.139 4.139 0 1 1 0-8.278 4.139 4.139 0 0 1 0 8.278zm58.524 7.167v6.43c0 1.018-.229 1.776-.691 2.288-.459.505-1.065.762-1.818.762-.732 0-1.325-.257-1.778-.762-.452-.512-.682-1.271-.682-2.288v-7.707c0-1.218-.041-2.163-.123-2.836-.082-.675-.307-1.225-.675-1.657-.366-.43-.946-.646-1.737-.646-1.583 0-2.629.543-3.132 1.627-.501 1.091-.751 2.647-.751 4.681v6.537c0 1.006-.228 1.764-.682 2.276-.452.515-1.049.773-1.795.773-.727 0-1.328-.259-1.791-.773-.468-.513-.701-1.275-.701-2.276V29.799c0-.907.21-1.6.629-2.073.417-.473.967-.706 1.652-.706.659 0 1.212.22 1.652.661.443.445.664 1.057.664 1.836v.464c.841-1.002 1.736-1.744 2.693-2.22.954-.471 2.018-.709 3.187-.709 1.215 0 2.261.243 3.136.728.873.483 1.593 1.22 2.159 2.202.816-.993 1.688-1.732 2.617-2.209.934-.479 1.966-.72 3.098-.72 1.323 0 2.464.264 3.418.782a4.99 4.99 0 0 1 2.144 2.236c.411.873.616 2.25.616 4.129v9.446c0 1.018-.227 1.776-.688 2.288-.462.505-1.069.762-1.823.762-.729 0-1.33-.259-1.795-.773-.464-.513-.701-1.271-.701-2.276V35.51c0-1.041-.04-1.87-.128-2.498-.092-.627-.33-1.15-.719-1.577-.388-.425-.979-.637-1.771-.637-.635 0-1.242.188-1.815.566a3.838 3.838 0 0 0-1.335 1.525c-.359.817-.534 2.255-.534 4.325zm20.476 10.052l.443-1.082-5.944-14.972c-.366-.864-.55-1.492-.55-1.879 0-.414.106-.796.321-1.15.211-.352.501-.636.875-.848a2.298 2.298 0 0 1 1.159-.322c.696 0 1.224.227 1.573.665.355.446.668 1.08.941 1.907l4.086 11.911 3.875-11.08c.305-.897.584-1.6.834-2.106.243-.509.506-.852.784-1.029.275-.178.67-.268 1.178-.268.365 0 .716.1 1.052.293.336.193.595.458.779.788.182.333.275.677.275 1.044-.05.225-.125.547-.232.956-.107.414-.234.834-.389 1.256l-6.299 16.501c-.541 1.451-1.072 2.589-1.591 3.417a5.297 5.297 0 0 1-2.064 1.906c-.854.44-2.006.663-3.458.663-1.414 0-2.478-.156-3.184-.462-.707-.307-1.062-.87-1.062-1.683 0-.559.168-.984.504-1.283.336-.305.837-.454 1.496-.454.258 0 .514.032.759.106.312.072.573.104.797.104.553 0 .994-.081 1.309-.244.316-.166.603-.453.859-.859.251-.408.545-1.006.874-1.796zm30.275-6.897c0 1.333-.321 2.474-.974 3.428-.648.948-1.612 1.672-2.882 2.159-1.272.491-2.82.737-4.637.737-1.739 0-3.232-.269-4.471-.801-1.244-.529-2.162-1.193-2.752-1.99-.589-.796-.886-1.597-.886-2.4 0-.529.188-.986.568-1.364.379-.378.857-.568 1.438-.568.506 0 .896.122 1.17.373.273.248.53.598.78 1.048.498.859 1.093 1.503 1.786 1.931.693.426 1.638.637 2.838.637.97 0 1.768-.218 2.389-.647.625-.43.934-.924.934-1.479 0-.848-.325-1.473-.969-1.861-.647-.389-1.71-.761-3.192-1.116-1.668-.415-3.027-.848-4.075-1.302-1.05-.458-1.889-1.057-2.514-1.8-.63-.746-.941-1.666-.941-2.75 0-.968.288-1.886.868-2.75.581-.864 1.437-1.553 2.563-2.066 1.129-.516 2.493-.772 4.093-.772 1.252 0 2.377.13 3.379.388 1 .262 1.833.615 2.502 1.049.666.438 1.177.922 1.525 1.454.35.534.524 1.054.524 1.565 0 .554-.186 1.009-.558 1.366-.371.352-.9.53-1.582.53-.498 0-.918-.141-1.263-.423-.35-.285-.748-.709-1.198-1.275-.368-.47-.8-.849-1.295-1.134-.5-.281-1.175-.423-2.029-.423-.877 0-1.607.185-2.189.554-.582.373-.87.839-.87 1.392 0 .509.215.925.641 1.25.425.328 1 .593 1.725.808.723.211 1.72.473 2.988.779 1.498.366 2.722.802 3.672 1.311.95.509 1.67 1.109 2.159 1.798.492.689.735 1.478.735 2.364zm18.007-3.598c0-1.274-.195-2.373-.583-3.286-.391-.916-.932-1.618-1.623-2.107a3.882 3.882 0 0 0-2.291-.733c-1.336 0-2.461.524-3.374 1.574-.919 1.05-1.374 2.598-1.374 4.639 0 1.925.453 3.42 1.364 4.489.909 1.068 2.037 1.6 3.384 1.6.802 0 1.548-.232 2.232-.697.685-.466 1.231-1.167 1.646-2.098.413-.933.619-2.061.619-3.381zm-9.476-7.034v.586c.911-1.127 1.855-1.952 2.834-2.479.982-.528 2.091-.793 3.33-.793 1.491 0 2.858.386 4.108 1.153 1.25.77 2.241 1.893 2.97 3.37.721 1.475 1.089 3.226 1.089 5.245 0 1.489-.211 2.857-.629 4.102-.421 1.249-.996 2.296-1.728 3.139a7.527 7.527 0 0 1-2.595 1.949 7.61 7.61 0 0 1-3.216.686c-1.38 0-2.541-.28-3.479-.839-.939-.553-1.835-1.37-2.685-2.448v7.25c0 2.12-.774 3.182-2.327 3.182-.911 0-1.516-.276-1.811-.828-.3-.546-.446-1.348-.446-2.396V29.762c0-.92.203-1.607.603-2.061.405-.457.956-.684 1.654-.684.687 0 1.245.234 1.68.7.432.471.648 1.141.648 2.02zm30.112 7.212c-.711.263-1.74.536-3.092.827a72.772 72.772 0 0 0-2.81.639c-.523.136-1.019.404-1.492.799-.472.394-.706.95-.706 1.659 0 .734.277 1.359.832 1.875.552.514 1.281.774 2.181.774.955 0 1.839-.212 2.648-.635.811-.417 1.403-.961 1.782-1.624.436-.734.655-1.943.655-3.625v-.689h.002zm.318 7.013c-1.17.912-2.302 1.592-3.393 2.046-1.093.455-2.32.683-3.678.683-1.24 0-2.329-.243-3.272-.734-.936-.49-1.659-1.153-2.167-1.997a5.186 5.186 0 0 1-.761-2.732c0-1.325.417-2.454 1.256-3.391.84-.934 1.991-1.561 3.457-1.876.305-.073 1.071-.231 2.285-.481 1.215-.249 2.26-.476 3.131-.679a63.573 63.573 0 0 0 2.824-.756c-.062-1.274-.315-2.213-.77-2.811-.457-.595-1.399-.893-2.828-.893-1.226 0-2.154.171-2.771.513-.621.346-1.152.857-1.594 1.543-.446.684-.757 1.139-.94 1.357-.185.215-.575.325-1.18.325-.542 0-1.013-.17-1.409-.523-.395-.348-.591-.795-.591-1.336 0-.849.3-1.674.9-2.479.604-.802 1.54-1.466 2.815-1.985 1.277-.514 2.864-.778 4.764-.778 2.122 0 3.794.255 5.009.754 1.218.503 2.076 1.295 2.577 2.381.502 1.089.754 2.532.754 4.328 0 1.131-.002 2.098-.011 2.889-.007.792-.014 1.672-.027 2.638 0 .912.153 1.861.454 2.847.301.991.45 1.625.45 1.91 0 .495-.232.95-.7 1.357-.463.406-.993.61-1.579.61-.496 0-.984-.234-1.468-.7-.482-.466-.993-1.144-1.537-2.03zm26.66-3.262c0 .6-.182 1.246-.541 1.932-.358.684-.909 1.337-1.646 1.957-.739.623-1.668 1.121-2.789 1.498-1.119.38-2.385.566-3.788.566-2.986 0-5.32-.869-6.992-2.614-1.677-1.743-2.516-4.079-2.516-7.013 0-1.982.381-3.739 1.151-5.262.767-1.527 1.875-2.704 3.326-3.541 1.453-.831 3.188-1.245 5.206-1.245 1.253 0 2.399.18 3.442.545 1.046.366 1.932.841 2.658 1.418.726.579 1.282 1.193 1.663 1.85.384.657.578 1.267.578 1.832 0 .582-.216 1.068-.647 1.47-.431.403-.957.603-1.57.603-.397 0-.732-.105-.998-.309-.266-.209-.563-.546-.894-1.005-.592-.902-1.209-1.577-1.852-2.024-.641-.45-1.461-.673-2.451-.673-1.429 0-2.58.56-3.453 1.677-.874 1.121-1.311 2.649-1.311 4.589 0 .911.113 1.755.337 2.514.227.763.549 1.417.974 1.956.428.537.939.946 1.542 1.224a4.684 4.684 0 0 0 1.981.416c.97 0 1.798-.225 2.487-.672.691-.452 1.303-1.136 1.832-2.063.296-.543.616-.969.957-1.277a1.826 1.826 0 0 1 1.257-.464c.59 0 1.08.228 1.468.675.393.454.589.931.589 1.44zm8.237-5.394h8.769c-.121-1.659-.565-2.907-1.339-3.727-.774-.827-1.793-1.238-3.055-1.238-1.204 0-2.193.417-2.968 1.254-.77.835-1.241 2.073-1.407 3.711zm9.457 2.752h-9.456c.015 1.098.234 2.062.666 2.896.432.841 1 1.472 1.717 1.895.713.42 1.502.637 2.363.637.579 0 1.107-.07 1.588-.21a5.059 5.059 0 0 0 1.389-.632c.444-.288.861-.598 1.238-.929.372-.33.866-.776 1.471-1.344.246-.211.601-.318 1.06-.318.495 0 .899.139 1.204.404.305.273.461.657.461 1.153 0 .438-.173.95-.513 1.531-.341.586-.859 1.146-1.549 1.682-.692.539-1.558.982-2.602 1.336-1.048.357-2.247.535-3.604.535-3.104 0-5.516-.889-7.235-2.66-1.721-1.774-2.582-4.181-2.582-7.217 0-1.428.214-2.757.637-3.979.423-1.225 1.042-2.275 1.854-3.15.813-.873 1.815-1.545 3.006-2.011 1.191-.466 2.515-.7 3.966-.7 1.886 0 3.507.399 4.858 1.198 1.354.799 2.361 1.833 3.04 3.102.669 1.266 1.006 2.555 1.006 3.87 0 1.219-.347 2.009-1.043 2.369-.698.362-1.676.542-2.94.542zm11.712 7.279h-.748v-3.915h1.244l.701 2.7.709-2.7h1.241v3.916h-.755v-3.115l-.845 3.115h-.712l-.836-3.115v3.114h.001zm-2.385 0h-.796V42.11h-1.216v-.688h3.182v.688h-1.17v3.227z" id="seven-Myspace" fill="#FFF" fill-rule="nonzero" />
			<path id="seven-Rectangle" fill="#6B99C8" d="M0 84h1440v43H0z" />
		</g>
		<g id="seven-myspace-content" transform="translate(125 269)">
			<text id="seven-Chris" font-family="Verdana-Bold, Verdana" font-size="60" font-weight="bold" fill="#FFF">
				<tspan x="0" y="60">
					Chris
				</tspan>
			</text>
			<image id="seven-full" y="91" width="469" height="352" xlink:href="/common/myspace.png" />
			<path id="seven-Rectangle" stroke="#979797" stroke-width="2" fill="#FFF" d="M596 17h578v154H596z" />
			<text id="seven-Chris-is-in-your-ext" font-family="Verdana" font-size="31" fill="#000">
				<tspan x="621.651" y="101">
					Chris is in your extended network
				</tspan>
			</text>
		</g>
	</g>
</svg>
